%TF.GenerationSoftware,KiCad,Pcbnew,7.0.2-79-gd0069e0e1d*%
%TF.CreationDate,2023-05-08T00:19:59+01:00*%
%TF.ProjectId,ToastedBreadBoard64,546f6173-7465-4644-9272-656164426f61,rev?*%
%TF.SameCoordinates,Original*%
%TF.FileFunction,Legend,Top*%
%TF.FilePolarity,Positive*%
%FSLAX46Y46*%
G04 Gerber Fmt 4.6, Leading zero omitted, Abs format (unit mm)*
G04 Created by KiCad (PCBNEW 7.0.2-79-gd0069e0e1d) date 2023-05-08 00:19:59*
%MOMM*%
%LPD*%
G01*
G04 APERTURE LIST*
%ADD10C,0.300000*%
%ADD11C,0.150000*%
%ADD12C,0.120000*%
G04 APERTURE END LIST*
D10*
X145256190Y-39565238D02*
X144303809Y-39565238D01*
X144303809Y-39565238D02*
X144208571Y-40517619D01*
X144208571Y-40517619D02*
X144303809Y-40422380D01*
X144303809Y-40422380D02*
X144494285Y-40327142D01*
X144494285Y-40327142D02*
X144970476Y-40327142D01*
X144970476Y-40327142D02*
X145160952Y-40422380D01*
X145160952Y-40422380D02*
X145256190Y-40517619D01*
X145256190Y-40517619D02*
X145351428Y-40708095D01*
X145351428Y-40708095D02*
X145351428Y-41184285D01*
X145351428Y-41184285D02*
X145256190Y-41374761D01*
X145256190Y-41374761D02*
X145160952Y-41470000D01*
X145160952Y-41470000D02*
X144970476Y-41565238D01*
X144970476Y-41565238D02*
X144494285Y-41565238D01*
X144494285Y-41565238D02*
X144303809Y-41470000D01*
X144303809Y-41470000D02*
X144208571Y-41374761D01*
X112236190Y-39565238D02*
X111283809Y-39565238D01*
X111283809Y-39565238D02*
X111188571Y-40517619D01*
X111188571Y-40517619D02*
X111283809Y-40422380D01*
X111283809Y-40422380D02*
X111474285Y-40327142D01*
X111474285Y-40327142D02*
X111950476Y-40327142D01*
X111950476Y-40327142D02*
X112140952Y-40422380D01*
X112140952Y-40422380D02*
X112236190Y-40517619D01*
X112236190Y-40517619D02*
X112331428Y-40708095D01*
X112331428Y-40708095D02*
X112331428Y-41184285D01*
X112331428Y-41184285D02*
X112236190Y-41374761D01*
X112236190Y-41374761D02*
X112140952Y-41470000D01*
X112140952Y-41470000D02*
X111950476Y-41565238D01*
X111950476Y-41565238D02*
X111474285Y-41565238D01*
X111474285Y-41565238D02*
X111283809Y-41470000D01*
X111283809Y-41470000D02*
X111188571Y-41374761D01*
D11*
X120959523Y-110272380D02*
X120911904Y-110320000D01*
X120911904Y-110320000D02*
X120769047Y-110367619D01*
X120769047Y-110367619D02*
X120673809Y-110367619D01*
X120673809Y-110367619D02*
X120530952Y-110320000D01*
X120530952Y-110320000D02*
X120435714Y-110224761D01*
X120435714Y-110224761D02*
X120388095Y-110129523D01*
X120388095Y-110129523D02*
X120340476Y-109939047D01*
X120340476Y-109939047D02*
X120340476Y-109796190D01*
X120340476Y-109796190D02*
X120388095Y-109605714D01*
X120388095Y-109605714D02*
X120435714Y-109510476D01*
X120435714Y-109510476D02*
X120530952Y-109415238D01*
X120530952Y-109415238D02*
X120673809Y-109367619D01*
X120673809Y-109367619D02*
X120769047Y-109367619D01*
X120769047Y-109367619D02*
X120911904Y-109415238D01*
X120911904Y-109415238D02*
X120959523Y-109462857D01*
D10*
X110236190Y-91825714D02*
X110331428Y-91730476D01*
X110331428Y-91730476D02*
X110521904Y-91635238D01*
X110521904Y-91635238D02*
X110998095Y-91635238D01*
X110998095Y-91635238D02*
X111188571Y-91730476D01*
X111188571Y-91730476D02*
X111283809Y-91825714D01*
X111283809Y-91825714D02*
X111379047Y-92016190D01*
X111379047Y-92016190D02*
X111379047Y-92206666D01*
X111379047Y-92206666D02*
X111283809Y-92492380D01*
X111283809Y-92492380D02*
X110140952Y-93635238D01*
X110140952Y-93635238D02*
X111379047Y-93635238D01*
X113188571Y-91635238D02*
X112236190Y-91635238D01*
X112236190Y-91635238D02*
X112140952Y-92587619D01*
X112140952Y-92587619D02*
X112236190Y-92492380D01*
X112236190Y-92492380D02*
X112426666Y-92397142D01*
X112426666Y-92397142D02*
X112902857Y-92397142D01*
X112902857Y-92397142D02*
X113093333Y-92492380D01*
X113093333Y-92492380D02*
X113188571Y-92587619D01*
X113188571Y-92587619D02*
X113283809Y-92778095D01*
X113283809Y-92778095D02*
X113283809Y-93254285D01*
X113283809Y-93254285D02*
X113188571Y-93444761D01*
X113188571Y-93444761D02*
X113093333Y-93540000D01*
X113093333Y-93540000D02*
X112902857Y-93635238D01*
X112902857Y-93635238D02*
X112426666Y-93635238D01*
X112426666Y-93635238D02*
X112236190Y-93540000D01*
X112236190Y-93540000D02*
X112140952Y-93444761D01*
X150368095Y-108213333D02*
X151891905Y-108213333D01*
X104648095Y-81543333D02*
X106171905Y-81543333D01*
X105410000Y-82305238D02*
X105410000Y-80781428D01*
D11*
X115331905Y-110081904D02*
X115808095Y-110081904D01*
X115236667Y-110367619D02*
X115570000Y-109367619D01*
X115570000Y-109367619D02*
X115903333Y-110367619D01*
X133611904Y-24325238D02*
X133516666Y-24277619D01*
X133516666Y-24277619D02*
X133373809Y-24277619D01*
X133373809Y-24277619D02*
X133230952Y-24325238D01*
X133230952Y-24325238D02*
X133135714Y-24420476D01*
X133135714Y-24420476D02*
X133088095Y-24515714D01*
X133088095Y-24515714D02*
X133040476Y-24706190D01*
X133040476Y-24706190D02*
X133040476Y-24849047D01*
X133040476Y-24849047D02*
X133088095Y-25039523D01*
X133088095Y-25039523D02*
X133135714Y-25134761D01*
X133135714Y-25134761D02*
X133230952Y-25230000D01*
X133230952Y-25230000D02*
X133373809Y-25277619D01*
X133373809Y-25277619D02*
X133469047Y-25277619D01*
X133469047Y-25277619D02*
X133611904Y-25230000D01*
X133611904Y-25230000D02*
X133659523Y-25182380D01*
X133659523Y-25182380D02*
X133659523Y-24849047D01*
X133659523Y-24849047D02*
X133469047Y-24849047D01*
D10*
X147828095Y-108213333D02*
X149351905Y-108213333D01*
X148590000Y-108975238D02*
X148590000Y-107451428D01*
X147828095Y-81543333D02*
X149351905Y-81543333D01*
X148590000Y-82305238D02*
X148590000Y-80781428D01*
D11*
X130952857Y-24753809D02*
X130619524Y-24753809D01*
X130619524Y-25277619D02*
X130619524Y-24277619D01*
X130619524Y-24277619D02*
X131095714Y-24277619D01*
X130952857Y-109843809D02*
X130619524Y-109843809D01*
X130619524Y-110367619D02*
X130619524Y-109367619D01*
X130619524Y-109367619D02*
X131095714Y-109367619D01*
D10*
X143256190Y-77855714D02*
X143351428Y-77760476D01*
X143351428Y-77760476D02*
X143541904Y-77665238D01*
X143541904Y-77665238D02*
X144018095Y-77665238D01*
X144018095Y-77665238D02*
X144208571Y-77760476D01*
X144208571Y-77760476D02*
X144303809Y-77855714D01*
X144303809Y-77855714D02*
X144399047Y-78046190D01*
X144399047Y-78046190D02*
X144399047Y-78236666D01*
X144399047Y-78236666D02*
X144303809Y-78522380D01*
X144303809Y-78522380D02*
X143160952Y-79665238D01*
X143160952Y-79665238D02*
X144399047Y-79665238D01*
X145637142Y-77665238D02*
X145827619Y-77665238D01*
X145827619Y-77665238D02*
X146018095Y-77760476D01*
X146018095Y-77760476D02*
X146113333Y-77855714D01*
X146113333Y-77855714D02*
X146208571Y-78046190D01*
X146208571Y-78046190D02*
X146303809Y-78427142D01*
X146303809Y-78427142D02*
X146303809Y-78903333D01*
X146303809Y-78903333D02*
X146208571Y-79284285D01*
X146208571Y-79284285D02*
X146113333Y-79474761D01*
X146113333Y-79474761D02*
X146018095Y-79570000D01*
X146018095Y-79570000D02*
X145827619Y-79665238D01*
X145827619Y-79665238D02*
X145637142Y-79665238D01*
X145637142Y-79665238D02*
X145446666Y-79570000D01*
X145446666Y-79570000D02*
X145351428Y-79474761D01*
X145351428Y-79474761D02*
X145256190Y-79284285D01*
X145256190Y-79284285D02*
X145160952Y-78903333D01*
X145160952Y-78903333D02*
X145160952Y-78427142D01*
X145160952Y-78427142D02*
X145256190Y-78046190D01*
X145256190Y-78046190D02*
X145351428Y-77855714D01*
X145351428Y-77855714D02*
X145446666Y-77760476D01*
X145446666Y-77760476D02*
X145637142Y-77665238D01*
D11*
X141112857Y-109367619D02*
X141112857Y-110081904D01*
X141112857Y-110081904D02*
X141065238Y-110224761D01*
X141065238Y-110224761D02*
X140970000Y-110320000D01*
X140970000Y-110320000D02*
X140827143Y-110367619D01*
X140827143Y-110367619D02*
X140731905Y-110367619D01*
D10*
X104648095Y-26933333D02*
X106171905Y-26933333D01*
X105410000Y-27695238D02*
X105410000Y-26171428D01*
X104648095Y-108213333D02*
X106171905Y-108213333D01*
X105410000Y-108975238D02*
X105410000Y-107451428D01*
D11*
X125515714Y-109843809D02*
X125849047Y-109843809D01*
X125991904Y-110367619D02*
X125515714Y-110367619D01*
X125515714Y-110367619D02*
X125515714Y-109367619D01*
X125515714Y-109367619D02*
X125991904Y-109367619D01*
D10*
X107218095Y-108213333D02*
X108741905Y-108213333D01*
D11*
X115331905Y-24991904D02*
X115808095Y-24991904D01*
X115236667Y-25277619D02*
X115570000Y-24277619D01*
X115570000Y-24277619D02*
X115903333Y-25277619D01*
X122928095Y-25277619D02*
X122928095Y-24277619D01*
X122928095Y-24277619D02*
X123166190Y-24277619D01*
X123166190Y-24277619D02*
X123309047Y-24325238D01*
X123309047Y-24325238D02*
X123404285Y-24420476D01*
X123404285Y-24420476D02*
X123451904Y-24515714D01*
X123451904Y-24515714D02*
X123499523Y-24706190D01*
X123499523Y-24706190D02*
X123499523Y-24849047D01*
X123499523Y-24849047D02*
X123451904Y-25039523D01*
X123451904Y-25039523D02*
X123404285Y-25134761D01*
X123404285Y-25134761D02*
X123309047Y-25230000D01*
X123309047Y-25230000D02*
X123166190Y-25277619D01*
X123166190Y-25277619D02*
X122928095Y-25277619D01*
D10*
X143256190Y-91825714D02*
X143351428Y-91730476D01*
X143351428Y-91730476D02*
X143541904Y-91635238D01*
X143541904Y-91635238D02*
X144018095Y-91635238D01*
X144018095Y-91635238D02*
X144208571Y-91730476D01*
X144208571Y-91730476D02*
X144303809Y-91825714D01*
X144303809Y-91825714D02*
X144399047Y-92016190D01*
X144399047Y-92016190D02*
X144399047Y-92206666D01*
X144399047Y-92206666D02*
X144303809Y-92492380D01*
X144303809Y-92492380D02*
X143160952Y-93635238D01*
X143160952Y-93635238D02*
X144399047Y-93635238D01*
X146208571Y-91635238D02*
X145256190Y-91635238D01*
X145256190Y-91635238D02*
X145160952Y-92587619D01*
X145160952Y-92587619D02*
X145256190Y-92492380D01*
X145256190Y-92492380D02*
X145446666Y-92397142D01*
X145446666Y-92397142D02*
X145922857Y-92397142D01*
X145922857Y-92397142D02*
X146113333Y-92492380D01*
X146113333Y-92492380D02*
X146208571Y-92587619D01*
X146208571Y-92587619D02*
X146303809Y-92778095D01*
X146303809Y-92778095D02*
X146303809Y-93254285D01*
X146303809Y-93254285D02*
X146208571Y-93444761D01*
X146208571Y-93444761D02*
X146113333Y-93540000D01*
X146113333Y-93540000D02*
X145922857Y-93635238D01*
X145922857Y-93635238D02*
X145446666Y-93635238D01*
X145446666Y-93635238D02*
X145256190Y-93540000D01*
X145256190Y-93540000D02*
X145160952Y-93444761D01*
X144684761Y-26865238D02*
X144875238Y-26865238D01*
X144875238Y-26865238D02*
X145065714Y-26960476D01*
X145065714Y-26960476D02*
X145160952Y-27055714D01*
X145160952Y-27055714D02*
X145256190Y-27246190D01*
X145256190Y-27246190D02*
X145351428Y-27627142D01*
X145351428Y-27627142D02*
X145351428Y-28103333D01*
X145351428Y-28103333D02*
X145256190Y-28484285D01*
X145256190Y-28484285D02*
X145160952Y-28674761D01*
X145160952Y-28674761D02*
X145065714Y-28770000D01*
X145065714Y-28770000D02*
X144875238Y-28865238D01*
X144875238Y-28865238D02*
X144684761Y-28865238D01*
X144684761Y-28865238D02*
X144494285Y-28770000D01*
X144494285Y-28770000D02*
X144399047Y-28674761D01*
X144399047Y-28674761D02*
X144303809Y-28484285D01*
X144303809Y-28484285D02*
X144208571Y-28103333D01*
X144208571Y-28103333D02*
X144208571Y-27627142D01*
X144208571Y-27627142D02*
X144303809Y-27246190D01*
X144303809Y-27246190D02*
X144399047Y-27055714D01*
X144399047Y-27055714D02*
X144494285Y-26960476D01*
X144494285Y-26960476D02*
X144684761Y-26865238D01*
D11*
X118181428Y-109843809D02*
X118324285Y-109891428D01*
X118324285Y-109891428D02*
X118371904Y-109939047D01*
X118371904Y-109939047D02*
X118419523Y-110034285D01*
X118419523Y-110034285D02*
X118419523Y-110177142D01*
X118419523Y-110177142D02*
X118371904Y-110272380D01*
X118371904Y-110272380D02*
X118324285Y-110320000D01*
X118324285Y-110320000D02*
X118229047Y-110367619D01*
X118229047Y-110367619D02*
X117848095Y-110367619D01*
X117848095Y-110367619D02*
X117848095Y-109367619D01*
X117848095Y-109367619D02*
X118181428Y-109367619D01*
X118181428Y-109367619D02*
X118276666Y-109415238D01*
X118276666Y-109415238D02*
X118324285Y-109462857D01*
X118324285Y-109462857D02*
X118371904Y-109558095D01*
X118371904Y-109558095D02*
X118371904Y-109653333D01*
X118371904Y-109653333D02*
X118324285Y-109748571D01*
X118324285Y-109748571D02*
X118276666Y-109796190D01*
X118276666Y-109796190D02*
X118181428Y-109843809D01*
X118181428Y-109843809D02*
X117848095Y-109843809D01*
D10*
X150368095Y-81543333D02*
X151891905Y-81543333D01*
D11*
X125515714Y-24753809D02*
X125849047Y-24753809D01*
X125991904Y-25277619D02*
X125515714Y-25277619D01*
X125515714Y-25277619D02*
X125515714Y-24277619D01*
X125515714Y-24277619D02*
X125991904Y-24277619D01*
D10*
X111664761Y-26865238D02*
X111855238Y-26865238D01*
X111855238Y-26865238D02*
X112045714Y-26960476D01*
X112045714Y-26960476D02*
X112140952Y-27055714D01*
X112140952Y-27055714D02*
X112236190Y-27246190D01*
X112236190Y-27246190D02*
X112331428Y-27627142D01*
X112331428Y-27627142D02*
X112331428Y-28103333D01*
X112331428Y-28103333D02*
X112236190Y-28484285D01*
X112236190Y-28484285D02*
X112140952Y-28674761D01*
X112140952Y-28674761D02*
X112045714Y-28770000D01*
X112045714Y-28770000D02*
X111855238Y-28865238D01*
X111855238Y-28865238D02*
X111664761Y-28865238D01*
X111664761Y-28865238D02*
X111474285Y-28770000D01*
X111474285Y-28770000D02*
X111379047Y-28674761D01*
X111379047Y-28674761D02*
X111283809Y-28484285D01*
X111283809Y-28484285D02*
X111188571Y-28103333D01*
X111188571Y-28103333D02*
X111188571Y-27627142D01*
X111188571Y-27627142D02*
X111283809Y-27246190D01*
X111283809Y-27246190D02*
X111379047Y-27055714D01*
X111379047Y-27055714D02*
X111474285Y-26960476D01*
X111474285Y-26960476D02*
X111664761Y-26865238D01*
X110140952Y-104335238D02*
X111379047Y-104335238D01*
X111379047Y-104335238D02*
X110712380Y-105097142D01*
X110712380Y-105097142D02*
X110998095Y-105097142D01*
X110998095Y-105097142D02*
X111188571Y-105192380D01*
X111188571Y-105192380D02*
X111283809Y-105287619D01*
X111283809Y-105287619D02*
X111379047Y-105478095D01*
X111379047Y-105478095D02*
X111379047Y-105954285D01*
X111379047Y-105954285D02*
X111283809Y-106144761D01*
X111283809Y-106144761D02*
X111188571Y-106240000D01*
X111188571Y-106240000D02*
X110998095Y-106335238D01*
X110998095Y-106335238D02*
X110426666Y-106335238D01*
X110426666Y-106335238D02*
X110236190Y-106240000D01*
X110236190Y-106240000D02*
X110140952Y-106144761D01*
X112617142Y-104335238D02*
X112807619Y-104335238D01*
X112807619Y-104335238D02*
X112998095Y-104430476D01*
X112998095Y-104430476D02*
X113093333Y-104525714D01*
X113093333Y-104525714D02*
X113188571Y-104716190D01*
X113188571Y-104716190D02*
X113283809Y-105097142D01*
X113283809Y-105097142D02*
X113283809Y-105573333D01*
X113283809Y-105573333D02*
X113188571Y-105954285D01*
X113188571Y-105954285D02*
X113093333Y-106144761D01*
X113093333Y-106144761D02*
X112998095Y-106240000D01*
X112998095Y-106240000D02*
X112807619Y-106335238D01*
X112807619Y-106335238D02*
X112617142Y-106335238D01*
X112617142Y-106335238D02*
X112426666Y-106240000D01*
X112426666Y-106240000D02*
X112331428Y-106144761D01*
X112331428Y-106144761D02*
X112236190Y-105954285D01*
X112236190Y-105954285D02*
X112140952Y-105573333D01*
X112140952Y-105573333D02*
X112140952Y-105097142D01*
X112140952Y-105097142D02*
X112236190Y-104716190D01*
X112236190Y-104716190D02*
X112331428Y-104525714D01*
X112331428Y-104525714D02*
X112426666Y-104430476D01*
X112426666Y-104430476D02*
X112617142Y-104335238D01*
X107218095Y-81543333D02*
X108741905Y-81543333D01*
D11*
X118181428Y-24753809D02*
X118324285Y-24801428D01*
X118324285Y-24801428D02*
X118371904Y-24849047D01*
X118371904Y-24849047D02*
X118419523Y-24944285D01*
X118419523Y-24944285D02*
X118419523Y-25087142D01*
X118419523Y-25087142D02*
X118371904Y-25182380D01*
X118371904Y-25182380D02*
X118324285Y-25230000D01*
X118324285Y-25230000D02*
X118229047Y-25277619D01*
X118229047Y-25277619D02*
X117848095Y-25277619D01*
X117848095Y-25277619D02*
X117848095Y-24277619D01*
X117848095Y-24277619D02*
X118181428Y-24277619D01*
X118181428Y-24277619D02*
X118276666Y-24325238D01*
X118276666Y-24325238D02*
X118324285Y-24372857D01*
X118324285Y-24372857D02*
X118371904Y-24468095D01*
X118371904Y-24468095D02*
X118371904Y-24563333D01*
X118371904Y-24563333D02*
X118324285Y-24658571D01*
X118324285Y-24658571D02*
X118276666Y-24706190D01*
X118276666Y-24706190D02*
X118181428Y-24753809D01*
X118181428Y-24753809D02*
X117848095Y-24753809D01*
X133611904Y-109415238D02*
X133516666Y-109367619D01*
X133516666Y-109367619D02*
X133373809Y-109367619D01*
X133373809Y-109367619D02*
X133230952Y-109415238D01*
X133230952Y-109415238D02*
X133135714Y-109510476D01*
X133135714Y-109510476D02*
X133088095Y-109605714D01*
X133088095Y-109605714D02*
X133040476Y-109796190D01*
X133040476Y-109796190D02*
X133040476Y-109939047D01*
X133040476Y-109939047D02*
X133088095Y-110129523D01*
X133088095Y-110129523D02*
X133135714Y-110224761D01*
X133135714Y-110224761D02*
X133230952Y-110320000D01*
X133230952Y-110320000D02*
X133373809Y-110367619D01*
X133373809Y-110367619D02*
X133469047Y-110367619D01*
X133469047Y-110367619D02*
X133611904Y-110320000D01*
X133611904Y-110320000D02*
X133659523Y-110272380D01*
X133659523Y-110272380D02*
X133659523Y-109939047D01*
X133659523Y-109939047D02*
X133469047Y-109939047D01*
X141112857Y-24277619D02*
X141112857Y-24991904D01*
X141112857Y-24991904D02*
X141065238Y-25134761D01*
X141065238Y-25134761D02*
X140970000Y-25230000D01*
X140970000Y-25230000D02*
X140827143Y-25277619D01*
X140827143Y-25277619D02*
X140731905Y-25277619D01*
D10*
X107188095Y-26933333D02*
X108711905Y-26933333D01*
D11*
X135604286Y-110367619D02*
X135604286Y-109367619D01*
X135604286Y-109843809D02*
X136175714Y-109843809D01*
X136175714Y-110367619D02*
X136175714Y-109367619D01*
X122928095Y-110367619D02*
X122928095Y-109367619D01*
X122928095Y-109367619D02*
X123166190Y-109367619D01*
X123166190Y-109367619D02*
X123309047Y-109415238D01*
X123309047Y-109415238D02*
X123404285Y-109510476D01*
X123404285Y-109510476D02*
X123451904Y-109605714D01*
X123451904Y-109605714D02*
X123499523Y-109796190D01*
X123499523Y-109796190D02*
X123499523Y-109939047D01*
X123499523Y-109939047D02*
X123451904Y-110129523D01*
X123451904Y-110129523D02*
X123404285Y-110224761D01*
X123404285Y-110224761D02*
X123309047Y-110320000D01*
X123309047Y-110320000D02*
X123166190Y-110367619D01*
X123166190Y-110367619D02*
X122928095Y-110367619D01*
D10*
X147828095Y-26933333D02*
X149351905Y-26933333D01*
X148590000Y-27695238D02*
X148590000Y-26171428D01*
D11*
X138430000Y-25277619D02*
X138430000Y-24277619D01*
D10*
X110236190Y-77855714D02*
X110331428Y-77760476D01*
X110331428Y-77760476D02*
X110521904Y-77665238D01*
X110521904Y-77665238D02*
X110998095Y-77665238D01*
X110998095Y-77665238D02*
X111188571Y-77760476D01*
X111188571Y-77760476D02*
X111283809Y-77855714D01*
X111283809Y-77855714D02*
X111379047Y-78046190D01*
X111379047Y-78046190D02*
X111379047Y-78236666D01*
X111379047Y-78236666D02*
X111283809Y-78522380D01*
X111283809Y-78522380D02*
X110140952Y-79665238D01*
X110140952Y-79665238D02*
X111379047Y-79665238D01*
X112617142Y-77665238D02*
X112807619Y-77665238D01*
X112807619Y-77665238D02*
X112998095Y-77760476D01*
X112998095Y-77760476D02*
X113093333Y-77855714D01*
X113093333Y-77855714D02*
X113188571Y-78046190D01*
X113188571Y-78046190D02*
X113283809Y-78427142D01*
X113283809Y-78427142D02*
X113283809Y-78903333D01*
X113283809Y-78903333D02*
X113188571Y-79284285D01*
X113188571Y-79284285D02*
X113093333Y-79474761D01*
X113093333Y-79474761D02*
X112998095Y-79570000D01*
X112998095Y-79570000D02*
X112807619Y-79665238D01*
X112807619Y-79665238D02*
X112617142Y-79665238D01*
X112617142Y-79665238D02*
X112426666Y-79570000D01*
X112426666Y-79570000D02*
X112331428Y-79474761D01*
X112331428Y-79474761D02*
X112236190Y-79284285D01*
X112236190Y-79284285D02*
X112140952Y-78903333D01*
X112140952Y-78903333D02*
X112140952Y-78427142D01*
X112140952Y-78427142D02*
X112236190Y-78046190D01*
X112236190Y-78046190D02*
X112331428Y-77855714D01*
X112331428Y-77855714D02*
X112426666Y-77760476D01*
X112426666Y-77760476D02*
X112617142Y-77665238D01*
X111379047Y-54265238D02*
X110236190Y-54265238D01*
X110807618Y-54265238D02*
X110807618Y-52265238D01*
X110807618Y-52265238D02*
X110617142Y-52550952D01*
X110617142Y-52550952D02*
X110426666Y-52741428D01*
X110426666Y-52741428D02*
X110236190Y-52836666D01*
X112617142Y-52265238D02*
X112807619Y-52265238D01*
X112807619Y-52265238D02*
X112998095Y-52360476D01*
X112998095Y-52360476D02*
X113093333Y-52455714D01*
X113093333Y-52455714D02*
X113188571Y-52646190D01*
X113188571Y-52646190D02*
X113283809Y-53027142D01*
X113283809Y-53027142D02*
X113283809Y-53503333D01*
X113283809Y-53503333D02*
X113188571Y-53884285D01*
X113188571Y-53884285D02*
X113093333Y-54074761D01*
X113093333Y-54074761D02*
X112998095Y-54170000D01*
X112998095Y-54170000D02*
X112807619Y-54265238D01*
X112807619Y-54265238D02*
X112617142Y-54265238D01*
X112617142Y-54265238D02*
X112426666Y-54170000D01*
X112426666Y-54170000D02*
X112331428Y-54074761D01*
X112331428Y-54074761D02*
X112236190Y-53884285D01*
X112236190Y-53884285D02*
X112140952Y-53503333D01*
X112140952Y-53503333D02*
X112140952Y-53027142D01*
X112140952Y-53027142D02*
X112236190Y-52646190D01*
X112236190Y-52646190D02*
X112331428Y-52455714D01*
X112331428Y-52455714D02*
X112426666Y-52360476D01*
X112426666Y-52360476D02*
X112617142Y-52265238D01*
D11*
X135604286Y-25277619D02*
X135604286Y-24277619D01*
X135604286Y-24753809D02*
X136175714Y-24753809D01*
X136175714Y-25277619D02*
X136175714Y-24277619D01*
D10*
X150368095Y-26933333D02*
X151891905Y-26933333D01*
X144399047Y-66965238D02*
X143256190Y-66965238D01*
X143827618Y-66965238D02*
X143827618Y-64965238D01*
X143827618Y-64965238D02*
X143637142Y-65250952D01*
X143637142Y-65250952D02*
X143446666Y-65441428D01*
X143446666Y-65441428D02*
X143256190Y-65536666D01*
X146208571Y-64965238D02*
X145256190Y-64965238D01*
X145256190Y-64965238D02*
X145160952Y-65917619D01*
X145160952Y-65917619D02*
X145256190Y-65822380D01*
X145256190Y-65822380D02*
X145446666Y-65727142D01*
X145446666Y-65727142D02*
X145922857Y-65727142D01*
X145922857Y-65727142D02*
X146113333Y-65822380D01*
X146113333Y-65822380D02*
X146208571Y-65917619D01*
X146208571Y-65917619D02*
X146303809Y-66108095D01*
X146303809Y-66108095D02*
X146303809Y-66584285D01*
X146303809Y-66584285D02*
X146208571Y-66774761D01*
X146208571Y-66774761D02*
X146113333Y-66870000D01*
X146113333Y-66870000D02*
X145922857Y-66965238D01*
X145922857Y-66965238D02*
X145446666Y-66965238D01*
X145446666Y-66965238D02*
X145256190Y-66870000D01*
X145256190Y-66870000D02*
X145160952Y-66774761D01*
X143160952Y-104335238D02*
X144399047Y-104335238D01*
X144399047Y-104335238D02*
X143732380Y-105097142D01*
X143732380Y-105097142D02*
X144018095Y-105097142D01*
X144018095Y-105097142D02*
X144208571Y-105192380D01*
X144208571Y-105192380D02*
X144303809Y-105287619D01*
X144303809Y-105287619D02*
X144399047Y-105478095D01*
X144399047Y-105478095D02*
X144399047Y-105954285D01*
X144399047Y-105954285D02*
X144303809Y-106144761D01*
X144303809Y-106144761D02*
X144208571Y-106240000D01*
X144208571Y-106240000D02*
X144018095Y-106335238D01*
X144018095Y-106335238D02*
X143446666Y-106335238D01*
X143446666Y-106335238D02*
X143256190Y-106240000D01*
X143256190Y-106240000D02*
X143160952Y-106144761D01*
X145637142Y-104335238D02*
X145827619Y-104335238D01*
X145827619Y-104335238D02*
X146018095Y-104430476D01*
X146018095Y-104430476D02*
X146113333Y-104525714D01*
X146113333Y-104525714D02*
X146208571Y-104716190D01*
X146208571Y-104716190D02*
X146303809Y-105097142D01*
X146303809Y-105097142D02*
X146303809Y-105573333D01*
X146303809Y-105573333D02*
X146208571Y-105954285D01*
X146208571Y-105954285D02*
X146113333Y-106144761D01*
X146113333Y-106144761D02*
X146018095Y-106240000D01*
X146018095Y-106240000D02*
X145827619Y-106335238D01*
X145827619Y-106335238D02*
X145637142Y-106335238D01*
X145637142Y-106335238D02*
X145446666Y-106240000D01*
X145446666Y-106240000D02*
X145351428Y-106144761D01*
X145351428Y-106144761D02*
X145256190Y-105954285D01*
X145256190Y-105954285D02*
X145160952Y-105573333D01*
X145160952Y-105573333D02*
X145160952Y-105097142D01*
X145160952Y-105097142D02*
X145256190Y-104716190D01*
X145256190Y-104716190D02*
X145351428Y-104525714D01*
X145351428Y-104525714D02*
X145446666Y-104430476D01*
X145446666Y-104430476D02*
X145637142Y-104335238D01*
D11*
X138430000Y-110367619D02*
X138430000Y-109367619D01*
D10*
X111379047Y-66965238D02*
X110236190Y-66965238D01*
X110807618Y-66965238D02*
X110807618Y-64965238D01*
X110807618Y-64965238D02*
X110617142Y-65250952D01*
X110617142Y-65250952D02*
X110426666Y-65441428D01*
X110426666Y-65441428D02*
X110236190Y-65536666D01*
X113188571Y-64965238D02*
X112236190Y-64965238D01*
X112236190Y-64965238D02*
X112140952Y-65917619D01*
X112140952Y-65917619D02*
X112236190Y-65822380D01*
X112236190Y-65822380D02*
X112426666Y-65727142D01*
X112426666Y-65727142D02*
X112902857Y-65727142D01*
X112902857Y-65727142D02*
X113093333Y-65822380D01*
X113093333Y-65822380D02*
X113188571Y-65917619D01*
X113188571Y-65917619D02*
X113283809Y-66108095D01*
X113283809Y-66108095D02*
X113283809Y-66584285D01*
X113283809Y-66584285D02*
X113188571Y-66774761D01*
X113188571Y-66774761D02*
X113093333Y-66870000D01*
X113093333Y-66870000D02*
X112902857Y-66965238D01*
X112902857Y-66965238D02*
X112426666Y-66965238D01*
X112426666Y-66965238D02*
X112236190Y-66870000D01*
X112236190Y-66870000D02*
X112140952Y-66774761D01*
D11*
X120959523Y-25182380D02*
X120911904Y-25230000D01*
X120911904Y-25230000D02*
X120769047Y-25277619D01*
X120769047Y-25277619D02*
X120673809Y-25277619D01*
X120673809Y-25277619D02*
X120530952Y-25230000D01*
X120530952Y-25230000D02*
X120435714Y-25134761D01*
X120435714Y-25134761D02*
X120388095Y-25039523D01*
X120388095Y-25039523D02*
X120340476Y-24849047D01*
X120340476Y-24849047D02*
X120340476Y-24706190D01*
X120340476Y-24706190D02*
X120388095Y-24515714D01*
X120388095Y-24515714D02*
X120435714Y-24420476D01*
X120435714Y-24420476D02*
X120530952Y-24325238D01*
X120530952Y-24325238D02*
X120673809Y-24277619D01*
X120673809Y-24277619D02*
X120769047Y-24277619D01*
X120769047Y-24277619D02*
X120911904Y-24325238D01*
X120911904Y-24325238D02*
X120959523Y-24372857D01*
D10*
X144399047Y-54265238D02*
X143256190Y-54265238D01*
X143827618Y-54265238D02*
X143827618Y-52265238D01*
X143827618Y-52265238D02*
X143637142Y-52550952D01*
X143637142Y-52550952D02*
X143446666Y-52741428D01*
X143446666Y-52741428D02*
X143256190Y-52836666D01*
X145637142Y-52265238D02*
X145827619Y-52265238D01*
X145827619Y-52265238D02*
X146018095Y-52360476D01*
X146018095Y-52360476D02*
X146113333Y-52455714D01*
X146113333Y-52455714D02*
X146208571Y-52646190D01*
X146208571Y-52646190D02*
X146303809Y-53027142D01*
X146303809Y-53027142D02*
X146303809Y-53503333D01*
X146303809Y-53503333D02*
X146208571Y-53884285D01*
X146208571Y-53884285D02*
X146113333Y-54074761D01*
X146113333Y-54074761D02*
X146018095Y-54170000D01*
X146018095Y-54170000D02*
X145827619Y-54265238D01*
X145827619Y-54265238D02*
X145637142Y-54265238D01*
X145637142Y-54265238D02*
X145446666Y-54170000D01*
X145446666Y-54170000D02*
X145351428Y-54074761D01*
X145351428Y-54074761D02*
X145256190Y-53884285D01*
X145256190Y-53884285D02*
X145160952Y-53503333D01*
X145160952Y-53503333D02*
X145160952Y-53027142D01*
X145160952Y-53027142D02*
X145256190Y-52646190D01*
X145256190Y-52646190D02*
X145351428Y-52455714D01*
X145351428Y-52455714D02*
X145446666Y-52360476D01*
X145446666Y-52360476D02*
X145637142Y-52265238D01*
D11*
%TO.C,H3*%
X150368095Y-106452619D02*
X150368095Y-105452619D01*
X150368095Y-105928809D02*
X150939523Y-105928809D01*
X150939523Y-106452619D02*
X150939523Y-105452619D01*
X151320476Y-105452619D02*
X151939523Y-105452619D01*
X151939523Y-105452619D02*
X151606190Y-105833571D01*
X151606190Y-105833571D02*
X151749047Y-105833571D01*
X151749047Y-105833571D02*
X151844285Y-105881190D01*
X151844285Y-105881190D02*
X151891904Y-105928809D01*
X151891904Y-105928809D02*
X151939523Y-106024047D01*
X151939523Y-106024047D02*
X151939523Y-106262142D01*
X151939523Y-106262142D02*
X151891904Y-106357380D01*
X151891904Y-106357380D02*
X151844285Y-106405000D01*
X151844285Y-106405000D02*
X151749047Y-106452619D01*
X151749047Y-106452619D02*
X151463333Y-106452619D01*
X151463333Y-106452619D02*
X151368095Y-106405000D01*
X151368095Y-106405000D02*
X151320476Y-106357380D01*
%TO.C,U1*%
X127508095Y-25302619D02*
X127508095Y-26112142D01*
X127508095Y-26112142D02*
X127555714Y-26207380D01*
X127555714Y-26207380D02*
X127603333Y-26255000D01*
X127603333Y-26255000D02*
X127698571Y-26302619D01*
X127698571Y-26302619D02*
X127889047Y-26302619D01*
X127889047Y-26302619D02*
X127984285Y-26255000D01*
X127984285Y-26255000D02*
X128031904Y-26207380D01*
X128031904Y-26207380D02*
X128079523Y-26112142D01*
X128079523Y-26112142D02*
X128079523Y-25302619D01*
X129079523Y-26302619D02*
X128508095Y-26302619D01*
X128793809Y-26302619D02*
X128793809Y-25302619D01*
X128793809Y-25302619D02*
X128698571Y-25445476D01*
X128698571Y-25445476D02*
X128603333Y-25540714D01*
X128603333Y-25540714D02*
X128508095Y-25588333D01*
%TO.C,H1*%
X104648095Y-20092619D02*
X104648095Y-19092619D01*
X104648095Y-19568809D02*
X105219523Y-19568809D01*
X105219523Y-20092619D02*
X105219523Y-19092619D01*
X106219523Y-20092619D02*
X105648095Y-20092619D01*
X105933809Y-20092619D02*
X105933809Y-19092619D01*
X105933809Y-19092619D02*
X105838571Y-19235476D01*
X105838571Y-19235476D02*
X105743333Y-19330714D01*
X105743333Y-19330714D02*
X105648095Y-19378333D01*
%TO.C,J4*%
X154606666Y-32482619D02*
X154606666Y-33196904D01*
X154606666Y-33196904D02*
X154559047Y-33339761D01*
X154559047Y-33339761D02*
X154463809Y-33435000D01*
X154463809Y-33435000D02*
X154320952Y-33482619D01*
X154320952Y-33482619D02*
X154225714Y-33482619D01*
X155511428Y-32815952D02*
X155511428Y-33482619D01*
X155273333Y-32435000D02*
X155035238Y-33149285D01*
X155035238Y-33149285D02*
X155654285Y-33149285D01*
%TO.C,H2*%
X150368095Y-20092619D02*
X150368095Y-19092619D01*
X150368095Y-19568809D02*
X150939523Y-19568809D01*
X150939523Y-20092619D02*
X150939523Y-19092619D01*
X151368095Y-19187857D02*
X151415714Y-19140238D01*
X151415714Y-19140238D02*
X151510952Y-19092619D01*
X151510952Y-19092619D02*
X151749047Y-19092619D01*
X151749047Y-19092619D02*
X151844285Y-19140238D01*
X151844285Y-19140238D02*
X151891904Y-19187857D01*
X151891904Y-19187857D02*
X151939523Y-19283095D01*
X151939523Y-19283095D02*
X151939523Y-19378333D01*
X151939523Y-19378333D02*
X151891904Y-19521190D01*
X151891904Y-19521190D02*
X151320476Y-20092619D01*
X151320476Y-20092619D02*
X151939523Y-20092619D01*
%TO.C,J2*%
X106346666Y-82222619D02*
X106346666Y-82936904D01*
X106346666Y-82936904D02*
X106299047Y-83079761D01*
X106299047Y-83079761D02*
X106203809Y-83175000D01*
X106203809Y-83175000D02*
X106060952Y-83222619D01*
X106060952Y-83222619D02*
X105965714Y-83222619D01*
X106775238Y-82317857D02*
X106822857Y-82270238D01*
X106822857Y-82270238D02*
X106918095Y-82222619D01*
X106918095Y-82222619D02*
X107156190Y-82222619D01*
X107156190Y-82222619D02*
X107251428Y-82270238D01*
X107251428Y-82270238D02*
X107299047Y-82317857D01*
X107299047Y-82317857D02*
X107346666Y-82413095D01*
X107346666Y-82413095D02*
X107346666Y-82508333D01*
X107346666Y-82508333D02*
X107299047Y-82651190D01*
X107299047Y-82651190D02*
X106727619Y-83222619D01*
X106727619Y-83222619D02*
X107346666Y-83222619D01*
%TO.C,J1*%
X101266666Y-31212619D02*
X101266666Y-31926904D01*
X101266666Y-31926904D02*
X101219047Y-32069761D01*
X101219047Y-32069761D02*
X101123809Y-32165000D01*
X101123809Y-32165000D02*
X100980952Y-32212619D01*
X100980952Y-32212619D02*
X100885714Y-32212619D01*
X102266666Y-32212619D02*
X101695238Y-32212619D01*
X101980952Y-32212619D02*
X101980952Y-31212619D01*
X101980952Y-31212619D02*
X101885714Y-31355476D01*
X101885714Y-31355476D02*
X101790476Y-31450714D01*
X101790476Y-31450714D02*
X101695238Y-31498333D01*
%TO.C,H4*%
X104648095Y-106452619D02*
X104648095Y-105452619D01*
X104648095Y-105928809D02*
X105219523Y-105928809D01*
X105219523Y-106452619D02*
X105219523Y-105452619D01*
X106124285Y-105785952D02*
X106124285Y-106452619D01*
X105886190Y-105405000D02*
X105648095Y-106119285D01*
X105648095Y-106119285D02*
X106267142Y-106119285D01*
%TO.C,J5*%
X149526666Y-82222619D02*
X149526666Y-82936904D01*
X149526666Y-82936904D02*
X149479047Y-83079761D01*
X149479047Y-83079761D02*
X149383809Y-83175000D01*
X149383809Y-83175000D02*
X149240952Y-83222619D01*
X149240952Y-83222619D02*
X149145714Y-83222619D01*
X150479047Y-82222619D02*
X150002857Y-82222619D01*
X150002857Y-82222619D02*
X149955238Y-82698809D01*
X149955238Y-82698809D02*
X150002857Y-82651190D01*
X150002857Y-82651190D02*
X150098095Y-82603571D01*
X150098095Y-82603571D02*
X150336190Y-82603571D01*
X150336190Y-82603571D02*
X150431428Y-82651190D01*
X150431428Y-82651190D02*
X150479047Y-82698809D01*
X150479047Y-82698809D02*
X150526666Y-82794047D01*
X150526666Y-82794047D02*
X150526666Y-83032142D01*
X150526666Y-83032142D02*
X150479047Y-83127380D01*
X150479047Y-83127380D02*
X150431428Y-83175000D01*
X150431428Y-83175000D02*
X150336190Y-83222619D01*
X150336190Y-83222619D02*
X150098095Y-83222619D01*
X150098095Y-83222619D02*
X150002857Y-83175000D01*
X150002857Y-83175000D02*
X149955238Y-83127380D01*
D12*
%TO.C,U1*%
X142140000Y-26670000D02*
X129540000Y-26670000D01*
X129540000Y-26670000D02*
X129540000Y-27200000D01*
X127000000Y-26670000D02*
X114300000Y-26670000D01*
X114300000Y-26670000D02*
X114300000Y-107950000D01*
X129540000Y-27200000D02*
X127000000Y-27200000D01*
X127000000Y-27200000D02*
X127000000Y-26670000D01*
X142139999Y-107950000D02*
X142140000Y-26670000D01*
X114400000Y-107950000D02*
X142139999Y-107950000D01*
%TO.C,J4*%
X147260000Y-29150000D02*
X148590000Y-29150000D01*
X147260000Y-30480000D02*
X147260000Y-29150000D01*
X147260000Y-31750000D02*
X147260000Y-80070000D01*
X147260000Y-31750000D02*
X149860000Y-31750000D01*
X147260000Y-80070000D02*
X152460000Y-80070000D01*
X149860000Y-29150000D02*
X152460000Y-29150000D01*
X149860000Y-31750000D02*
X149860000Y-29150000D01*
X152460000Y-29150000D02*
X152460000Y-80070000D01*
%TO.C,J2*%
X104080000Y-83760000D02*
X105410000Y-83760000D01*
X104080000Y-85090000D02*
X104080000Y-83760000D01*
X104080000Y-86360000D02*
X104080000Y-106740000D01*
X104080000Y-86360000D02*
X106680000Y-86360000D01*
X104080000Y-106740000D02*
X109280000Y-106740000D01*
X106680000Y-83760000D02*
X109280000Y-83760000D01*
X106680000Y-86360000D02*
X106680000Y-83760000D01*
X109280000Y-83760000D02*
X109280000Y-106740000D01*
%TO.C,J1*%
X104080000Y-29150000D02*
X105410000Y-29150000D01*
X104080000Y-30480000D02*
X104080000Y-29150000D01*
X104080000Y-31750000D02*
X104080000Y-80070000D01*
X104080000Y-31750000D02*
X106680000Y-31750000D01*
X104080000Y-80070000D02*
X109280000Y-80070000D01*
X106680000Y-29150000D02*
X109280000Y-29150000D01*
X106680000Y-31750000D02*
X106680000Y-29150000D01*
X109280000Y-29150000D02*
X109280000Y-80070000D01*
%TO.C,J5*%
X147260000Y-83760000D02*
X148590000Y-83760000D01*
X147260000Y-85090000D02*
X147260000Y-83760000D01*
X147260000Y-86360000D02*
X147260000Y-106740000D01*
X147260000Y-86360000D02*
X149860000Y-86360000D01*
X147260000Y-106740000D02*
X152460000Y-106740000D01*
X149860000Y-83760000D02*
X152460000Y-83760000D01*
X149860000Y-86360000D02*
X149860000Y-83760000D01*
X152460000Y-83760000D02*
X152460000Y-106740000D01*
%TD*%
M02*
