%TF.GenerationSoftware,KiCad,Pcbnew,8.0.1*%
%TF.CreationDate,2024-03-17T17:10:13+00:00*%
%TF.ProjectId,ToastedBreadBoard64,546f6173-7465-4644-9272-656164426f61,rev?*%
%TF.SameCoordinates,Original*%
%TF.FileFunction,Soldermask,Bot*%
%TF.FilePolarity,Negative*%
%FSLAX46Y46*%
G04 Gerber Fmt 4.6, Leading zero omitted, Abs format (unit mm)*
G04 Created by KiCad (PCBNEW 8.0.1) date 2024-03-17 17:10:13*
%MOMM*%
%LPD*%
G01*
G04 APERTURE LIST*
%ADD10R,1.524000X1.524000*%
%ADD11C,1.524000*%
%ADD12O,11.700000X1.524000*%
%ADD13C,3.500000*%
%ADD14R,1.700000X1.700000*%
%ADD15O,1.700000X1.700000*%
G04 APERTURE END LIST*
D10*
%TO.C,U1*%
X124460000Y-27940000D03*
D11*
X121920000Y-27940000D03*
D12*
X119380000Y-27940000D03*
D11*
X116840000Y-27940000D03*
D10*
X114300000Y-27940000D03*
D11*
X124460000Y-30480000D03*
X121920000Y-30480000D03*
D12*
X119380000Y-30480000D03*
D11*
X116840000Y-30480000D03*
X114300000Y-30480000D03*
X124460000Y-33020000D03*
X121920000Y-33020000D03*
D12*
X119380000Y-33020000D03*
D11*
X116840000Y-33020000D03*
X114300000Y-33020000D03*
X124460000Y-35560000D03*
X121920000Y-35560000D03*
D12*
X119380000Y-35560000D03*
D11*
X116840000Y-35560000D03*
X114300000Y-35560000D03*
X124460000Y-38100000D03*
X121920000Y-38100000D03*
D12*
X119380000Y-38100000D03*
D11*
X116840000Y-38100000D03*
X114300000Y-38100000D03*
X124460000Y-40640000D03*
X121920000Y-40640000D03*
D12*
X119380000Y-40640000D03*
D11*
X116840000Y-40640000D03*
X114300000Y-40640000D03*
X124460000Y-43180000D03*
X121920000Y-43180000D03*
D12*
X119380000Y-43180000D03*
D11*
X116840000Y-43180000D03*
X114300000Y-43180000D03*
X124460000Y-45720000D03*
X121920000Y-45720000D03*
D12*
X119380000Y-45720000D03*
D11*
X116840000Y-45720000D03*
X114300000Y-45720000D03*
X124460000Y-48260000D03*
X121920000Y-48260000D03*
D12*
X119380000Y-48260000D03*
D11*
X116840000Y-48260000D03*
X114300000Y-48260000D03*
X124460000Y-50800000D03*
X121920000Y-50800000D03*
D12*
X119380000Y-50800000D03*
D11*
X116840000Y-50800000D03*
X114300000Y-50800000D03*
X124460000Y-53340000D03*
X121920000Y-53340000D03*
D12*
X119380000Y-53340000D03*
D11*
X116840000Y-53340000D03*
X114300000Y-53340000D03*
X124460000Y-55880000D03*
X121920000Y-55880000D03*
D12*
X119380000Y-55880000D03*
D11*
X116840000Y-55880000D03*
X114300000Y-55880000D03*
X124460000Y-58420000D03*
X121920000Y-58420000D03*
D12*
X119380000Y-58420000D03*
D11*
X116840000Y-58420000D03*
X114300000Y-58420000D03*
X124460000Y-60960000D03*
X121920000Y-60960000D03*
D12*
X119380000Y-60960000D03*
D11*
X116840000Y-60960000D03*
X114300000Y-60960000D03*
X124360000Y-63500000D03*
X121820000Y-63500000D03*
D12*
X119280000Y-63500000D03*
D11*
X116740000Y-63500000D03*
X114200000Y-63500000D03*
X124360000Y-66040000D03*
X121820000Y-66040000D03*
D12*
X119280000Y-66040000D03*
D11*
X116740000Y-66040000D03*
X114200000Y-66040000D03*
X124360000Y-68580000D03*
X121820000Y-68580000D03*
D12*
X119280000Y-68580000D03*
D11*
X116740000Y-68580000D03*
X114200000Y-68580000D03*
X124460000Y-71120000D03*
X121920000Y-71120000D03*
D12*
X119380000Y-71120000D03*
D11*
X116840000Y-71120000D03*
X114300000Y-71120000D03*
X124460000Y-73660000D03*
X121920000Y-73660000D03*
D12*
X119380000Y-73660000D03*
D11*
X116840000Y-73660000D03*
X114300000Y-73660000D03*
X124460000Y-76200000D03*
X121920000Y-76200000D03*
D12*
X119380000Y-76200000D03*
D11*
X116840000Y-76200000D03*
X114300000Y-76200000D03*
X124460000Y-78740000D03*
X121920000Y-78740000D03*
D12*
X119380000Y-78740000D03*
D11*
X116840000Y-78740000D03*
X114300000Y-78740000D03*
X124460000Y-81280000D03*
X121920000Y-81280000D03*
D12*
X119380000Y-81280000D03*
D11*
X116840000Y-81280000D03*
X114300000Y-81280000D03*
X124460000Y-83820000D03*
X121920000Y-83820000D03*
D12*
X119380000Y-83820000D03*
D11*
X116840000Y-83820000D03*
X114300000Y-83820000D03*
X124460000Y-86360000D03*
X121920000Y-86360000D03*
D12*
X119380000Y-86360000D03*
D11*
X116840000Y-86360000D03*
X114300000Y-86360000D03*
X124460000Y-88900000D03*
X121920000Y-88900000D03*
D12*
X119380000Y-88900000D03*
D11*
X116840000Y-88900000D03*
X114300000Y-88900000D03*
X124460000Y-91440000D03*
X121920000Y-91440000D03*
D12*
X119380000Y-91440000D03*
D11*
X116840000Y-91440000D03*
X114300000Y-91440000D03*
X124460000Y-93980000D03*
X121920000Y-93980000D03*
D12*
X119380000Y-93980000D03*
D11*
X116840000Y-93980000D03*
X114300000Y-93980000D03*
X124460000Y-96520000D03*
X121920000Y-96520000D03*
D12*
X119380000Y-96520000D03*
D11*
X116840000Y-96520000D03*
X114300000Y-96520000D03*
X124560000Y-99060000D03*
X122020000Y-99060000D03*
D12*
X119480000Y-99060000D03*
D11*
X116940000Y-99060000D03*
X114400000Y-99060000D03*
X124460000Y-101600000D03*
X121920000Y-101600000D03*
D12*
X119380000Y-101600000D03*
D11*
X116840000Y-101600000D03*
X114300000Y-101600000D03*
X124460000Y-104140000D03*
X121920000Y-104140000D03*
D12*
X119380000Y-104140000D03*
D11*
X116840000Y-104140000D03*
X114300000Y-104140000D03*
X124460000Y-106680000D03*
X121920000Y-106680000D03*
D12*
X119380000Y-106680000D03*
D11*
X116840000Y-106680000D03*
X114300000Y-106680000D03*
X145034000Y-106680000D03*
X142494000Y-106680000D03*
D12*
X139954000Y-106680000D03*
D11*
X137414000Y-106680000D03*
X134874000Y-106680000D03*
X145034000Y-104140000D03*
X142494000Y-104140000D03*
D12*
X139954000Y-104140000D03*
D11*
X137414000Y-104140000D03*
X134874000Y-104140000D03*
X145034000Y-101600000D03*
X142494000Y-101600000D03*
D12*
X139954000Y-101600000D03*
D11*
X137414000Y-101600000D03*
X134874000Y-101600000D03*
X145034000Y-99060000D03*
X142494000Y-99060000D03*
D12*
X139954000Y-99060000D03*
D11*
X137414000Y-99060000D03*
X134874000Y-99060000D03*
X145034000Y-96520000D03*
X142494000Y-96520000D03*
D12*
X139954000Y-96520000D03*
D11*
X137414000Y-96520000D03*
X134874000Y-96520000D03*
X145034000Y-93980000D03*
X142494000Y-93980000D03*
D12*
X139954000Y-93980000D03*
D11*
X137414000Y-93980000D03*
X134874000Y-93980000D03*
X145034000Y-91440000D03*
X142494000Y-91440000D03*
D12*
X139954000Y-91440000D03*
D11*
X137414000Y-91440000D03*
X134874000Y-91440000D03*
X145034000Y-88900000D03*
X142494000Y-88900000D03*
D12*
X139954000Y-88900000D03*
D11*
X137414000Y-88900000D03*
X134874000Y-88900000D03*
X145034000Y-86360000D03*
X142494000Y-86360000D03*
D12*
X139954000Y-86360000D03*
D11*
X137414000Y-86360000D03*
X134874000Y-86360000D03*
X145034000Y-83820000D03*
X142494000Y-83820000D03*
D12*
X139954000Y-83820000D03*
D11*
X137414000Y-83820000D03*
X134874000Y-83820000D03*
X145034000Y-81280000D03*
X142494000Y-81280000D03*
D12*
X139954000Y-81280000D03*
D11*
X137414000Y-81280000D03*
X134874000Y-81280000D03*
X145034000Y-78740000D03*
X142494000Y-78740000D03*
D12*
X139954000Y-78740000D03*
D11*
X137414000Y-78740000D03*
X134874000Y-78740000D03*
X145134000Y-76200000D03*
X142594000Y-76200000D03*
D12*
X140054000Y-76200000D03*
D11*
X137514000Y-76200000D03*
X134974000Y-76200000D03*
X145034000Y-73660000D03*
X142494000Y-73660000D03*
D12*
X139954000Y-73660000D03*
D11*
X137414000Y-73660000D03*
X134874000Y-73660000D03*
X145034000Y-71120000D03*
X142494000Y-71120000D03*
D12*
X139954000Y-71120000D03*
D11*
X137414000Y-71120000D03*
X134874000Y-71120000D03*
X145034000Y-68580000D03*
X142494000Y-68580000D03*
D12*
X139954000Y-68580000D03*
D11*
X137414000Y-68580000D03*
X134874000Y-68580000D03*
X145034000Y-66040000D03*
X142494000Y-66040000D03*
D12*
X139954000Y-66040000D03*
D11*
X137414000Y-66040000D03*
X134874000Y-66040000D03*
X145034000Y-63500000D03*
X142494000Y-63500000D03*
D12*
X139954000Y-63500000D03*
D11*
X137414000Y-63500000D03*
X134874000Y-63500000D03*
X145134000Y-60960000D03*
X142594000Y-60960000D03*
D12*
X140054000Y-60960000D03*
D11*
X137514000Y-60960000D03*
X134974000Y-60960000D03*
X145134000Y-58420000D03*
X142594000Y-58420000D03*
D12*
X140054000Y-58420000D03*
D11*
X137514000Y-58420000D03*
X134974000Y-58420000D03*
X145034000Y-55880000D03*
X142494000Y-55880000D03*
D12*
X139954000Y-55880000D03*
D11*
X137414000Y-55880000D03*
X134874000Y-55880000D03*
X145034000Y-53340000D03*
X142494000Y-53340000D03*
D12*
X139954000Y-53340000D03*
D11*
X137414000Y-53340000D03*
X134874000Y-53340000D03*
X145034000Y-50800000D03*
X142494000Y-50800000D03*
D12*
X139954000Y-50800000D03*
D11*
X137414000Y-50800000D03*
X134874000Y-50800000D03*
X145034000Y-48260000D03*
X142494000Y-48260000D03*
D12*
X139954000Y-48260000D03*
D11*
X137414000Y-48260000D03*
X134874000Y-48260000D03*
X145034000Y-45720000D03*
X142494000Y-45720000D03*
D12*
X139954000Y-45720000D03*
D11*
X137414000Y-45720000D03*
X134874000Y-45720000D03*
X145034000Y-43180000D03*
X142494000Y-43180000D03*
D12*
X139954000Y-43180000D03*
D11*
X137414000Y-43180000D03*
X134874000Y-43180000D03*
X145034000Y-40640000D03*
X142494000Y-40640000D03*
D12*
X139954000Y-40640000D03*
D11*
X137414000Y-40640000D03*
X134874000Y-40640000D03*
X145034000Y-38100000D03*
X142494000Y-38100000D03*
D12*
X139954000Y-38100000D03*
D11*
X137414000Y-38100000D03*
X134874000Y-38100000D03*
X145034000Y-35560000D03*
X142494000Y-35560000D03*
D12*
X139954000Y-35560000D03*
D11*
X137414000Y-35560000D03*
X134874000Y-35560000D03*
X145034000Y-33020000D03*
X142494000Y-33020000D03*
D12*
X139954000Y-33020000D03*
D11*
X137414000Y-33020000D03*
X134874000Y-33020000D03*
X145034000Y-30480000D03*
X142494000Y-30480000D03*
D12*
X139954000Y-30480000D03*
D11*
X137414000Y-30480000D03*
X134874000Y-30480000D03*
X145034000Y-27940000D03*
X142494000Y-27940000D03*
D12*
X139954000Y-27940000D03*
D11*
X137414000Y-27940000D03*
X134874000Y-27940000D03*
%TD*%
D13*
%TO.C,H3*%
X153670000Y-111760000D03*
%TD*%
%TO.C,H1*%
X105410000Y-24130000D03*
%TD*%
D14*
%TO.C,J4*%
X152400000Y-30480000D03*
D15*
X154940000Y-30480000D03*
X152400000Y-33020000D03*
X154940000Y-33020000D03*
X152400000Y-35560000D03*
X154940000Y-35560000D03*
X152400000Y-38100000D03*
X154940000Y-38100000D03*
X152400000Y-40640000D03*
X154940000Y-40640000D03*
X152400000Y-43180000D03*
X154940000Y-43180000D03*
X152400000Y-45720000D03*
X154940000Y-45720000D03*
X152400000Y-48260000D03*
X154940000Y-48260000D03*
X152400000Y-50800000D03*
X154940000Y-50800000D03*
X152400000Y-53340000D03*
X154940000Y-53340000D03*
X152400000Y-55880000D03*
X154940000Y-55880000D03*
X152400000Y-58420000D03*
X154940000Y-58420000D03*
X152400000Y-60960000D03*
X154940000Y-60960000D03*
X152400000Y-63500000D03*
X154940000Y-63500000D03*
X152400000Y-66040000D03*
X154940000Y-66040000D03*
X152400000Y-68580000D03*
X154940000Y-68580000D03*
X152400000Y-71120000D03*
X154940000Y-71120000D03*
X152400000Y-73660000D03*
X154940000Y-73660000D03*
X152400000Y-76200000D03*
X154940000Y-76200000D03*
X152400000Y-78740000D03*
X154940000Y-78740000D03*
%TD*%
D13*
%TO.C,H2*%
X153670000Y-24130000D03*
%TD*%
D14*
%TO.C,J2*%
X104135000Y-85100000D03*
D15*
X106675000Y-85100000D03*
X104135000Y-87640000D03*
X106675000Y-87640000D03*
X104135000Y-90180000D03*
X106675000Y-90180000D03*
X104135000Y-92720000D03*
X106675000Y-92720000D03*
X104135000Y-95260000D03*
X106675000Y-95260000D03*
X104135000Y-97800000D03*
X106675000Y-97800000D03*
X104135000Y-100340000D03*
X106675000Y-100340000D03*
X104135000Y-102880000D03*
X106675000Y-102880000D03*
X104135000Y-105420000D03*
X106675000Y-105420000D03*
%TD*%
D14*
%TO.C,J1*%
X104140000Y-30480000D03*
D15*
X106680000Y-30480000D03*
X104140000Y-33020000D03*
X106680000Y-33020000D03*
X104140000Y-35560000D03*
X106680000Y-35560000D03*
X104140000Y-38100000D03*
X106680000Y-38100000D03*
X104140000Y-40640000D03*
X106680000Y-40640000D03*
X104140000Y-43180000D03*
X106680000Y-43180000D03*
X104140000Y-45720000D03*
X106680000Y-45720000D03*
X104140000Y-48260000D03*
X106680000Y-48260000D03*
X104140000Y-50800000D03*
X106680000Y-50800000D03*
X104140000Y-53340000D03*
X106680000Y-53340000D03*
X104140000Y-55880000D03*
X106680000Y-55880000D03*
X104140000Y-58420000D03*
X106680000Y-58420000D03*
X104140000Y-60960000D03*
X106680000Y-60960000D03*
X104140000Y-63500000D03*
X106680000Y-63500000D03*
X104140000Y-66040000D03*
X106680000Y-66040000D03*
X104140000Y-68580000D03*
X106680000Y-68580000D03*
X104140000Y-71120000D03*
X106680000Y-71120000D03*
X104140000Y-73660000D03*
X106680000Y-73660000D03*
X104140000Y-76200000D03*
X106680000Y-76200000D03*
X104140000Y-78740000D03*
X106680000Y-78740000D03*
%TD*%
D13*
%TO.C,H4*%
X105410000Y-111760000D03*
%TD*%
D14*
%TO.C,J5*%
X152400000Y-85090000D03*
D15*
X154940000Y-85090000D03*
X152400000Y-87630000D03*
X154940000Y-87630000D03*
X152400000Y-90170000D03*
X154940000Y-90170000D03*
X152400000Y-92710000D03*
X154940000Y-92710000D03*
X152400000Y-95250000D03*
X154940000Y-95250000D03*
X152400000Y-97790000D03*
X154940000Y-97790000D03*
X152400000Y-100330000D03*
X154940000Y-100330000D03*
X152400000Y-102870000D03*
X154940000Y-102870000D03*
X152400000Y-105410000D03*
X154940000Y-105410000D03*
%TD*%
M02*
