%TF.GenerationSoftware,KiCad,Pcbnew,8.0.1*%
%TF.CreationDate,2024-03-17T17:10:13+00:00*%
%TF.ProjectId,ToastedBreadBoard64,546f6173-7465-4644-9272-656164426f61,rev?*%
%TF.SameCoordinates,Original*%
%TF.FileFunction,Copper,L2,Bot*%
%TF.FilePolarity,Positive*%
%FSLAX46Y46*%
G04 Gerber Fmt 4.6, Leading zero omitted, Abs format (unit mm)*
G04 Created by KiCad (PCBNEW 8.0.1) date 2024-03-17 17:10:13*
%MOMM*%
%LPD*%
G01*
G04 APERTURE LIST*
%TA.AperFunction,ComponentPad*%
%ADD10R,1.524000X1.524000*%
%TD*%
%TA.AperFunction,ComponentPad*%
%ADD11C,1.524000*%
%TD*%
%TA.AperFunction,ComponentPad*%
%ADD12O,11.700000X1.524000*%
%TD*%
%TA.AperFunction,ComponentPad*%
%ADD13R,1.700000X1.700000*%
%TD*%
%TA.AperFunction,ComponentPad*%
%ADD14O,1.700000X1.700000*%
%TD*%
%TA.AperFunction,Conductor*%
%ADD15C,1.000000*%
%TD*%
G04 APERTURE END LIST*
D10*
%TO.P,U1,1,PIN1*%
%TO.N,unconnected-(U1-PIN1-Pad1)*%
X124460000Y-27940000D03*
D11*
X121920000Y-27940000D03*
D12*
X119380000Y-27940000D03*
D11*
X116840000Y-27940000D03*
D10*
X114300000Y-27940000D03*
D11*
%TO.P,U1,2,PIN2*%
%TO.N,unconnected-(U1-PIN2-Pad2)*%
X124460000Y-30480000D03*
X121920000Y-30480000D03*
D12*
X119380000Y-30480000D03*
D11*
X116840000Y-30480000D03*
X114300000Y-30480000D03*
%TO.P,U1,3,PIN3*%
%TO.N,unconnected-(U1-PIN3-Pad3)*%
X124460000Y-33020000D03*
X121920000Y-33020000D03*
D12*
X119380000Y-33020000D03*
D11*
X116840000Y-33020000D03*
X114300000Y-33020000D03*
%TO.P,U1,4,PIN4*%
%TO.N,unconnected-(U1-PIN4-Pad4)*%
X124460000Y-35560000D03*
X121920000Y-35560000D03*
D12*
X119380000Y-35560000D03*
D11*
X116840000Y-35560000D03*
X114300000Y-35560000D03*
%TO.P,U1,5,PIN5*%
%TO.N,unconnected-(U1-PIN5-Pad5)*%
X124460000Y-38100000D03*
X121920000Y-38100000D03*
D12*
X119380000Y-38100000D03*
D11*
X116840000Y-38100000D03*
X114300000Y-38100000D03*
%TO.P,U1,6,PIN6*%
%TO.N,unconnected-(U1-PIN6-Pad6)*%
X124460000Y-40640000D03*
X121920000Y-40640000D03*
D12*
X119380000Y-40640000D03*
D11*
X116840000Y-40640000D03*
X114300000Y-40640000D03*
%TO.P,U1,7,PIN7*%
%TO.N,unconnected-(U1-PIN7-Pad7)*%
X124460000Y-43180000D03*
X121920000Y-43180000D03*
D12*
X119380000Y-43180000D03*
D11*
X116840000Y-43180000D03*
X114300000Y-43180000D03*
%TO.P,U1,8,PIN8*%
%TO.N,unconnected-(U1-PIN8-Pad8)*%
X124460000Y-45720000D03*
X121920000Y-45720000D03*
D12*
X119380000Y-45720000D03*
D11*
X116840000Y-45720000D03*
X114300000Y-45720000D03*
%TO.P,U1,9,PIN9*%
%TO.N,unconnected-(U1-PIN9-Pad9)*%
X124460000Y-48260000D03*
X121920000Y-48260000D03*
D12*
X119380000Y-48260000D03*
D11*
X116840000Y-48260000D03*
X114300000Y-48260000D03*
%TO.P,U1,10,PIN10*%
%TO.N,unconnected-(U1-PIN10-Pad10)*%
X124460000Y-50800000D03*
X121920000Y-50800000D03*
D12*
X119380000Y-50800000D03*
D11*
X116840000Y-50800000D03*
X114300000Y-50800000D03*
%TO.P,U1,11,PIN11*%
%TO.N,unconnected-(U1-PIN11-Pad11)*%
X124460000Y-53340000D03*
X121920000Y-53340000D03*
D12*
X119380000Y-53340000D03*
D11*
X116840000Y-53340000D03*
X114300000Y-53340000D03*
%TO.P,U1,12,PIN12*%
%TO.N,unconnected-(U1-PIN12-Pad12)*%
X124460000Y-55880000D03*
X121920000Y-55880000D03*
D12*
X119380000Y-55880000D03*
D11*
X116840000Y-55880000D03*
X114300000Y-55880000D03*
%TO.P,U1,13,PIN13*%
%TO.N,unconnected-(U1-PIN13-Pad13)*%
X124460000Y-58420000D03*
X121920000Y-58420000D03*
D12*
X119380000Y-58420000D03*
D11*
X116840000Y-58420000D03*
X114300000Y-58420000D03*
%TO.P,U1,14,PIN14*%
%TO.N,unconnected-(U1-PIN14-Pad14)*%
X124460000Y-60960000D03*
X121920000Y-60960000D03*
D12*
X119380000Y-60960000D03*
D11*
X116840000Y-60960000D03*
X114300000Y-60960000D03*
%TO.P,U1,15,PIN15*%
%TO.N,unconnected-(U1-PIN15-Pad15)*%
X124360000Y-63500000D03*
X121820000Y-63500000D03*
D12*
X119280000Y-63500000D03*
D11*
X116740000Y-63500000D03*
X114200000Y-63500000D03*
%TO.P,U1,16,PIN16*%
%TO.N,unconnected-(U1-PIN16-Pad16)*%
X124360000Y-66040000D03*
X121820000Y-66040000D03*
D12*
X119280000Y-66040000D03*
D11*
X116740000Y-66040000D03*
X114200000Y-66040000D03*
%TO.P,U1,17,PIN17*%
%TO.N,unconnected-(U1-PIN17-Pad17)*%
X124360000Y-68580000D03*
X121820000Y-68580000D03*
D12*
X119280000Y-68580000D03*
D11*
X116740000Y-68580000D03*
X114200000Y-68580000D03*
%TO.P,U1,18,PIN18*%
%TO.N,unconnected-(U1-PIN18-Pad18)*%
X124460000Y-71120000D03*
X121920000Y-71120000D03*
D12*
X119380000Y-71120000D03*
D11*
X116840000Y-71120000D03*
X114300000Y-71120000D03*
%TO.P,U1,19,PIN19*%
%TO.N,unconnected-(U1-PIN19-Pad19)*%
X124460000Y-73660000D03*
X121920000Y-73660000D03*
D12*
X119380000Y-73660000D03*
D11*
X116840000Y-73660000D03*
X114300000Y-73660000D03*
%TO.P,U1,20,PIN20*%
%TO.N,unconnected-(U1-PIN20-Pad20)*%
X124460000Y-76200000D03*
X121920000Y-76200000D03*
D12*
X119380000Y-76200000D03*
D11*
X116840000Y-76200000D03*
X114300000Y-76200000D03*
%TO.P,U1,21,PIN21*%
%TO.N,unconnected-(U1-PIN21-Pad21)*%
X124460000Y-78740000D03*
X121920000Y-78740000D03*
D12*
X119380000Y-78740000D03*
D11*
X116840000Y-78740000D03*
X114300000Y-78740000D03*
%TO.P,U1,22,PIN22*%
%TO.N,unconnected-(U1-PIN22-Pad22)*%
X124460000Y-81280000D03*
X121920000Y-81280000D03*
D12*
X119380000Y-81280000D03*
D11*
X116840000Y-81280000D03*
X114300000Y-81280000D03*
%TO.P,U1,23,PIN23*%
%TO.N,unconnected-(U1-PIN23-Pad23)*%
X124460000Y-83820000D03*
X121920000Y-83820000D03*
D12*
X119380000Y-83820000D03*
D11*
X116840000Y-83820000D03*
X114300000Y-83820000D03*
%TO.P,U1,24,PIN24*%
%TO.N,unconnected-(U1-PIN24-Pad24)*%
X124460000Y-86360000D03*
X121920000Y-86360000D03*
D12*
X119380000Y-86360000D03*
D11*
X116840000Y-86360000D03*
X114300000Y-86360000D03*
%TO.P,U1,25,PIN25*%
%TO.N,unconnected-(U1-PIN25-Pad25)*%
X124460000Y-88900000D03*
X121920000Y-88900000D03*
D12*
X119380000Y-88900000D03*
D11*
X116840000Y-88900000D03*
X114300000Y-88900000D03*
%TO.P,U1,26,PIN26*%
%TO.N,unconnected-(U1-PIN26-Pad26)*%
X124460000Y-91440000D03*
X121920000Y-91440000D03*
D12*
X119380000Y-91440000D03*
D11*
X116840000Y-91440000D03*
X114300000Y-91440000D03*
%TO.P,U1,27,PIN27*%
%TO.N,unconnected-(U1-PIN27-Pad27)*%
X124460000Y-93980000D03*
X121920000Y-93980000D03*
D12*
X119380000Y-93980000D03*
D11*
X116840000Y-93980000D03*
X114300000Y-93980000D03*
%TO.P,U1,28,PIN28*%
%TO.N,unconnected-(U1-PIN28-Pad28)*%
X124460000Y-96520000D03*
X121920000Y-96520000D03*
D12*
X119380000Y-96520000D03*
D11*
X116840000Y-96520000D03*
X114300000Y-96520000D03*
%TO.P,U1,29,PIN29*%
%TO.N,unconnected-(U1-PIN29-Pad29)*%
X124560000Y-99060000D03*
X122020000Y-99060000D03*
D12*
X119480000Y-99060000D03*
D11*
X116940000Y-99060000D03*
X114400000Y-99060000D03*
%TO.P,U1,30,PIN30*%
%TO.N,unconnected-(U1-PIN30-Pad30)*%
X124460000Y-101600000D03*
X121920000Y-101600000D03*
D12*
X119380000Y-101600000D03*
D11*
X116840000Y-101600000D03*
X114300000Y-101600000D03*
%TO.P,U1,31,PIN31*%
%TO.N,unconnected-(U1-PIN31-Pad31)*%
X124460000Y-104140000D03*
X121920000Y-104140000D03*
D12*
X119380000Y-104140000D03*
D11*
X116840000Y-104140000D03*
X114300000Y-104140000D03*
%TO.P,U1,32,PIN32*%
%TO.N,unconnected-(U1-PIN32-Pad32)*%
X124460000Y-106680000D03*
X121920000Y-106680000D03*
D12*
X119380000Y-106680000D03*
D11*
X116840000Y-106680000D03*
X114300000Y-106680000D03*
%TO.P,U1,33,PIN33*%
%TO.N,unconnected-(U1-PIN33-Pad33)*%
X145034000Y-106680000D03*
X142494000Y-106680000D03*
D12*
X139954000Y-106680000D03*
D11*
X137414000Y-106680000D03*
X134874000Y-106680000D03*
%TO.P,U1,34,PIN34*%
%TO.N,unconnected-(U1-PIN34-Pad34)*%
X145034000Y-104140000D03*
X142494000Y-104140000D03*
D12*
X139954000Y-104140000D03*
D11*
X137414000Y-104140000D03*
X134874000Y-104140000D03*
%TO.P,U1,35,PIN35*%
%TO.N,unconnected-(U1-PIN35-Pad35)*%
X145034000Y-101600000D03*
X142494000Y-101600000D03*
D12*
X139954000Y-101600000D03*
D11*
X137414000Y-101600000D03*
X134874000Y-101600000D03*
%TO.P,U1,36,PIN36*%
%TO.N,unconnected-(U1-PIN36-Pad36)*%
X145034000Y-99060000D03*
X142494000Y-99060000D03*
D12*
X139954000Y-99060000D03*
D11*
X137414000Y-99060000D03*
X134874000Y-99060000D03*
%TO.P,U1,37,PIN37*%
%TO.N,unconnected-(U1-PIN37-Pad37)*%
X145034000Y-96520000D03*
X142494000Y-96520000D03*
D12*
X139954000Y-96520000D03*
D11*
X137414000Y-96520000D03*
X134874000Y-96520000D03*
%TO.P,U1,38,PIN38*%
%TO.N,unconnected-(U1-PIN38-Pad38)*%
X145034000Y-93980000D03*
X142494000Y-93980000D03*
D12*
X139954000Y-93980000D03*
D11*
X137414000Y-93980000D03*
X134874000Y-93980000D03*
%TO.P,U1,39,PIN39*%
%TO.N,unconnected-(U1-PIN39-Pad39)*%
X145034000Y-91440000D03*
X142494000Y-91440000D03*
D12*
X139954000Y-91440000D03*
D11*
X137414000Y-91440000D03*
X134874000Y-91440000D03*
%TO.P,U1,40,PIN40*%
%TO.N,unconnected-(U1-PIN40-Pad40)*%
X145034000Y-88900000D03*
X142494000Y-88900000D03*
D12*
X139954000Y-88900000D03*
D11*
X137414000Y-88900000D03*
X134874000Y-88900000D03*
%TO.P,U1,41,PIN41*%
%TO.N,unconnected-(U1-PIN41-Pad41)*%
X145034000Y-86360000D03*
X142494000Y-86360000D03*
D12*
X139954000Y-86360000D03*
D11*
X137414000Y-86360000D03*
X134874000Y-86360000D03*
%TO.P,U1,42,PIN42*%
%TO.N,unconnected-(U1-PIN42-Pad42)*%
X145034000Y-83820000D03*
X142494000Y-83820000D03*
D12*
X139954000Y-83820000D03*
D11*
X137414000Y-83820000D03*
X134874000Y-83820000D03*
%TO.P,U1,43,PIN43*%
%TO.N,unconnected-(U1-PIN43-Pad43)*%
X145034000Y-81280000D03*
X142494000Y-81280000D03*
D12*
X139954000Y-81280000D03*
D11*
X137414000Y-81280000D03*
X134874000Y-81280000D03*
%TO.P,U1,44,PIN44*%
%TO.N,unconnected-(U1-PIN44-Pad44)*%
X145034000Y-78740000D03*
X142494000Y-78740000D03*
D12*
X139954000Y-78740000D03*
D11*
X137414000Y-78740000D03*
X134874000Y-78740000D03*
%TO.P,U1,45,PIN45*%
%TO.N,unconnected-(U1-PIN45-Pad45)*%
X145134000Y-76200000D03*
X142594000Y-76200000D03*
D12*
X140054000Y-76200000D03*
D11*
X137514000Y-76200000D03*
X134974000Y-76200000D03*
%TO.P,U1,46,PIN46*%
%TO.N,unconnected-(U1-PIN46-Pad46)*%
X145034000Y-73660000D03*
X142494000Y-73660000D03*
D12*
X139954000Y-73660000D03*
D11*
X137414000Y-73660000D03*
X134874000Y-73660000D03*
%TO.P,U1,47,PIN47*%
%TO.N,unconnected-(U1-PIN47-Pad47)*%
X145034000Y-71120000D03*
X142494000Y-71120000D03*
D12*
X139954000Y-71120000D03*
D11*
X137414000Y-71120000D03*
X134874000Y-71120000D03*
%TO.P,U1,48,PIN48*%
%TO.N,unconnected-(U1-PIN48-Pad48)*%
X145034000Y-68580000D03*
X142494000Y-68580000D03*
D12*
X139954000Y-68580000D03*
D11*
X137414000Y-68580000D03*
X134874000Y-68580000D03*
%TO.P,U1,49,PIN49*%
%TO.N,unconnected-(U1-PIN49-Pad49)*%
X145034000Y-66040000D03*
X142494000Y-66040000D03*
D12*
X139954000Y-66040000D03*
D11*
X137414000Y-66040000D03*
X134874000Y-66040000D03*
%TO.P,U1,50,PIN50*%
%TO.N,unconnected-(U1-PIN50-Pad50)*%
X145034000Y-63500000D03*
X142494000Y-63500000D03*
D12*
X139954000Y-63500000D03*
D11*
X137414000Y-63500000D03*
X134874000Y-63500000D03*
%TO.P,U1,51,PIN51*%
%TO.N,unconnected-(U1-PIN51-Pad51)*%
X145134000Y-60960000D03*
X142594000Y-60960000D03*
D12*
X140054000Y-60960000D03*
D11*
X137514000Y-60960000D03*
X134974000Y-60960000D03*
%TO.P,U1,52,PIN52*%
%TO.N,unconnected-(U1-PIN52-Pad52)*%
X145134000Y-58420000D03*
X142594000Y-58420000D03*
D12*
X140054000Y-58420000D03*
D11*
X137514000Y-58420000D03*
X134974000Y-58420000D03*
%TO.P,U1,53,PIN53*%
%TO.N,unconnected-(U1-PIN53-Pad53)*%
X145034000Y-55880000D03*
X142494000Y-55880000D03*
D12*
X139954000Y-55880000D03*
D11*
X137414000Y-55880000D03*
X134874000Y-55880000D03*
%TO.P,U1,54,PIN54*%
%TO.N,unconnected-(U1-PIN54-Pad54)*%
X145034000Y-53340000D03*
X142494000Y-53340000D03*
D12*
X139954000Y-53340000D03*
D11*
X137414000Y-53340000D03*
X134874000Y-53340000D03*
%TO.P,U1,55,PIN55*%
%TO.N,unconnected-(U1-PIN55-Pad55)*%
X145034000Y-50800000D03*
X142494000Y-50800000D03*
D12*
X139954000Y-50800000D03*
D11*
X137414000Y-50800000D03*
X134874000Y-50800000D03*
%TO.P,U1,56,PIN56*%
%TO.N,unconnected-(U1-PIN56-Pad56)*%
X145034000Y-48260000D03*
X142494000Y-48260000D03*
D12*
X139954000Y-48260000D03*
D11*
X137414000Y-48260000D03*
X134874000Y-48260000D03*
%TO.P,U1,57,PIN57*%
%TO.N,unconnected-(U1-PIN57-Pad57)*%
X145034000Y-45720000D03*
X142494000Y-45720000D03*
D12*
X139954000Y-45720000D03*
D11*
X137414000Y-45720000D03*
X134874000Y-45720000D03*
%TO.P,U1,58,PIN58*%
%TO.N,unconnected-(U1-PIN58-Pad58)*%
X145034000Y-43180000D03*
X142494000Y-43180000D03*
D12*
X139954000Y-43180000D03*
D11*
X137414000Y-43180000D03*
X134874000Y-43180000D03*
%TO.P,U1,59,PIN59*%
%TO.N,unconnected-(U1-PIN59-Pad59)*%
X145034000Y-40640000D03*
X142494000Y-40640000D03*
D12*
X139954000Y-40640000D03*
D11*
X137414000Y-40640000D03*
X134874000Y-40640000D03*
%TO.P,U1,60,PIN60*%
%TO.N,unconnected-(U1-PIN60-Pad60)*%
X145034000Y-38100000D03*
X142494000Y-38100000D03*
D12*
X139954000Y-38100000D03*
D11*
X137414000Y-38100000D03*
X134874000Y-38100000D03*
%TO.P,U1,61,PIN61*%
%TO.N,unconnected-(U1-PIN61-Pad61)*%
X145034000Y-35560000D03*
X142494000Y-35560000D03*
D12*
X139954000Y-35560000D03*
D11*
X137414000Y-35560000D03*
X134874000Y-35560000D03*
%TO.P,U1,62,PIN62*%
%TO.N,unconnected-(U1-PIN62-Pad62)*%
X145034000Y-33020000D03*
X142494000Y-33020000D03*
D12*
X139954000Y-33020000D03*
D11*
X137414000Y-33020000D03*
X134874000Y-33020000D03*
%TO.P,U1,63,PIN63*%
%TO.N,unconnected-(U1-PIN63-Pad63)*%
X145034000Y-30480000D03*
X142494000Y-30480000D03*
D12*
X139954000Y-30480000D03*
D11*
X137414000Y-30480000D03*
X134874000Y-30480000D03*
%TO.P,U1,64,PIN64*%
%TO.N,unconnected-(U1-PIN64-Pad64)*%
X145034000Y-27940000D03*
X142494000Y-27940000D03*
D12*
X139954000Y-27940000D03*
D11*
X137414000Y-27940000D03*
X134874000Y-27940000D03*
%TD*%
D13*
%TO.P,J4,1,Pin_1*%
%TO.N,Net-(J4-Pin_1)*%
X152400000Y-30480000D03*
D14*
%TO.P,J4,2,Pin_2*%
%TO.N,Net-(J4-Pin_10)*%
X154940000Y-30480000D03*
%TO.P,J4,3,Pin_3*%
%TO.N,Net-(J4-Pin_1)*%
X152400000Y-33020000D03*
%TO.P,J4,4,Pin_4*%
%TO.N,Net-(J4-Pin_10)*%
X154940000Y-33020000D03*
%TO.P,J4,5,Pin_5*%
%TO.N,Net-(J4-Pin_1)*%
X152400000Y-35560000D03*
%TO.P,J4,6,Pin_6*%
%TO.N,Net-(J4-Pin_10)*%
X154940000Y-35560000D03*
%TO.P,J4,7,Pin_7*%
%TO.N,Net-(J4-Pin_1)*%
X152400000Y-38100000D03*
%TO.P,J4,8,Pin_8*%
%TO.N,Net-(J4-Pin_10)*%
X154940000Y-38100000D03*
%TO.P,J4,9,Pin_9*%
%TO.N,Net-(J4-Pin_1)*%
X152400000Y-40640000D03*
%TO.P,J4,10,Pin_10*%
%TO.N,Net-(J4-Pin_10)*%
X154940000Y-40640000D03*
%TO.P,J4,11,Pin_11*%
%TO.N,Net-(J4-Pin_1)*%
X152400000Y-43180000D03*
%TO.P,J4,12,Pin_12*%
%TO.N,Net-(J4-Pin_10)*%
X154940000Y-43180000D03*
%TO.P,J4,13,Pin_13*%
%TO.N,Net-(J4-Pin_1)*%
X152400000Y-45720000D03*
%TO.P,J4,14,Pin_14*%
%TO.N,Net-(J4-Pin_10)*%
X154940000Y-45720000D03*
%TO.P,J4,15,Pin_15*%
%TO.N,Net-(J4-Pin_1)*%
X152400000Y-48260000D03*
%TO.P,J4,16,Pin_16*%
%TO.N,Net-(J4-Pin_10)*%
X154940000Y-48260000D03*
%TO.P,J4,17,Pin_17*%
%TO.N,Net-(J4-Pin_1)*%
X152400000Y-50800000D03*
%TO.P,J4,18,Pin_18*%
%TO.N,Net-(J4-Pin_10)*%
X154940000Y-50800000D03*
%TO.P,J4,19,Pin_19*%
%TO.N,Net-(J4-Pin_1)*%
X152400000Y-53340000D03*
%TO.P,J4,20,Pin_20*%
%TO.N,Net-(J4-Pin_10)*%
X154940000Y-53340000D03*
%TO.P,J4,21,Pin_21*%
%TO.N,Net-(J4-Pin_1)*%
X152400000Y-55880000D03*
%TO.P,J4,22,Pin_22*%
%TO.N,Net-(J4-Pin_10)*%
X154940000Y-55880000D03*
%TO.P,J4,23,Pin_23*%
%TO.N,Net-(J4-Pin_1)*%
X152400000Y-58420000D03*
%TO.P,J4,24,Pin_24*%
%TO.N,Net-(J4-Pin_10)*%
X154940000Y-58420000D03*
%TO.P,J4,25,Pin_25*%
%TO.N,Net-(J4-Pin_1)*%
X152400000Y-60960000D03*
%TO.P,J4,26,Pin_26*%
%TO.N,Net-(J4-Pin_10)*%
X154940000Y-60960000D03*
%TO.P,J4,27,Pin_27*%
%TO.N,Net-(J4-Pin_1)*%
X152400000Y-63500000D03*
%TO.P,J4,28,Pin_28*%
%TO.N,Net-(J4-Pin_10)*%
X154940000Y-63500000D03*
%TO.P,J4,29,Pin_29*%
%TO.N,Net-(J4-Pin_1)*%
X152400000Y-66040000D03*
%TO.P,J4,30,Pin_30*%
%TO.N,Net-(J4-Pin_10)*%
X154940000Y-66040000D03*
%TO.P,J4,31,Pin_31*%
%TO.N,Net-(J4-Pin_1)*%
X152400000Y-68580000D03*
%TO.P,J4,32,Pin_32*%
%TO.N,Net-(J4-Pin_10)*%
X154940000Y-68580000D03*
%TO.P,J4,33,Pin_33*%
%TO.N,Net-(J4-Pin_1)*%
X152400000Y-71120000D03*
%TO.P,J4,34,Pin_34*%
%TO.N,Net-(J4-Pin_10)*%
X154940000Y-71120000D03*
%TO.P,J4,35,Pin_35*%
%TO.N,Net-(J4-Pin_1)*%
X152400000Y-73660000D03*
%TO.P,J4,36,Pin_36*%
%TO.N,Net-(J4-Pin_10)*%
X154940000Y-73660000D03*
%TO.P,J4,37,Pin_37*%
%TO.N,Net-(J4-Pin_1)*%
X152400000Y-76200000D03*
%TO.P,J4,38,Pin_38*%
%TO.N,Net-(J4-Pin_10)*%
X154940000Y-76200000D03*
%TO.P,J4,39,Pin_39*%
%TO.N,Net-(J4-Pin_1)*%
X152400000Y-78740000D03*
%TO.P,J4,40,Pin_40*%
%TO.N,Net-(J4-Pin_10)*%
X154940000Y-78740000D03*
%TD*%
D13*
%TO.P,J2,1,Pin_1*%
%TO.N,Net-(J2-Pin_1)*%
X104135000Y-85100000D03*
D14*
%TO.P,J2,2,Pin_2*%
%TO.N,Net-(J2-Pin_10)*%
X106675000Y-85100000D03*
%TO.P,J2,3,Pin_3*%
%TO.N,Net-(J2-Pin_1)*%
X104135000Y-87640000D03*
%TO.P,J2,4,Pin_4*%
%TO.N,Net-(J2-Pin_10)*%
X106675000Y-87640000D03*
%TO.P,J2,5,Pin_5*%
%TO.N,Net-(J2-Pin_1)*%
X104135000Y-90180000D03*
%TO.P,J2,6,Pin_6*%
%TO.N,Net-(J2-Pin_10)*%
X106675000Y-90180000D03*
%TO.P,J2,7,Pin_7*%
%TO.N,Net-(J2-Pin_1)*%
X104135000Y-92720000D03*
%TO.P,J2,8,Pin_8*%
%TO.N,Net-(J2-Pin_10)*%
X106675000Y-92720000D03*
%TO.P,J2,9,Pin_9*%
%TO.N,Net-(J2-Pin_1)*%
X104135000Y-95260000D03*
%TO.P,J2,10,Pin_10*%
%TO.N,Net-(J2-Pin_10)*%
X106675000Y-95260000D03*
%TO.P,J2,11,Pin_11*%
%TO.N,Net-(J2-Pin_1)*%
X104135000Y-97800000D03*
%TO.P,J2,12,Pin_12*%
%TO.N,Net-(J2-Pin_10)*%
X106675000Y-97800000D03*
%TO.P,J2,13,Pin_13*%
%TO.N,Net-(J2-Pin_1)*%
X104135000Y-100340000D03*
%TO.P,J2,14,Pin_14*%
%TO.N,Net-(J2-Pin_10)*%
X106675000Y-100340000D03*
%TO.P,J2,15,Pin_15*%
%TO.N,Net-(J2-Pin_1)*%
X104135000Y-102880000D03*
%TO.P,J2,16,Pin_16*%
%TO.N,Net-(J2-Pin_10)*%
X106675000Y-102880000D03*
%TO.P,J2,17,Pin_17*%
%TO.N,Net-(J2-Pin_1)*%
X104135000Y-105420000D03*
%TO.P,J2,18,Pin_18*%
%TO.N,Net-(J2-Pin_10)*%
X106675000Y-105420000D03*
%TD*%
D13*
%TO.P,J1,1,Pin_1*%
%TO.N,Net-(J1-Pin_1)*%
X104140000Y-30480000D03*
D14*
%TO.P,J1,2,Pin_2*%
%TO.N,Net-(J1-Pin_10)*%
X106680000Y-30480000D03*
%TO.P,J1,3,Pin_3*%
%TO.N,Net-(J1-Pin_1)*%
X104140000Y-33020000D03*
%TO.P,J1,4,Pin_4*%
%TO.N,Net-(J1-Pin_10)*%
X106680000Y-33020000D03*
%TO.P,J1,5,Pin_5*%
%TO.N,Net-(J1-Pin_1)*%
X104140000Y-35560000D03*
%TO.P,J1,6,Pin_6*%
%TO.N,Net-(J1-Pin_10)*%
X106680000Y-35560000D03*
%TO.P,J1,7,Pin_7*%
%TO.N,Net-(J1-Pin_1)*%
X104140000Y-38100000D03*
%TO.P,J1,8,Pin_8*%
%TO.N,Net-(J1-Pin_10)*%
X106680000Y-38100000D03*
%TO.P,J1,9,Pin_9*%
%TO.N,Net-(J1-Pin_1)*%
X104140000Y-40640000D03*
%TO.P,J1,10,Pin_10*%
%TO.N,Net-(J1-Pin_10)*%
X106680000Y-40640000D03*
%TO.P,J1,11,Pin_11*%
%TO.N,Net-(J1-Pin_1)*%
X104140000Y-43180000D03*
%TO.P,J1,12,Pin_12*%
%TO.N,Net-(J1-Pin_10)*%
X106680000Y-43180000D03*
%TO.P,J1,13,Pin_13*%
%TO.N,Net-(J1-Pin_1)*%
X104140000Y-45720000D03*
%TO.P,J1,14,Pin_14*%
%TO.N,Net-(J1-Pin_10)*%
X106680000Y-45720000D03*
%TO.P,J1,15,Pin_15*%
%TO.N,Net-(J1-Pin_1)*%
X104140000Y-48260000D03*
%TO.P,J1,16,Pin_16*%
%TO.N,Net-(J1-Pin_10)*%
X106680000Y-48260000D03*
%TO.P,J1,17,Pin_17*%
%TO.N,Net-(J1-Pin_1)*%
X104140000Y-50800000D03*
%TO.P,J1,18,Pin_18*%
%TO.N,Net-(J1-Pin_10)*%
X106680000Y-50800000D03*
%TO.P,J1,19,Pin_19*%
%TO.N,Net-(J1-Pin_1)*%
X104140000Y-53340000D03*
%TO.P,J1,20,Pin_20*%
%TO.N,Net-(J1-Pin_10)*%
X106680000Y-53340000D03*
%TO.P,J1,21,Pin_21*%
%TO.N,Net-(J1-Pin_1)*%
X104140000Y-55880000D03*
%TO.P,J1,22,Pin_22*%
%TO.N,Net-(J1-Pin_10)*%
X106680000Y-55880000D03*
%TO.P,J1,23,Pin_23*%
%TO.N,Net-(J1-Pin_1)*%
X104140000Y-58420000D03*
%TO.P,J1,24,Pin_24*%
%TO.N,Net-(J1-Pin_10)*%
X106680000Y-58420000D03*
%TO.P,J1,25,Pin_25*%
%TO.N,Net-(J1-Pin_1)*%
X104140000Y-60960000D03*
%TO.P,J1,26,Pin_26*%
%TO.N,Net-(J1-Pin_10)*%
X106680000Y-60960000D03*
%TO.P,J1,27,Pin_27*%
%TO.N,Net-(J1-Pin_1)*%
X104140000Y-63500000D03*
%TO.P,J1,28,Pin_28*%
%TO.N,Net-(J1-Pin_10)*%
X106680000Y-63500000D03*
%TO.P,J1,29,Pin_29*%
%TO.N,Net-(J1-Pin_1)*%
X104140000Y-66040000D03*
%TO.P,J1,30,Pin_30*%
%TO.N,Net-(J1-Pin_10)*%
X106680000Y-66040000D03*
%TO.P,J1,31,Pin_31*%
%TO.N,Net-(J1-Pin_1)*%
X104140000Y-68580000D03*
%TO.P,J1,32,Pin_32*%
%TO.N,Net-(J1-Pin_10)*%
X106680000Y-68580000D03*
%TO.P,J1,33,Pin_33*%
%TO.N,Net-(J1-Pin_1)*%
X104140000Y-71120000D03*
%TO.P,J1,34,Pin_34*%
%TO.N,Net-(J1-Pin_10)*%
X106680000Y-71120000D03*
%TO.P,J1,35,Pin_35*%
%TO.N,Net-(J1-Pin_1)*%
X104140000Y-73660000D03*
%TO.P,J1,36,Pin_36*%
%TO.N,Net-(J1-Pin_10)*%
X106680000Y-73660000D03*
%TO.P,J1,37,Pin_37*%
%TO.N,Net-(J1-Pin_1)*%
X104140000Y-76200000D03*
%TO.P,J1,38,Pin_38*%
%TO.N,Net-(J1-Pin_10)*%
X106680000Y-76200000D03*
%TO.P,J1,39,Pin_39*%
%TO.N,Net-(J1-Pin_1)*%
X104140000Y-78740000D03*
%TO.P,J1,40,Pin_40*%
%TO.N,Net-(J1-Pin_10)*%
X106680000Y-78740000D03*
%TD*%
D13*
%TO.P,J5,1,Pin_1*%
%TO.N,Net-(J5-Pin_1)*%
X152400000Y-85090000D03*
D14*
%TO.P,J5,2,Pin_2*%
%TO.N,Net-(J5-Pin_10)*%
X154940000Y-85090000D03*
%TO.P,J5,3,Pin_3*%
%TO.N,Net-(J5-Pin_1)*%
X152400000Y-87630000D03*
%TO.P,J5,4,Pin_4*%
%TO.N,Net-(J5-Pin_10)*%
X154940000Y-87630000D03*
%TO.P,J5,5,Pin_5*%
%TO.N,Net-(J5-Pin_1)*%
X152400000Y-90170000D03*
%TO.P,J5,6,Pin_6*%
%TO.N,Net-(J5-Pin_10)*%
X154940000Y-90170000D03*
%TO.P,J5,7,Pin_7*%
%TO.N,Net-(J5-Pin_1)*%
X152400000Y-92710000D03*
%TO.P,J5,8,Pin_8*%
%TO.N,Net-(J5-Pin_10)*%
X154940000Y-92710000D03*
%TO.P,J5,9,Pin_9*%
%TO.N,Net-(J5-Pin_1)*%
X152400000Y-95250000D03*
%TO.P,J5,10,Pin_10*%
%TO.N,Net-(J5-Pin_10)*%
X154940000Y-95250000D03*
%TO.P,J5,11,Pin_11*%
%TO.N,Net-(J5-Pin_1)*%
X152400000Y-97790000D03*
%TO.P,J5,12,Pin_12*%
%TO.N,Net-(J5-Pin_10)*%
X154940000Y-97790000D03*
%TO.P,J5,13,Pin_13*%
%TO.N,Net-(J5-Pin_1)*%
X152400000Y-100330000D03*
%TO.P,J5,14,Pin_14*%
%TO.N,Net-(J5-Pin_10)*%
X154940000Y-100330000D03*
%TO.P,J5,15,Pin_15*%
%TO.N,Net-(J5-Pin_1)*%
X152400000Y-102870000D03*
%TO.P,J5,16,Pin_16*%
%TO.N,Net-(J5-Pin_10)*%
X154940000Y-102870000D03*
%TO.P,J5,17,Pin_17*%
%TO.N,Net-(J5-Pin_1)*%
X152400000Y-105410000D03*
%TO.P,J5,18,Pin_18*%
%TO.N,Net-(J5-Pin_10)*%
X154940000Y-105410000D03*
%TD*%
D15*
%TO.N,unconnected-(U1-PIN64-Pad64)*%
X134874000Y-27940000D02*
X137414000Y-27940000D01*
X137414000Y-27940000D02*
X139954000Y-27940000D01*
X139954000Y-27940000D02*
X142494000Y-27940000D01*
X142494000Y-27940000D02*
X145034000Y-27940000D01*
%TO.N,unconnected-(U1-PIN63-Pad63)*%
X134874000Y-30480000D02*
X137414000Y-30480000D01*
X137414000Y-30480000D02*
X139954000Y-30480000D01*
X139954000Y-30480000D02*
X142494000Y-30480000D01*
X142494000Y-30480000D02*
X145034000Y-30480000D01*
%TO.N,unconnected-(U1-PIN62-Pad62)*%
X134874000Y-33020000D02*
X137414000Y-33020000D01*
X137414000Y-33020000D02*
X139954000Y-33020000D01*
X139954000Y-33020000D02*
X142494000Y-33020000D01*
X142494000Y-33020000D02*
X145034000Y-33020000D01*
%TO.N,unconnected-(U1-PIN61-Pad61)*%
X134874000Y-35560000D02*
X137414000Y-35560000D01*
X137414000Y-35560000D02*
X139954000Y-35560000D01*
X139954000Y-35560000D02*
X142494000Y-35560000D01*
X142494000Y-35560000D02*
X145034000Y-35560000D01*
%TO.N,unconnected-(U1-PIN60-Pad60)*%
X134874000Y-38100000D02*
X137414000Y-38100000D01*
X137414000Y-38100000D02*
X139954000Y-38100000D01*
X139954000Y-38100000D02*
X142494000Y-38100000D01*
X142494000Y-38100000D02*
X145034000Y-38100000D01*
%TO.N,unconnected-(U1-PIN59-Pad59)*%
X134874000Y-40640000D02*
X137414000Y-40640000D01*
X137414000Y-40640000D02*
X139954000Y-40640000D01*
X139954000Y-40640000D02*
X142494000Y-40640000D01*
X142494000Y-40640000D02*
X145034000Y-40640000D01*
%TO.N,unconnected-(U1-PIN58-Pad58)*%
X134874000Y-43180000D02*
X137414000Y-43180000D01*
X137414000Y-43180000D02*
X139954000Y-43180000D01*
X139954000Y-43180000D02*
X142494000Y-43180000D01*
X142494000Y-43180000D02*
X145034000Y-43180000D01*
%TO.N,unconnected-(U1-PIN57-Pad57)*%
X134874000Y-45720000D02*
X137414000Y-45720000D01*
X137414000Y-45720000D02*
X139954000Y-45720000D01*
X139954000Y-45720000D02*
X142494000Y-45720000D01*
X142494000Y-45720000D02*
X145034000Y-45720000D01*
%TO.N,unconnected-(U1-PIN56-Pad56)*%
X134874000Y-48260000D02*
X137414000Y-48260000D01*
X137414000Y-48260000D02*
X139954000Y-48260000D01*
X139954000Y-48260000D02*
X142494000Y-48260000D01*
X142494000Y-48260000D02*
X145034000Y-48260000D01*
%TO.N,unconnected-(U1-PIN55-Pad55)*%
X134874000Y-50800000D02*
X137414000Y-50800000D01*
X137414000Y-50800000D02*
X139954000Y-50800000D01*
X139954000Y-50800000D02*
X142494000Y-50800000D01*
X142494000Y-50800000D02*
X145034000Y-50800000D01*
%TO.N,unconnected-(U1-PIN54-Pad54)*%
X134874000Y-53340000D02*
X137414000Y-53340000D01*
X137414000Y-53340000D02*
X139954000Y-53340000D01*
X139954000Y-53340000D02*
X142494000Y-53340000D01*
X142494000Y-53340000D02*
X145034000Y-53340000D01*
%TO.N,unconnected-(U1-PIN53-Pad53)*%
X134874000Y-55880000D02*
X137414000Y-55880000D01*
X137414000Y-55880000D02*
X139954000Y-55880000D01*
X139954000Y-55880000D02*
X142494000Y-55880000D01*
X142494000Y-55880000D02*
X145034000Y-55880000D01*
%TO.N,unconnected-(U1-PIN52-Pad52)*%
X134974000Y-58420000D02*
X137514000Y-58420000D01*
X137514000Y-58420000D02*
X140054000Y-58420000D01*
X140054000Y-58420000D02*
X142594000Y-58420000D01*
X142594000Y-58420000D02*
X145134000Y-58420000D01*
%TO.N,unconnected-(U1-PIN51-Pad51)*%
X134974000Y-60960000D02*
X137514000Y-60960000D01*
X137514000Y-60960000D02*
X140054000Y-60960000D01*
X140054000Y-60960000D02*
X142594000Y-60960000D01*
X142594000Y-60960000D02*
X145134000Y-60960000D01*
%TO.N,unconnected-(U1-PIN50-Pad50)*%
X134874000Y-63500000D02*
X137414000Y-63500000D01*
X137414000Y-63500000D02*
X139954000Y-63500000D01*
X139954000Y-63500000D02*
X142494000Y-63500000D01*
X142494000Y-63500000D02*
X145034000Y-63500000D01*
%TO.N,unconnected-(U1-PIN49-Pad49)*%
X134874000Y-66040000D02*
X137414000Y-66040000D01*
X137414000Y-66040000D02*
X139954000Y-66040000D01*
X139954000Y-66040000D02*
X142494000Y-66040000D01*
X142494000Y-66040000D02*
X145034000Y-66040000D01*
%TO.N,unconnected-(U1-PIN48-Pad48)*%
X134874000Y-68580000D02*
X137414000Y-68580000D01*
X137414000Y-68580000D02*
X139954000Y-68580000D01*
X139954000Y-68580000D02*
X142494000Y-68580000D01*
X142494000Y-68580000D02*
X145034000Y-68580000D01*
%TO.N,unconnected-(U1-PIN47-Pad47)*%
X134874000Y-71120000D02*
X137414000Y-71120000D01*
X137414000Y-71120000D02*
X139954000Y-71120000D01*
X139954000Y-71120000D02*
X142494000Y-71120000D01*
X142494000Y-71120000D02*
X145034000Y-71120000D01*
%TO.N,unconnected-(U1-PIN46-Pad46)*%
X134874000Y-73660000D02*
X137414000Y-73660000D01*
X137414000Y-73660000D02*
X139954000Y-73660000D01*
X139954000Y-73660000D02*
X142494000Y-73660000D01*
X142494000Y-73660000D02*
X145034000Y-73660000D01*
%TO.N,unconnected-(U1-PIN45-Pad45)*%
X134974000Y-76200000D02*
X137514000Y-76200000D01*
X137514000Y-76200000D02*
X140054000Y-76200000D01*
X140054000Y-76200000D02*
X142594000Y-76200000D01*
X142594000Y-76200000D02*
X145134000Y-76200000D01*
%TO.N,unconnected-(U1-PIN44-Pad44)*%
X134874000Y-78740000D02*
X137414000Y-78740000D01*
X137414000Y-78740000D02*
X139954000Y-78740000D01*
X139954000Y-78740000D02*
X142494000Y-78740000D01*
X142494000Y-78740000D02*
X145034000Y-78740000D01*
%TO.N,unconnected-(U1-PIN43-Pad43)*%
X134874000Y-81280000D02*
X137414000Y-81280000D01*
X137414000Y-81280000D02*
X139954000Y-81280000D01*
X139954000Y-81280000D02*
X142494000Y-81280000D01*
X142494000Y-81280000D02*
X145034000Y-81280000D01*
%TO.N,unconnected-(U1-PIN42-Pad42)*%
X134874000Y-83820000D02*
X137414000Y-83820000D01*
X137414000Y-83820000D02*
X139954000Y-83820000D01*
X139954000Y-83820000D02*
X142494000Y-83820000D01*
X142494000Y-83820000D02*
X145034000Y-83820000D01*
%TO.N,unconnected-(U1-PIN41-Pad41)*%
X134874000Y-86360000D02*
X137414000Y-86360000D01*
X137414000Y-86360000D02*
X139954000Y-86360000D01*
X139954000Y-86360000D02*
X142494000Y-86360000D01*
X142494000Y-86360000D02*
X145034000Y-86360000D01*
%TO.N,unconnected-(U1-PIN40-Pad40)*%
X134874000Y-88900000D02*
X137414000Y-88900000D01*
X137414000Y-88900000D02*
X139954000Y-88900000D01*
X139954000Y-88900000D02*
X142494000Y-88900000D01*
X142494000Y-88900000D02*
X145034000Y-88900000D01*
%TO.N,unconnected-(U1-PIN39-Pad39)*%
X134874000Y-91440000D02*
X137414000Y-91440000D01*
X137414000Y-91440000D02*
X139954000Y-91440000D01*
X139954000Y-91440000D02*
X142494000Y-91440000D01*
X142494000Y-91440000D02*
X145034000Y-91440000D01*
%TO.N,unconnected-(U1-PIN38-Pad38)*%
X134874000Y-93980000D02*
X137414000Y-93980000D01*
X137414000Y-93980000D02*
X139954000Y-93980000D01*
X139954000Y-93980000D02*
X142494000Y-93980000D01*
X142494000Y-93980000D02*
X145034000Y-93980000D01*
%TO.N,unconnected-(U1-PIN37-Pad37)*%
X134874000Y-96520000D02*
X137414000Y-96520000D01*
X137414000Y-96520000D02*
X139954000Y-96520000D01*
X139954000Y-96520000D02*
X142494000Y-96520000D01*
X142494000Y-96520000D02*
X145034000Y-96520000D01*
%TO.N,unconnected-(U1-PIN36-Pad36)*%
X134874000Y-99060000D02*
X137414000Y-99060000D01*
X137414000Y-99060000D02*
X139954000Y-99060000D01*
X139954000Y-99060000D02*
X142494000Y-99060000D01*
X142494000Y-99060000D02*
X145034000Y-99060000D01*
%TO.N,unconnected-(U1-PIN35-Pad35)*%
X134874000Y-101600000D02*
X137414000Y-101600000D01*
X137414000Y-101600000D02*
X139954000Y-101600000D01*
X139954000Y-101600000D02*
X142494000Y-101600000D01*
X142494000Y-101600000D02*
X145034000Y-101600000D01*
%TO.N,unconnected-(U1-PIN34-Pad34)*%
X134874000Y-104140000D02*
X137414000Y-104140000D01*
X137414000Y-104140000D02*
X139954000Y-104140000D01*
X139954000Y-104140000D02*
X142494000Y-104140000D01*
X142494000Y-104140000D02*
X145034000Y-104140000D01*
%TO.N,unconnected-(U1-PIN33-Pad33)*%
X134874000Y-106680000D02*
X137414000Y-106680000D01*
X137414000Y-106680000D02*
X139954000Y-106680000D01*
X139954000Y-106680000D02*
X142494000Y-106680000D01*
X142494000Y-106680000D02*
X145034000Y-106680000D01*
%TO.N,unconnected-(U1-PIN32-Pad32)*%
X114300000Y-106680000D02*
X116840000Y-106680000D01*
X116840000Y-106680000D02*
X119380000Y-106680000D01*
X119380000Y-106680000D02*
X121920000Y-106680000D01*
X121920000Y-106680000D02*
X124460000Y-106680000D01*
%TO.N,unconnected-(U1-PIN31-Pad31)*%
X114300000Y-104140000D02*
X116840000Y-104140000D01*
X116840000Y-104140000D02*
X119380000Y-104140000D01*
X119380000Y-104140000D02*
X121920000Y-104140000D01*
X121920000Y-104140000D02*
X124460000Y-104140000D01*
%TO.N,unconnected-(U1-PIN30-Pad30)*%
X114300000Y-101600000D02*
X116840000Y-101600000D01*
X116840000Y-101600000D02*
X119380000Y-101600000D01*
X119380000Y-101600000D02*
X121920000Y-101600000D01*
X121920000Y-101600000D02*
X124460000Y-101600000D01*
%TO.N,unconnected-(U1-PIN29-Pad29)*%
X114400000Y-99060000D02*
X116940000Y-99060000D01*
X116940000Y-99060000D02*
X119480000Y-99060000D01*
X119480000Y-99060000D02*
X122020000Y-99060000D01*
X122020000Y-99060000D02*
X124560000Y-99060000D01*
%TO.N,unconnected-(U1-PIN28-Pad28)*%
X114300000Y-96520000D02*
X116840000Y-96520000D01*
X116840000Y-96520000D02*
X119380000Y-96520000D01*
X119380000Y-96520000D02*
X121920000Y-96520000D01*
X121920000Y-96520000D02*
X124460000Y-96520000D01*
%TO.N,unconnected-(U1-PIN27-Pad27)*%
X114300000Y-93980000D02*
X116840000Y-93980000D01*
X116840000Y-93980000D02*
X119380000Y-93980000D01*
X119380000Y-93980000D02*
X121920000Y-93980000D01*
X121920000Y-93980000D02*
X124460000Y-93980000D01*
%TO.N,unconnected-(U1-PIN26-Pad26)*%
X114300000Y-91440000D02*
X116840000Y-91440000D01*
X116840000Y-91440000D02*
X119380000Y-91440000D01*
X119380000Y-91440000D02*
X121920000Y-91440000D01*
X121920000Y-91440000D02*
X124460000Y-91440000D01*
%TO.N,unconnected-(U1-PIN25-Pad25)*%
X114300000Y-88900000D02*
X116840000Y-88900000D01*
X116840000Y-88900000D02*
X119380000Y-88900000D01*
X119380000Y-88900000D02*
X121920000Y-88900000D01*
X121920000Y-88900000D02*
X124460000Y-88900000D01*
%TO.N,unconnected-(U1-PIN24-Pad24)*%
X114300000Y-86360000D02*
X116840000Y-86360000D01*
X116840000Y-86360000D02*
X119380000Y-86360000D01*
X119380000Y-86360000D02*
X121920000Y-86360000D01*
X121920000Y-86360000D02*
X124460000Y-86360000D01*
%TO.N,unconnected-(U1-PIN23-Pad23)*%
X114300000Y-83820000D02*
X116840000Y-83820000D01*
X116840000Y-83820000D02*
X119380000Y-83820000D01*
X119380000Y-83820000D02*
X121920000Y-83820000D01*
X121920000Y-83820000D02*
X124460000Y-83820000D01*
%TO.N,unconnected-(U1-PIN22-Pad22)*%
X114300000Y-81280000D02*
X116840000Y-81280000D01*
X116840000Y-81280000D02*
X119380000Y-81280000D01*
X119380000Y-81280000D02*
X121920000Y-81280000D01*
X121920000Y-81280000D02*
X124460000Y-81280000D01*
%TO.N,unconnected-(U1-PIN21-Pad21)*%
X114300000Y-78740000D02*
X116840000Y-78740000D01*
X116840000Y-78740000D02*
X119380000Y-78740000D01*
X119380000Y-78740000D02*
X121920000Y-78740000D01*
X121920000Y-78740000D02*
X124460000Y-78740000D01*
%TO.N,unconnected-(U1-PIN20-Pad20)*%
X114300000Y-76200000D02*
X116840000Y-76200000D01*
X116840000Y-76200000D02*
X119380000Y-76200000D01*
X119380000Y-76200000D02*
X121920000Y-76200000D01*
X121920000Y-76200000D02*
X124460000Y-76200000D01*
%TO.N,unconnected-(U1-PIN19-Pad19)*%
X114300000Y-73660000D02*
X116840000Y-73660000D01*
X116840000Y-73660000D02*
X119380000Y-73660000D01*
X119380000Y-73660000D02*
X121920000Y-73660000D01*
X121920000Y-73660000D02*
X124460000Y-73660000D01*
%TO.N,unconnected-(U1-PIN18-Pad18)*%
X114300000Y-71120000D02*
X116840000Y-71120000D01*
X116840000Y-71120000D02*
X119380000Y-71120000D01*
X119380000Y-71120000D02*
X121920000Y-71120000D01*
X121920000Y-71120000D02*
X124460000Y-71120000D01*
%TO.N,unconnected-(U1-PIN17-Pad17)*%
X114200000Y-68580000D02*
X116740000Y-68580000D01*
X116740000Y-68580000D02*
X119280000Y-68580000D01*
X119280000Y-68580000D02*
X121820000Y-68580000D01*
X121820000Y-68580000D02*
X124360000Y-68580000D01*
%TO.N,unconnected-(U1-PIN16-Pad16)*%
X114200000Y-66040000D02*
X116740000Y-66040000D01*
X116740000Y-66040000D02*
X119280000Y-66040000D01*
X119280000Y-66040000D02*
X121820000Y-66040000D01*
X121820000Y-66040000D02*
X124360000Y-66040000D01*
%TO.N,unconnected-(U1-PIN15-Pad15)*%
X114200000Y-63500000D02*
X116740000Y-63500000D01*
X116740000Y-63500000D02*
X119280000Y-63500000D01*
X119280000Y-63500000D02*
X121820000Y-63500000D01*
X121820000Y-63500000D02*
X124360000Y-63500000D01*
%TO.N,unconnected-(U1-PIN14-Pad14)*%
X114300000Y-60960000D02*
X116840000Y-60960000D01*
X116840000Y-60960000D02*
X119380000Y-60960000D01*
X119380000Y-60960000D02*
X121920000Y-60960000D01*
X121920000Y-60960000D02*
X124460000Y-60960000D01*
%TO.N,unconnected-(U1-PIN13-Pad13)*%
X114300000Y-58420000D02*
X116840000Y-58420000D01*
X116840000Y-58420000D02*
X119380000Y-58420000D01*
X119380000Y-58420000D02*
X121920000Y-58420000D01*
X121920000Y-58420000D02*
X124460000Y-58420000D01*
%TO.N,unconnected-(U1-PIN12-Pad12)*%
X114300000Y-55880000D02*
X116840000Y-55880000D01*
X116840000Y-55880000D02*
X119380000Y-55880000D01*
X119380000Y-55880000D02*
X121920000Y-55880000D01*
X121920000Y-55880000D02*
X124460000Y-55880000D01*
%TO.N,unconnected-(U1-PIN11-Pad11)*%
X114300000Y-53340000D02*
X116840000Y-53340000D01*
X116840000Y-53340000D02*
X119380000Y-53340000D01*
X119380000Y-53340000D02*
X121920000Y-53340000D01*
X121920000Y-53340000D02*
X124460000Y-53340000D01*
%TO.N,unconnected-(U1-PIN10-Pad10)*%
X114300000Y-50800000D02*
X116840000Y-50800000D01*
X116840000Y-50800000D02*
X119380000Y-50800000D01*
X119380000Y-50800000D02*
X121920000Y-50800000D01*
X121920000Y-50800000D02*
X124460000Y-50800000D01*
%TO.N,unconnected-(U1-PIN9-Pad9)*%
X114300000Y-48260000D02*
X116840000Y-48260000D01*
X116840000Y-48260000D02*
X119380000Y-48260000D01*
X119380000Y-48260000D02*
X121920000Y-48260000D01*
X121920000Y-48260000D02*
X124460000Y-48260000D01*
%TO.N,unconnected-(U1-PIN8-Pad8)*%
X114300000Y-45720000D02*
X116840000Y-45720000D01*
X116840000Y-45720000D02*
X119380000Y-45720000D01*
X119380000Y-45720000D02*
X121920000Y-45720000D01*
X121920000Y-45720000D02*
X124460000Y-45720000D01*
%TO.N,unconnected-(U1-PIN7-Pad7)*%
X114300000Y-43180000D02*
X116840000Y-43180000D01*
X116840000Y-43180000D02*
X119380000Y-43180000D01*
X119380000Y-43180000D02*
X121920000Y-43180000D01*
X121920000Y-43180000D02*
X124460000Y-43180000D01*
%TO.N,unconnected-(U1-PIN6-Pad6)*%
X114300000Y-40640000D02*
X116840000Y-40640000D01*
X116840000Y-40640000D02*
X119380000Y-40640000D01*
X119380000Y-40640000D02*
X121920000Y-40640000D01*
X121920000Y-40640000D02*
X124460000Y-40640000D01*
%TO.N,unconnected-(U1-PIN5-Pad5)*%
X114300000Y-38100000D02*
X116840000Y-38100000D01*
X116840000Y-38100000D02*
X119380000Y-38100000D01*
X119380000Y-38100000D02*
X121920000Y-38100000D01*
X121920000Y-38100000D02*
X124460000Y-38100000D01*
%TO.N,unconnected-(U1-PIN4-Pad4)*%
X114300000Y-35560000D02*
X116840000Y-35560000D01*
X116840000Y-35560000D02*
X119380000Y-35560000D01*
X119380000Y-35560000D02*
X121920000Y-35560000D01*
X121920000Y-35560000D02*
X124460000Y-35560000D01*
%TO.N,unconnected-(U1-PIN3-Pad3)*%
X114300000Y-33020000D02*
X116840000Y-33020000D01*
X116840000Y-33020000D02*
X119380000Y-33020000D01*
X119380000Y-33020000D02*
X121920000Y-33020000D01*
X121920000Y-33020000D02*
X124460000Y-33020000D01*
%TO.N,unconnected-(U1-PIN2-Pad2)*%
X114300000Y-30480000D02*
X116840000Y-30480000D01*
X116840000Y-30480000D02*
X119380000Y-30480000D01*
X119380000Y-30480000D02*
X121920000Y-30480000D01*
X121920000Y-30480000D02*
X124460000Y-30480000D01*
%TO.N,unconnected-(U1-PIN1-Pad1)*%
X114300000Y-27940000D02*
X116840000Y-27940000D01*
X116840000Y-27940000D02*
X119380000Y-27940000D01*
X119380000Y-27940000D02*
X121920000Y-27940000D01*
X121920000Y-27940000D02*
X124460000Y-27940000D01*
%TD*%
M02*
