M48
; DRILL file {KiCad 8.0.1} date 2024-03-17T17:10:11+0000
; FORMAT={-:-/ absolute / inch / decimal}
; #@! TF.CreationDate,2024-03-17T17:10:11+00:00
; #@! TF.GenerationSoftware,Kicad,Pcbnew,8.0.1
; #@! TF.FileFunction,Plated,1,2,PTH
FMAT,2
INCH
; #@! TA.AperFunction,Plated,PTH,ComponentDrill
T1C0.0300
; #@! TA.AperFunction,Plated,PTH,ComponentDrill
T2C0.0394
%
G90
G05
T1
X4.5Y-1.1
X4.9Y-1.1
T2
X4.0998Y-3.3504
X4.0998Y-3.4504
X4.0998Y-3.5504
X4.0998Y-3.6504
X4.0998Y-3.7504
X4.0998Y-3.8504
X4.0998Y-3.9504
X4.0998Y-4.0504
X4.0998Y-4.1504
X4.1Y-1.2
X4.1Y-1.3
X4.1Y-1.4
X4.1Y-1.5
X4.1Y-1.6
X4.1Y-1.7
X4.1Y-1.8
X4.1Y-1.9
X4.1Y-2.0
X4.1Y-2.1
X4.1Y-2.2
X4.1Y-2.3
X4.1Y-2.4
X4.1Y-2.5
X4.1Y-2.6
X4.1Y-2.7
X4.1Y-2.8
X4.1Y-2.9
X4.1Y-3.0
X4.1Y-3.1
X4.1998Y-3.3504
X4.1998Y-3.4504
X4.1998Y-3.5504
X4.1998Y-3.6504
X4.1998Y-3.7504
X4.1998Y-3.8504
X4.1998Y-3.9504
X4.1998Y-4.0504
X4.1998Y-4.1504
X4.2Y-1.2
X4.2Y-1.3
X4.2Y-1.4
X4.2Y-1.5
X4.2Y-1.6
X4.2Y-1.7
X4.2Y-1.8
X4.2Y-1.9
X4.2Y-2.0
X4.2Y-2.1
X4.2Y-2.2
X4.2Y-2.3
X4.2Y-2.4
X4.2Y-2.5
X4.2Y-2.6
X4.2Y-2.7
X4.2Y-2.8
X4.2Y-2.9
X4.2Y-3.0
X4.2Y-3.1
X4.4961Y-2.5
X4.4961Y-2.6
X4.4961Y-2.7
X4.5Y-1.2
X4.5Y-1.3
X4.5Y-1.4
X4.5Y-1.5
X4.5Y-1.6
X4.5Y-1.7
X4.5Y-1.8
X4.5Y-1.9
X4.5Y-2.0
X4.5Y-2.1
X4.5Y-2.2
X4.5Y-2.3
X4.5Y-2.4
X4.5Y-2.8
X4.5Y-2.9
X4.5Y-3.0
X4.5Y-3.1
X4.5Y-3.2
X4.5Y-3.3
X4.5Y-3.4
X4.5Y-3.5
X4.5Y-3.6
X4.5Y-3.7
X4.5Y-3.8
X4.5Y-4.0
X4.5Y-4.1
X4.5Y-4.2
X4.5039Y-3.9
X4.5961Y-2.5
X4.5961Y-2.6
X4.5961Y-2.7
X4.6Y-1.1
X4.6Y-1.2
X4.6Y-1.3
X4.6Y-1.4
X4.6Y-1.5
X4.6Y-1.6
X4.6Y-1.7
X4.6Y-1.8
X4.6Y-1.9
X4.6Y-2.0
X4.6Y-2.1
X4.6Y-2.2
X4.6Y-2.3
X4.6Y-2.4
X4.6Y-2.8
X4.6Y-2.9
X4.6Y-3.0
X4.6Y-3.1
X4.6Y-3.2
X4.6Y-3.3
X4.6Y-3.4
X4.6Y-3.5
X4.6Y-3.6
X4.6Y-3.7
X4.6Y-3.8
X4.6Y-4.0
X4.6Y-4.1
X4.6Y-4.2
X4.6039Y-3.9
X4.6961Y-2.5
X4.6961Y-2.6
X4.6961Y-2.7
X4.7Y-1.1
X4.7Y-1.2
X4.7Y-1.3
X4.7Y-1.4
X4.7Y-1.5
X4.7Y-1.6
X4.7Y-1.7
X4.7Y-1.8
X4.7Y-1.9
X4.7Y-2.0
X4.7Y-2.1
X4.7Y-2.2
X4.7Y-2.3
X4.7Y-2.4
X4.7Y-2.8
X4.7Y-2.9
X4.7Y-3.0
X4.7Y-3.1
X4.7Y-3.2
X4.7Y-3.3
X4.7Y-3.4
X4.7Y-3.5
X4.7Y-3.6
X4.7Y-3.7
X4.7Y-3.8
X4.7Y-4.0
X4.7Y-4.1
X4.7Y-4.2
X4.7039Y-3.9
X4.7961Y-2.5
X4.7961Y-2.6
X4.7961Y-2.7
X4.8Y-1.1
X4.8Y-1.2
X4.8Y-1.3
X4.8Y-1.4
X4.8Y-1.5
X4.8Y-1.6
X4.8Y-1.7
X4.8Y-1.8
X4.8Y-1.9
X4.8Y-2.0
X4.8Y-2.1
X4.8Y-2.2
X4.8Y-2.3
X4.8Y-2.4
X4.8Y-2.8
X4.8Y-2.9
X4.8Y-3.0
X4.8Y-3.1
X4.8Y-3.2
X4.8Y-3.3
X4.8Y-3.4
X4.8Y-3.5
X4.8Y-3.6
X4.8Y-3.7
X4.8Y-3.8
X4.8Y-4.0
X4.8Y-4.1
X4.8Y-4.2
X4.8039Y-3.9
X4.8961Y-2.5
X4.8961Y-2.6
X4.8961Y-2.7
X4.9Y-1.2
X4.9Y-1.3
X4.9Y-1.4
X4.9Y-1.5
X4.9Y-1.6
X4.9Y-1.7
X4.9Y-1.8
X4.9Y-1.9
X4.9Y-2.0
X4.9Y-2.1
X4.9Y-2.2
X4.9Y-2.3
X4.9Y-2.4
X4.9Y-2.8
X4.9Y-2.9
X4.9Y-3.0
X4.9Y-3.1
X4.9Y-3.2
X4.9Y-3.3
X4.9Y-3.4
X4.9Y-3.5
X4.9Y-3.6
X4.9Y-3.7
X4.9Y-3.8
X4.9Y-4.0
X4.9Y-4.1
X4.9Y-4.2
X4.9039Y-3.9
X5.31Y-1.1
X5.31Y-1.2
X5.31Y-1.3
X5.31Y-1.4
X5.31Y-1.5
X5.31Y-1.6
X5.31Y-1.7
X5.31Y-1.8
X5.31Y-1.9
X5.31Y-2.0
X5.31Y-2.1
X5.31Y-2.2
X5.31Y-2.5
X5.31Y-2.6
X5.31Y-2.7
X5.31Y-2.8
X5.31Y-2.9
X5.31Y-3.1
X5.31Y-3.2
X5.31Y-3.3
X5.31Y-3.4
X5.31Y-3.5
X5.31Y-3.6
X5.31Y-3.7
X5.31Y-3.8
X5.31Y-3.9
X5.31Y-4.0
X5.31Y-4.1
X5.31Y-4.2
X5.3139Y-2.3
X5.3139Y-2.4
X5.3139Y-3.0
X5.41Y-1.1
X5.41Y-1.2
X5.41Y-1.3
X5.41Y-1.4
X5.41Y-1.5
X5.41Y-1.6
X5.41Y-1.7
X5.41Y-1.8
X5.41Y-1.9
X5.41Y-2.0
X5.41Y-2.1
X5.41Y-2.2
X5.41Y-2.5
X5.41Y-2.6
X5.41Y-2.7
X5.41Y-2.8
X5.41Y-2.9
X5.41Y-3.1
X5.41Y-3.2
X5.41Y-3.3
X5.41Y-3.4
X5.41Y-3.5
X5.41Y-3.6
X5.41Y-3.7
X5.41Y-3.8
X5.41Y-3.9
X5.41Y-4.0
X5.41Y-4.1
X5.41Y-4.2
X5.4139Y-2.3
X5.4139Y-2.4
X5.4139Y-3.0
X5.51Y-1.1
X5.51Y-1.2
X5.51Y-1.3
X5.51Y-1.4
X5.51Y-1.5
X5.51Y-1.6
X5.51Y-1.7
X5.51Y-1.8
X5.51Y-1.9
X5.51Y-2.0
X5.51Y-2.1
X5.51Y-2.2
X5.51Y-2.5
X5.51Y-2.6
X5.51Y-2.7
X5.51Y-2.8
X5.51Y-2.9
X5.51Y-3.1
X5.51Y-3.2
X5.51Y-3.3
X5.51Y-3.4
X5.51Y-3.5
X5.51Y-3.6
X5.51Y-3.7
X5.51Y-3.8
X5.51Y-3.9
X5.51Y-4.0
X5.51Y-4.1
X5.51Y-4.2
X5.5139Y-2.3
X5.5139Y-2.4
X5.5139Y-3.0
X5.61Y-1.1
X5.61Y-1.2
X5.61Y-1.3
X5.61Y-1.4
X5.61Y-1.5
X5.61Y-1.6
X5.61Y-1.7
X5.61Y-1.8
X5.61Y-1.9
X5.61Y-2.0
X5.61Y-2.1
X5.61Y-2.2
X5.61Y-2.5
X5.61Y-2.6
X5.61Y-2.7
X5.61Y-2.8
X5.61Y-2.9
X5.61Y-3.1
X5.61Y-3.2
X5.61Y-3.3
X5.61Y-3.4
X5.61Y-3.5
X5.61Y-3.6
X5.61Y-3.7
X5.61Y-3.8
X5.61Y-3.9
X5.61Y-4.0
X5.61Y-4.1
X5.61Y-4.2
X5.6139Y-2.3
X5.6139Y-2.4
X5.6139Y-3.0
X5.71Y-1.1
X5.71Y-1.2
X5.71Y-1.3
X5.71Y-1.4
X5.71Y-1.5
X5.71Y-1.6
X5.71Y-1.7
X5.71Y-1.8
X5.71Y-1.9
X5.71Y-2.0
X5.71Y-2.1
X5.71Y-2.2
X5.71Y-2.5
X5.71Y-2.6
X5.71Y-2.7
X5.71Y-2.8
X5.71Y-2.9
X5.71Y-3.1
X5.71Y-3.2
X5.71Y-3.3
X5.71Y-3.4
X5.71Y-3.5
X5.71Y-3.6
X5.71Y-3.7
X5.71Y-3.8
X5.71Y-3.9
X5.71Y-4.0
X5.71Y-4.1
X5.71Y-4.2
X5.7139Y-2.3
X5.7139Y-2.4
X5.7139Y-3.0
X6.0Y-1.2
X6.0Y-1.3
X6.0Y-1.4
X6.0Y-1.5
X6.0Y-1.6
X6.0Y-1.7
X6.0Y-1.8
X6.0Y-1.9
X6.0Y-2.0
X6.0Y-2.1
X6.0Y-2.2
X6.0Y-2.3
X6.0Y-2.4
X6.0Y-2.5
X6.0Y-2.6
X6.0Y-2.7
X6.0Y-2.8
X6.0Y-2.9
X6.0Y-3.0
X6.0Y-3.1
X6.0Y-3.35
X6.0Y-3.45
X6.0Y-3.55
X6.0Y-3.65
X6.0Y-3.75
X6.0Y-3.85
X6.0Y-3.95
X6.0Y-4.05
X6.0Y-4.15
X6.1Y-1.2
X6.1Y-1.3
X6.1Y-1.4
X6.1Y-1.5
X6.1Y-1.6
X6.1Y-1.7
X6.1Y-1.8
X6.1Y-1.9
X6.1Y-2.0
X6.1Y-2.1
X6.1Y-2.2
X6.1Y-2.3
X6.1Y-2.4
X6.1Y-2.5
X6.1Y-2.6
X6.1Y-2.7
X6.1Y-2.8
X6.1Y-2.9
X6.1Y-3.0
X6.1Y-3.1
X6.1Y-3.35
X6.1Y-3.45
X6.1Y-3.55
X6.1Y-3.65
X6.1Y-3.75
X6.1Y-3.85
X6.1Y-3.95
X6.1Y-4.05
X6.1Y-4.15
M30
