%TF.GenerationSoftware,KiCad,Pcbnew,8.0.1*%
%TF.CreationDate,2024-03-17T17:10:13+00:00*%
%TF.ProjectId,ToastedBreadBoard64,546f6173-7465-4644-9272-656164426f61,rev?*%
%TF.SameCoordinates,Original*%
%TF.FileFunction,Legend,Top*%
%TF.FilePolarity,Positive*%
%FSLAX46Y46*%
G04 Gerber Fmt 4.6, Leading zero omitted, Abs format (unit mm)*
G04 Created by KiCad (PCBNEW 8.0.1) date 2024-03-17 17:10:13*
%MOMM*%
%LPD*%
G01*
G04 APERTURE LIST*
%ADD10C,0.300000*%
%ADD11C,0.150000*%
%ADD12C,0.120000*%
G04 APERTURE END LIST*
D10*
X147796190Y-39549638D02*
X146843809Y-39549638D01*
X146843809Y-39549638D02*
X146748571Y-40502019D01*
X146748571Y-40502019D02*
X146843809Y-40406780D01*
X146843809Y-40406780D02*
X147034285Y-40311542D01*
X147034285Y-40311542D02*
X147510476Y-40311542D01*
X147510476Y-40311542D02*
X147700952Y-40406780D01*
X147700952Y-40406780D02*
X147796190Y-40502019D01*
X147796190Y-40502019D02*
X147891428Y-40692495D01*
X147891428Y-40692495D02*
X147891428Y-41168685D01*
X147891428Y-41168685D02*
X147796190Y-41359161D01*
X147796190Y-41359161D02*
X147700952Y-41454400D01*
X147700952Y-41454400D02*
X147510476Y-41549638D01*
X147510476Y-41549638D02*
X147034285Y-41549638D01*
X147034285Y-41549638D02*
X146843809Y-41454400D01*
X146843809Y-41454400D02*
X146748571Y-41359161D01*
X112236190Y-39549638D02*
X111283809Y-39549638D01*
X111283809Y-39549638D02*
X111188571Y-40502019D01*
X111188571Y-40502019D02*
X111283809Y-40406780D01*
X111283809Y-40406780D02*
X111474285Y-40311542D01*
X111474285Y-40311542D02*
X111950476Y-40311542D01*
X111950476Y-40311542D02*
X112140952Y-40406780D01*
X112140952Y-40406780D02*
X112236190Y-40502019D01*
X112236190Y-40502019D02*
X112331428Y-40692495D01*
X112331428Y-40692495D02*
X112331428Y-41168685D01*
X112331428Y-41168685D02*
X112236190Y-41359161D01*
X112236190Y-41359161D02*
X112140952Y-41454400D01*
X112140952Y-41454400D02*
X111950476Y-41549638D01*
X111950476Y-41549638D02*
X111474285Y-41549638D01*
X111474285Y-41549638D02*
X111283809Y-41454400D01*
X111283809Y-41454400D02*
X111188571Y-41359161D01*
D11*
X119689523Y-110264580D02*
X119641904Y-110312200D01*
X119641904Y-110312200D02*
X119499047Y-110359819D01*
X119499047Y-110359819D02*
X119403809Y-110359819D01*
X119403809Y-110359819D02*
X119260952Y-110312200D01*
X119260952Y-110312200D02*
X119165714Y-110216961D01*
X119165714Y-110216961D02*
X119118095Y-110121723D01*
X119118095Y-110121723D02*
X119070476Y-109931247D01*
X119070476Y-109931247D02*
X119070476Y-109788390D01*
X119070476Y-109788390D02*
X119118095Y-109597914D01*
X119118095Y-109597914D02*
X119165714Y-109502676D01*
X119165714Y-109502676D02*
X119260952Y-109407438D01*
X119260952Y-109407438D02*
X119403809Y-109359819D01*
X119403809Y-109359819D02*
X119499047Y-109359819D01*
X119499047Y-109359819D02*
X119641904Y-109407438D01*
X119641904Y-109407438D02*
X119689523Y-109455057D01*
D10*
X108966190Y-91810114D02*
X109061428Y-91714876D01*
X109061428Y-91714876D02*
X109251904Y-91619638D01*
X109251904Y-91619638D02*
X109728095Y-91619638D01*
X109728095Y-91619638D02*
X109918571Y-91714876D01*
X109918571Y-91714876D02*
X110013809Y-91810114D01*
X110013809Y-91810114D02*
X110109047Y-92000590D01*
X110109047Y-92000590D02*
X110109047Y-92191066D01*
X110109047Y-92191066D02*
X110013809Y-92476780D01*
X110013809Y-92476780D02*
X108870952Y-93619638D01*
X108870952Y-93619638D02*
X110109047Y-93619638D01*
X111918571Y-91619638D02*
X110966190Y-91619638D01*
X110966190Y-91619638D02*
X110870952Y-92572019D01*
X110870952Y-92572019D02*
X110966190Y-92476780D01*
X110966190Y-92476780D02*
X111156666Y-92381542D01*
X111156666Y-92381542D02*
X111632857Y-92381542D01*
X111632857Y-92381542D02*
X111823333Y-92476780D01*
X111823333Y-92476780D02*
X111918571Y-92572019D01*
X111918571Y-92572019D02*
X112013809Y-92762495D01*
X112013809Y-92762495D02*
X112013809Y-93238685D01*
X112013809Y-93238685D02*
X111918571Y-93429161D01*
X111918571Y-93429161D02*
X111823333Y-93524400D01*
X111823333Y-93524400D02*
X111632857Y-93619638D01*
X111632857Y-93619638D02*
X111156666Y-93619638D01*
X111156666Y-93619638D02*
X110966190Y-93524400D01*
X110966190Y-93524400D02*
X110870952Y-93429161D01*
X154178095Y-108197733D02*
X155701905Y-108197733D01*
X103378095Y-81527733D02*
X104901905Y-81527733D01*
X104140000Y-82289638D02*
X104140000Y-80765828D01*
D11*
X114061905Y-110074104D02*
X114538095Y-110074104D01*
X113966667Y-110359819D02*
X114300000Y-109359819D01*
X114300000Y-109359819D02*
X114633333Y-110359819D01*
X137421904Y-24317438D02*
X137326666Y-24269819D01*
X137326666Y-24269819D02*
X137183809Y-24269819D01*
X137183809Y-24269819D02*
X137040952Y-24317438D01*
X137040952Y-24317438D02*
X136945714Y-24412676D01*
X136945714Y-24412676D02*
X136898095Y-24507914D01*
X136898095Y-24507914D02*
X136850476Y-24698390D01*
X136850476Y-24698390D02*
X136850476Y-24841247D01*
X136850476Y-24841247D02*
X136898095Y-25031723D01*
X136898095Y-25031723D02*
X136945714Y-25126961D01*
X136945714Y-25126961D02*
X137040952Y-25222200D01*
X137040952Y-25222200D02*
X137183809Y-25269819D01*
X137183809Y-25269819D02*
X137279047Y-25269819D01*
X137279047Y-25269819D02*
X137421904Y-25222200D01*
X137421904Y-25222200D02*
X137469523Y-25174580D01*
X137469523Y-25174580D02*
X137469523Y-24841247D01*
X137469523Y-24841247D02*
X137279047Y-24841247D01*
D10*
X151638095Y-108197733D02*
X153161905Y-108197733D01*
X152400000Y-108959638D02*
X152400000Y-107435828D01*
X151638095Y-81527733D02*
X153161905Y-81527733D01*
X152400000Y-82289638D02*
X152400000Y-80765828D01*
D11*
X134762857Y-24746009D02*
X134429524Y-24746009D01*
X134429524Y-25269819D02*
X134429524Y-24269819D01*
X134429524Y-24269819D02*
X134905714Y-24269819D01*
X134762857Y-109836009D02*
X134429524Y-109836009D01*
X134429524Y-110359819D02*
X134429524Y-109359819D01*
X134429524Y-109359819D02*
X134905714Y-109359819D01*
D10*
X147066190Y-77840114D02*
X147161428Y-77744876D01*
X147161428Y-77744876D02*
X147351904Y-77649638D01*
X147351904Y-77649638D02*
X147828095Y-77649638D01*
X147828095Y-77649638D02*
X148018571Y-77744876D01*
X148018571Y-77744876D02*
X148113809Y-77840114D01*
X148113809Y-77840114D02*
X148209047Y-78030590D01*
X148209047Y-78030590D02*
X148209047Y-78221066D01*
X148209047Y-78221066D02*
X148113809Y-78506780D01*
X148113809Y-78506780D02*
X146970952Y-79649638D01*
X146970952Y-79649638D02*
X148209047Y-79649638D01*
X149447142Y-77649638D02*
X149637619Y-77649638D01*
X149637619Y-77649638D02*
X149828095Y-77744876D01*
X149828095Y-77744876D02*
X149923333Y-77840114D01*
X149923333Y-77840114D02*
X150018571Y-78030590D01*
X150018571Y-78030590D02*
X150113809Y-78411542D01*
X150113809Y-78411542D02*
X150113809Y-78887733D01*
X150113809Y-78887733D02*
X150018571Y-79268685D01*
X150018571Y-79268685D02*
X149923333Y-79459161D01*
X149923333Y-79459161D02*
X149828095Y-79554400D01*
X149828095Y-79554400D02*
X149637619Y-79649638D01*
X149637619Y-79649638D02*
X149447142Y-79649638D01*
X149447142Y-79649638D02*
X149256666Y-79554400D01*
X149256666Y-79554400D02*
X149161428Y-79459161D01*
X149161428Y-79459161D02*
X149066190Y-79268685D01*
X149066190Y-79268685D02*
X148970952Y-78887733D01*
X148970952Y-78887733D02*
X148970952Y-78411542D01*
X148970952Y-78411542D02*
X149066190Y-78030590D01*
X149066190Y-78030590D02*
X149161428Y-77840114D01*
X149161428Y-77840114D02*
X149256666Y-77744876D01*
X149256666Y-77744876D02*
X149447142Y-77649638D01*
D11*
X144922857Y-109359819D02*
X144922857Y-110074104D01*
X144922857Y-110074104D02*
X144875238Y-110216961D01*
X144875238Y-110216961D02*
X144780000Y-110312200D01*
X144780000Y-110312200D02*
X144637143Y-110359819D01*
X144637143Y-110359819D02*
X144541905Y-110359819D01*
D10*
X103378095Y-26917733D02*
X104901905Y-26917733D01*
X104140000Y-27679638D02*
X104140000Y-26155828D01*
X103378095Y-108197733D02*
X104901905Y-108197733D01*
X104140000Y-108959638D02*
X104140000Y-107435828D01*
D11*
X124245714Y-109836009D02*
X124579047Y-109836009D01*
X124721904Y-110359819D02*
X124245714Y-110359819D01*
X124245714Y-110359819D02*
X124245714Y-109359819D01*
X124245714Y-109359819D02*
X124721904Y-109359819D01*
D10*
X105918095Y-108197733D02*
X107441905Y-108197733D01*
D11*
X114061905Y-24984104D02*
X114538095Y-24984104D01*
X113966667Y-25269819D02*
X114300000Y-24269819D01*
X114300000Y-24269819D02*
X114633333Y-25269819D01*
X121658095Y-25269819D02*
X121658095Y-24269819D01*
X121658095Y-24269819D02*
X121896190Y-24269819D01*
X121896190Y-24269819D02*
X122039047Y-24317438D01*
X122039047Y-24317438D02*
X122134285Y-24412676D01*
X122134285Y-24412676D02*
X122181904Y-24507914D01*
X122181904Y-24507914D02*
X122229523Y-24698390D01*
X122229523Y-24698390D02*
X122229523Y-24841247D01*
X122229523Y-24841247D02*
X122181904Y-25031723D01*
X122181904Y-25031723D02*
X122134285Y-25126961D01*
X122134285Y-25126961D02*
X122039047Y-25222200D01*
X122039047Y-25222200D02*
X121896190Y-25269819D01*
X121896190Y-25269819D02*
X121658095Y-25269819D01*
D10*
X147066190Y-91810114D02*
X147161428Y-91714876D01*
X147161428Y-91714876D02*
X147351904Y-91619638D01*
X147351904Y-91619638D02*
X147828095Y-91619638D01*
X147828095Y-91619638D02*
X148018571Y-91714876D01*
X148018571Y-91714876D02*
X148113809Y-91810114D01*
X148113809Y-91810114D02*
X148209047Y-92000590D01*
X148209047Y-92000590D02*
X148209047Y-92191066D01*
X148209047Y-92191066D02*
X148113809Y-92476780D01*
X148113809Y-92476780D02*
X146970952Y-93619638D01*
X146970952Y-93619638D02*
X148209047Y-93619638D01*
X150018571Y-91619638D02*
X149066190Y-91619638D01*
X149066190Y-91619638D02*
X148970952Y-92572019D01*
X148970952Y-92572019D02*
X149066190Y-92476780D01*
X149066190Y-92476780D02*
X149256666Y-92381542D01*
X149256666Y-92381542D02*
X149732857Y-92381542D01*
X149732857Y-92381542D02*
X149923333Y-92476780D01*
X149923333Y-92476780D02*
X150018571Y-92572019D01*
X150018571Y-92572019D02*
X150113809Y-92762495D01*
X150113809Y-92762495D02*
X150113809Y-93238685D01*
X150113809Y-93238685D02*
X150018571Y-93429161D01*
X150018571Y-93429161D02*
X149923333Y-93524400D01*
X149923333Y-93524400D02*
X149732857Y-93619638D01*
X149732857Y-93619638D02*
X149256666Y-93619638D01*
X149256666Y-93619638D02*
X149066190Y-93524400D01*
X149066190Y-93524400D02*
X148970952Y-93429161D01*
X147224761Y-26849638D02*
X147415238Y-26849638D01*
X147415238Y-26849638D02*
X147605714Y-26944876D01*
X147605714Y-26944876D02*
X147700952Y-27040114D01*
X147700952Y-27040114D02*
X147796190Y-27230590D01*
X147796190Y-27230590D02*
X147891428Y-27611542D01*
X147891428Y-27611542D02*
X147891428Y-28087733D01*
X147891428Y-28087733D02*
X147796190Y-28468685D01*
X147796190Y-28468685D02*
X147700952Y-28659161D01*
X147700952Y-28659161D02*
X147605714Y-28754400D01*
X147605714Y-28754400D02*
X147415238Y-28849638D01*
X147415238Y-28849638D02*
X147224761Y-28849638D01*
X147224761Y-28849638D02*
X147034285Y-28754400D01*
X147034285Y-28754400D02*
X146939047Y-28659161D01*
X146939047Y-28659161D02*
X146843809Y-28468685D01*
X146843809Y-28468685D02*
X146748571Y-28087733D01*
X146748571Y-28087733D02*
X146748571Y-27611542D01*
X146748571Y-27611542D02*
X146843809Y-27230590D01*
X146843809Y-27230590D02*
X146939047Y-27040114D01*
X146939047Y-27040114D02*
X147034285Y-26944876D01*
X147034285Y-26944876D02*
X147224761Y-26849638D01*
D11*
X116911428Y-109836009D02*
X117054285Y-109883628D01*
X117054285Y-109883628D02*
X117101904Y-109931247D01*
X117101904Y-109931247D02*
X117149523Y-110026485D01*
X117149523Y-110026485D02*
X117149523Y-110169342D01*
X117149523Y-110169342D02*
X117101904Y-110264580D01*
X117101904Y-110264580D02*
X117054285Y-110312200D01*
X117054285Y-110312200D02*
X116959047Y-110359819D01*
X116959047Y-110359819D02*
X116578095Y-110359819D01*
X116578095Y-110359819D02*
X116578095Y-109359819D01*
X116578095Y-109359819D02*
X116911428Y-109359819D01*
X116911428Y-109359819D02*
X117006666Y-109407438D01*
X117006666Y-109407438D02*
X117054285Y-109455057D01*
X117054285Y-109455057D02*
X117101904Y-109550295D01*
X117101904Y-109550295D02*
X117101904Y-109645533D01*
X117101904Y-109645533D02*
X117054285Y-109740771D01*
X117054285Y-109740771D02*
X117006666Y-109788390D01*
X117006666Y-109788390D02*
X116911428Y-109836009D01*
X116911428Y-109836009D02*
X116578095Y-109836009D01*
D10*
X154178095Y-81527733D02*
X155701905Y-81527733D01*
D11*
X124245714Y-24746009D02*
X124579047Y-24746009D01*
X124721904Y-25269819D02*
X124245714Y-25269819D01*
X124245714Y-25269819D02*
X124245714Y-24269819D01*
X124245714Y-24269819D02*
X124721904Y-24269819D01*
D10*
X111664761Y-26849638D02*
X111855238Y-26849638D01*
X111855238Y-26849638D02*
X112045714Y-26944876D01*
X112045714Y-26944876D02*
X112140952Y-27040114D01*
X112140952Y-27040114D02*
X112236190Y-27230590D01*
X112236190Y-27230590D02*
X112331428Y-27611542D01*
X112331428Y-27611542D02*
X112331428Y-28087733D01*
X112331428Y-28087733D02*
X112236190Y-28468685D01*
X112236190Y-28468685D02*
X112140952Y-28659161D01*
X112140952Y-28659161D02*
X112045714Y-28754400D01*
X112045714Y-28754400D02*
X111855238Y-28849638D01*
X111855238Y-28849638D02*
X111664761Y-28849638D01*
X111664761Y-28849638D02*
X111474285Y-28754400D01*
X111474285Y-28754400D02*
X111379047Y-28659161D01*
X111379047Y-28659161D02*
X111283809Y-28468685D01*
X111283809Y-28468685D02*
X111188571Y-28087733D01*
X111188571Y-28087733D02*
X111188571Y-27611542D01*
X111188571Y-27611542D02*
X111283809Y-27230590D01*
X111283809Y-27230590D02*
X111379047Y-27040114D01*
X111379047Y-27040114D02*
X111474285Y-26944876D01*
X111474285Y-26944876D02*
X111664761Y-26849638D01*
X110140952Y-104319638D02*
X111379047Y-104319638D01*
X111379047Y-104319638D02*
X110712380Y-105081542D01*
X110712380Y-105081542D02*
X110998095Y-105081542D01*
X110998095Y-105081542D02*
X111188571Y-105176780D01*
X111188571Y-105176780D02*
X111283809Y-105272019D01*
X111283809Y-105272019D02*
X111379047Y-105462495D01*
X111379047Y-105462495D02*
X111379047Y-105938685D01*
X111379047Y-105938685D02*
X111283809Y-106129161D01*
X111283809Y-106129161D02*
X111188571Y-106224400D01*
X111188571Y-106224400D02*
X110998095Y-106319638D01*
X110998095Y-106319638D02*
X110426666Y-106319638D01*
X110426666Y-106319638D02*
X110236190Y-106224400D01*
X110236190Y-106224400D02*
X110140952Y-106129161D01*
X112617142Y-104319638D02*
X112807619Y-104319638D01*
X112807619Y-104319638D02*
X112998095Y-104414876D01*
X112998095Y-104414876D02*
X113093333Y-104510114D01*
X113093333Y-104510114D02*
X113188571Y-104700590D01*
X113188571Y-104700590D02*
X113283809Y-105081542D01*
X113283809Y-105081542D02*
X113283809Y-105557733D01*
X113283809Y-105557733D02*
X113188571Y-105938685D01*
X113188571Y-105938685D02*
X113093333Y-106129161D01*
X113093333Y-106129161D02*
X112998095Y-106224400D01*
X112998095Y-106224400D02*
X112807619Y-106319638D01*
X112807619Y-106319638D02*
X112617142Y-106319638D01*
X112617142Y-106319638D02*
X112426666Y-106224400D01*
X112426666Y-106224400D02*
X112331428Y-106129161D01*
X112331428Y-106129161D02*
X112236190Y-105938685D01*
X112236190Y-105938685D02*
X112140952Y-105557733D01*
X112140952Y-105557733D02*
X112140952Y-105081542D01*
X112140952Y-105081542D02*
X112236190Y-104700590D01*
X112236190Y-104700590D02*
X112331428Y-104510114D01*
X112331428Y-104510114D02*
X112426666Y-104414876D01*
X112426666Y-104414876D02*
X112617142Y-104319638D01*
X105918095Y-81527733D02*
X107441905Y-81527733D01*
D11*
X116911428Y-24746009D02*
X117054285Y-24793628D01*
X117054285Y-24793628D02*
X117101904Y-24841247D01*
X117101904Y-24841247D02*
X117149523Y-24936485D01*
X117149523Y-24936485D02*
X117149523Y-25079342D01*
X117149523Y-25079342D02*
X117101904Y-25174580D01*
X117101904Y-25174580D02*
X117054285Y-25222200D01*
X117054285Y-25222200D02*
X116959047Y-25269819D01*
X116959047Y-25269819D02*
X116578095Y-25269819D01*
X116578095Y-25269819D02*
X116578095Y-24269819D01*
X116578095Y-24269819D02*
X116911428Y-24269819D01*
X116911428Y-24269819D02*
X117006666Y-24317438D01*
X117006666Y-24317438D02*
X117054285Y-24365057D01*
X117054285Y-24365057D02*
X117101904Y-24460295D01*
X117101904Y-24460295D02*
X117101904Y-24555533D01*
X117101904Y-24555533D02*
X117054285Y-24650771D01*
X117054285Y-24650771D02*
X117006666Y-24698390D01*
X117006666Y-24698390D02*
X116911428Y-24746009D01*
X116911428Y-24746009D02*
X116578095Y-24746009D01*
X137421904Y-109407438D02*
X137326666Y-109359819D01*
X137326666Y-109359819D02*
X137183809Y-109359819D01*
X137183809Y-109359819D02*
X137040952Y-109407438D01*
X137040952Y-109407438D02*
X136945714Y-109502676D01*
X136945714Y-109502676D02*
X136898095Y-109597914D01*
X136898095Y-109597914D02*
X136850476Y-109788390D01*
X136850476Y-109788390D02*
X136850476Y-109931247D01*
X136850476Y-109931247D02*
X136898095Y-110121723D01*
X136898095Y-110121723D02*
X136945714Y-110216961D01*
X136945714Y-110216961D02*
X137040952Y-110312200D01*
X137040952Y-110312200D02*
X137183809Y-110359819D01*
X137183809Y-110359819D02*
X137279047Y-110359819D01*
X137279047Y-110359819D02*
X137421904Y-110312200D01*
X137421904Y-110312200D02*
X137469523Y-110264580D01*
X137469523Y-110264580D02*
X137469523Y-109931247D01*
X137469523Y-109931247D02*
X137279047Y-109931247D01*
X128557438Y-92420839D02*
X128557438Y-91277982D01*
X130557438Y-91849411D02*
X128557438Y-91849411D01*
X130557438Y-90325601D02*
X130462200Y-90516077D01*
X130462200Y-90516077D02*
X130366961Y-90611315D01*
X130366961Y-90611315D02*
X130176485Y-90706553D01*
X130176485Y-90706553D02*
X129605057Y-90706553D01*
X129605057Y-90706553D02*
X129414580Y-90611315D01*
X129414580Y-90611315D02*
X129319342Y-90516077D01*
X129319342Y-90516077D02*
X129224104Y-90325601D01*
X129224104Y-90325601D02*
X129224104Y-90039886D01*
X129224104Y-90039886D02*
X129319342Y-89849410D01*
X129319342Y-89849410D02*
X129414580Y-89754172D01*
X129414580Y-89754172D02*
X129605057Y-89658934D01*
X129605057Y-89658934D02*
X130176485Y-89658934D01*
X130176485Y-89658934D02*
X130366961Y-89754172D01*
X130366961Y-89754172D02*
X130462200Y-89849410D01*
X130462200Y-89849410D02*
X130557438Y-90039886D01*
X130557438Y-90039886D02*
X130557438Y-90325601D01*
X130557438Y-87944648D02*
X129509819Y-87944648D01*
X129509819Y-87944648D02*
X129319342Y-88039886D01*
X129319342Y-88039886D02*
X129224104Y-88230362D01*
X129224104Y-88230362D02*
X129224104Y-88611315D01*
X129224104Y-88611315D02*
X129319342Y-88801791D01*
X130462200Y-87944648D02*
X130557438Y-88135124D01*
X130557438Y-88135124D02*
X130557438Y-88611315D01*
X130557438Y-88611315D02*
X130462200Y-88801791D01*
X130462200Y-88801791D02*
X130271723Y-88897029D01*
X130271723Y-88897029D02*
X130081247Y-88897029D01*
X130081247Y-88897029D02*
X129890771Y-88801791D01*
X129890771Y-88801791D02*
X129795533Y-88611315D01*
X129795533Y-88611315D02*
X129795533Y-88135124D01*
X129795533Y-88135124D02*
X129700295Y-87944648D01*
X130462200Y-87087505D02*
X130557438Y-86897029D01*
X130557438Y-86897029D02*
X130557438Y-86516077D01*
X130557438Y-86516077D02*
X130462200Y-86325600D01*
X130462200Y-86325600D02*
X130271723Y-86230362D01*
X130271723Y-86230362D02*
X130176485Y-86230362D01*
X130176485Y-86230362D02*
X129986009Y-86325600D01*
X129986009Y-86325600D02*
X129890771Y-86516077D01*
X129890771Y-86516077D02*
X129890771Y-86801791D01*
X129890771Y-86801791D02*
X129795533Y-86992267D01*
X129795533Y-86992267D02*
X129605057Y-87087505D01*
X129605057Y-87087505D02*
X129509819Y-87087505D01*
X129509819Y-87087505D02*
X129319342Y-86992267D01*
X129319342Y-86992267D02*
X129224104Y-86801791D01*
X129224104Y-86801791D02*
X129224104Y-86516077D01*
X129224104Y-86516077D02*
X129319342Y-86325600D01*
X129224104Y-85658933D02*
X129224104Y-84897029D01*
X128557438Y-85373219D02*
X130271723Y-85373219D01*
X130271723Y-85373219D02*
X130462200Y-85277981D01*
X130462200Y-85277981D02*
X130557438Y-85087505D01*
X130557438Y-85087505D02*
X130557438Y-84897029D01*
X130462200Y-83468457D02*
X130557438Y-83658933D01*
X130557438Y-83658933D02*
X130557438Y-84039886D01*
X130557438Y-84039886D02*
X130462200Y-84230362D01*
X130462200Y-84230362D02*
X130271723Y-84325600D01*
X130271723Y-84325600D02*
X129509819Y-84325600D01*
X129509819Y-84325600D02*
X129319342Y-84230362D01*
X129319342Y-84230362D02*
X129224104Y-84039886D01*
X129224104Y-84039886D02*
X129224104Y-83658933D01*
X129224104Y-83658933D02*
X129319342Y-83468457D01*
X129319342Y-83468457D02*
X129509819Y-83373219D01*
X129509819Y-83373219D02*
X129700295Y-83373219D01*
X129700295Y-83373219D02*
X129890771Y-84325600D01*
X130557438Y-81658933D02*
X128557438Y-81658933D01*
X130462200Y-81658933D02*
X130557438Y-81849409D01*
X130557438Y-81849409D02*
X130557438Y-82230362D01*
X130557438Y-82230362D02*
X130462200Y-82420838D01*
X130462200Y-82420838D02*
X130366961Y-82516076D01*
X130366961Y-82516076D02*
X130176485Y-82611314D01*
X130176485Y-82611314D02*
X129605057Y-82611314D01*
X129605057Y-82611314D02*
X129414580Y-82516076D01*
X129414580Y-82516076D02*
X129319342Y-82420838D01*
X129319342Y-82420838D02*
X129224104Y-82230362D01*
X129224104Y-82230362D02*
X129224104Y-81849409D01*
X129224104Y-81849409D02*
X129319342Y-81658933D01*
X129509819Y-78516075D02*
X129605057Y-78230361D01*
X129605057Y-78230361D02*
X129700295Y-78135123D01*
X129700295Y-78135123D02*
X129890771Y-78039885D01*
X129890771Y-78039885D02*
X130176485Y-78039885D01*
X130176485Y-78039885D02*
X130366961Y-78135123D01*
X130366961Y-78135123D02*
X130462200Y-78230361D01*
X130462200Y-78230361D02*
X130557438Y-78420837D01*
X130557438Y-78420837D02*
X130557438Y-79182742D01*
X130557438Y-79182742D02*
X128557438Y-79182742D01*
X128557438Y-79182742D02*
X128557438Y-78516075D01*
X128557438Y-78516075D02*
X128652676Y-78325599D01*
X128652676Y-78325599D02*
X128747914Y-78230361D01*
X128747914Y-78230361D02*
X128938390Y-78135123D01*
X128938390Y-78135123D02*
X129128866Y-78135123D01*
X129128866Y-78135123D02*
X129319342Y-78230361D01*
X129319342Y-78230361D02*
X129414580Y-78325599D01*
X129414580Y-78325599D02*
X129509819Y-78516075D01*
X129509819Y-78516075D02*
X129509819Y-79182742D01*
X130557438Y-77182742D02*
X129224104Y-77182742D01*
X129605057Y-77182742D02*
X129414580Y-77087504D01*
X129414580Y-77087504D02*
X129319342Y-76992266D01*
X129319342Y-76992266D02*
X129224104Y-76801790D01*
X129224104Y-76801790D02*
X129224104Y-76611313D01*
X130462200Y-75182742D02*
X130557438Y-75373218D01*
X130557438Y-75373218D02*
X130557438Y-75754171D01*
X130557438Y-75754171D02*
X130462200Y-75944647D01*
X130462200Y-75944647D02*
X130271723Y-76039885D01*
X130271723Y-76039885D02*
X129509819Y-76039885D01*
X129509819Y-76039885D02*
X129319342Y-75944647D01*
X129319342Y-75944647D02*
X129224104Y-75754171D01*
X129224104Y-75754171D02*
X129224104Y-75373218D01*
X129224104Y-75373218D02*
X129319342Y-75182742D01*
X129319342Y-75182742D02*
X129509819Y-75087504D01*
X129509819Y-75087504D02*
X129700295Y-75087504D01*
X129700295Y-75087504D02*
X129890771Y-76039885D01*
X130557438Y-73373218D02*
X129509819Y-73373218D01*
X129509819Y-73373218D02*
X129319342Y-73468456D01*
X129319342Y-73468456D02*
X129224104Y-73658932D01*
X129224104Y-73658932D02*
X129224104Y-74039885D01*
X129224104Y-74039885D02*
X129319342Y-74230361D01*
X130462200Y-73373218D02*
X130557438Y-73563694D01*
X130557438Y-73563694D02*
X130557438Y-74039885D01*
X130557438Y-74039885D02*
X130462200Y-74230361D01*
X130462200Y-74230361D02*
X130271723Y-74325599D01*
X130271723Y-74325599D02*
X130081247Y-74325599D01*
X130081247Y-74325599D02*
X129890771Y-74230361D01*
X129890771Y-74230361D02*
X129795533Y-74039885D01*
X129795533Y-74039885D02*
X129795533Y-73563694D01*
X129795533Y-73563694D02*
X129700295Y-73373218D01*
X130557438Y-71563694D02*
X128557438Y-71563694D01*
X130462200Y-71563694D02*
X130557438Y-71754170D01*
X130557438Y-71754170D02*
X130557438Y-72135123D01*
X130557438Y-72135123D02*
X130462200Y-72325599D01*
X130462200Y-72325599D02*
X130366961Y-72420837D01*
X130366961Y-72420837D02*
X130176485Y-72516075D01*
X130176485Y-72516075D02*
X129605057Y-72516075D01*
X129605057Y-72516075D02*
X129414580Y-72420837D01*
X129414580Y-72420837D02*
X129319342Y-72325599D01*
X129319342Y-72325599D02*
X129224104Y-72135123D01*
X129224104Y-72135123D02*
X129224104Y-71754170D01*
X129224104Y-71754170D02*
X129319342Y-71563694D01*
X130557438Y-70611313D02*
X128557438Y-70611313D01*
X129319342Y-70611313D02*
X129224104Y-70420837D01*
X129224104Y-70420837D02*
X129224104Y-70039884D01*
X129224104Y-70039884D02*
X129319342Y-69849408D01*
X129319342Y-69849408D02*
X129414580Y-69754170D01*
X129414580Y-69754170D02*
X129605057Y-69658932D01*
X129605057Y-69658932D02*
X130176485Y-69658932D01*
X130176485Y-69658932D02*
X130366961Y-69754170D01*
X130366961Y-69754170D02*
X130462200Y-69849408D01*
X130462200Y-69849408D02*
X130557438Y-70039884D01*
X130557438Y-70039884D02*
X130557438Y-70420837D01*
X130557438Y-70420837D02*
X130462200Y-70611313D01*
X130557438Y-68516075D02*
X130462200Y-68706551D01*
X130462200Y-68706551D02*
X130366961Y-68801789D01*
X130366961Y-68801789D02*
X130176485Y-68897027D01*
X130176485Y-68897027D02*
X129605057Y-68897027D01*
X129605057Y-68897027D02*
X129414580Y-68801789D01*
X129414580Y-68801789D02*
X129319342Y-68706551D01*
X129319342Y-68706551D02*
X129224104Y-68516075D01*
X129224104Y-68516075D02*
X129224104Y-68230360D01*
X129224104Y-68230360D02*
X129319342Y-68039884D01*
X129319342Y-68039884D02*
X129414580Y-67944646D01*
X129414580Y-67944646D02*
X129605057Y-67849408D01*
X129605057Y-67849408D02*
X130176485Y-67849408D01*
X130176485Y-67849408D02*
X130366961Y-67944646D01*
X130366961Y-67944646D02*
X130462200Y-68039884D01*
X130462200Y-68039884D02*
X130557438Y-68230360D01*
X130557438Y-68230360D02*
X130557438Y-68516075D01*
X130557438Y-66135122D02*
X129509819Y-66135122D01*
X129509819Y-66135122D02*
X129319342Y-66230360D01*
X129319342Y-66230360D02*
X129224104Y-66420836D01*
X129224104Y-66420836D02*
X129224104Y-66801789D01*
X129224104Y-66801789D02*
X129319342Y-66992265D01*
X130462200Y-66135122D02*
X130557438Y-66325598D01*
X130557438Y-66325598D02*
X130557438Y-66801789D01*
X130557438Y-66801789D02*
X130462200Y-66992265D01*
X130462200Y-66992265D02*
X130271723Y-67087503D01*
X130271723Y-67087503D02*
X130081247Y-67087503D01*
X130081247Y-67087503D02*
X129890771Y-66992265D01*
X129890771Y-66992265D02*
X129795533Y-66801789D01*
X129795533Y-66801789D02*
X129795533Y-66325598D01*
X129795533Y-66325598D02*
X129700295Y-66135122D01*
X130557438Y-65182741D02*
X129224104Y-65182741D01*
X129605057Y-65182741D02*
X129414580Y-65087503D01*
X129414580Y-65087503D02*
X129319342Y-64992265D01*
X129319342Y-64992265D02*
X129224104Y-64801789D01*
X129224104Y-64801789D02*
X129224104Y-64611312D01*
X130557438Y-63087503D02*
X128557438Y-63087503D01*
X130462200Y-63087503D02*
X130557438Y-63277979D01*
X130557438Y-63277979D02*
X130557438Y-63658932D01*
X130557438Y-63658932D02*
X130462200Y-63849408D01*
X130462200Y-63849408D02*
X130366961Y-63944646D01*
X130366961Y-63944646D02*
X130176485Y-64039884D01*
X130176485Y-64039884D02*
X129605057Y-64039884D01*
X129605057Y-64039884D02*
X129414580Y-63944646D01*
X129414580Y-63944646D02*
X129319342Y-63849408D01*
X129319342Y-63849408D02*
X129224104Y-63658932D01*
X129224104Y-63658932D02*
X129224104Y-63277979D01*
X129224104Y-63277979D02*
X129319342Y-63087503D01*
X128462200Y-60706551D02*
X131033628Y-62420836D01*
X128557438Y-59468455D02*
X129986009Y-59468455D01*
X129986009Y-59468455D02*
X130271723Y-59563694D01*
X130271723Y-59563694D02*
X130462200Y-59754170D01*
X130462200Y-59754170D02*
X130557438Y-60039884D01*
X130557438Y-60039884D02*
X130557438Y-60230360D01*
X130557438Y-58230360D02*
X130462200Y-58420836D01*
X130462200Y-58420836D02*
X130366961Y-58516074D01*
X130366961Y-58516074D02*
X130176485Y-58611312D01*
X130176485Y-58611312D02*
X129605057Y-58611312D01*
X129605057Y-58611312D02*
X129414580Y-58516074D01*
X129414580Y-58516074D02*
X129319342Y-58420836D01*
X129319342Y-58420836D02*
X129224104Y-58230360D01*
X129224104Y-58230360D02*
X129224104Y-57944645D01*
X129224104Y-57944645D02*
X129319342Y-57754169D01*
X129319342Y-57754169D02*
X129414580Y-57658931D01*
X129414580Y-57658931D02*
X129605057Y-57563693D01*
X129605057Y-57563693D02*
X130176485Y-57563693D01*
X130176485Y-57563693D02*
X130366961Y-57658931D01*
X130366961Y-57658931D02*
X130462200Y-57754169D01*
X130462200Y-57754169D02*
X130557438Y-57944645D01*
X130557438Y-57944645D02*
X130557438Y-58230360D01*
X130557438Y-56706550D02*
X128557438Y-56706550D01*
X130557438Y-55849407D02*
X129509819Y-55849407D01*
X129509819Y-55849407D02*
X129319342Y-55944645D01*
X129319342Y-55944645D02*
X129224104Y-56135121D01*
X129224104Y-56135121D02*
X129224104Y-56420836D01*
X129224104Y-56420836D02*
X129319342Y-56611312D01*
X129319342Y-56611312D02*
X129414580Y-56706550D01*
X129224104Y-54897026D02*
X130557438Y-54897026D01*
X129414580Y-54897026D02*
X129319342Y-54801788D01*
X129319342Y-54801788D02*
X129224104Y-54611312D01*
X129224104Y-54611312D02*
X129224104Y-54325597D01*
X129224104Y-54325597D02*
X129319342Y-54135121D01*
X129319342Y-54135121D02*
X129509819Y-54039883D01*
X129509819Y-54039883D02*
X130557438Y-54039883D01*
X129509819Y-50897025D02*
X129605057Y-50611311D01*
X129605057Y-50611311D02*
X129700295Y-50516073D01*
X129700295Y-50516073D02*
X129890771Y-50420835D01*
X129890771Y-50420835D02*
X130176485Y-50420835D01*
X130176485Y-50420835D02*
X130366961Y-50516073D01*
X130366961Y-50516073D02*
X130462200Y-50611311D01*
X130462200Y-50611311D02*
X130557438Y-50801787D01*
X130557438Y-50801787D02*
X130557438Y-51563692D01*
X130557438Y-51563692D02*
X128557438Y-51563692D01*
X128557438Y-51563692D02*
X128557438Y-50897025D01*
X128557438Y-50897025D02*
X128652676Y-50706549D01*
X128652676Y-50706549D02*
X128747914Y-50611311D01*
X128747914Y-50611311D02*
X128938390Y-50516073D01*
X128938390Y-50516073D02*
X129128866Y-50516073D01*
X129128866Y-50516073D02*
X129319342Y-50611311D01*
X129319342Y-50611311D02*
X129414580Y-50706549D01*
X129414580Y-50706549D02*
X129509819Y-50897025D01*
X129509819Y-50897025D02*
X129509819Y-51563692D01*
X130557438Y-49563692D02*
X129224104Y-49563692D01*
X129605057Y-49563692D02*
X129414580Y-49468454D01*
X129414580Y-49468454D02*
X129319342Y-49373216D01*
X129319342Y-49373216D02*
X129224104Y-49182740D01*
X129224104Y-49182740D02*
X129224104Y-48992263D01*
X130557438Y-47468454D02*
X129509819Y-47468454D01*
X129509819Y-47468454D02*
X129319342Y-47563692D01*
X129319342Y-47563692D02*
X129224104Y-47754168D01*
X129224104Y-47754168D02*
X129224104Y-48135121D01*
X129224104Y-48135121D02*
X129319342Y-48325597D01*
X130462200Y-47468454D02*
X130557438Y-47658930D01*
X130557438Y-47658930D02*
X130557438Y-48135121D01*
X130557438Y-48135121D02*
X130462200Y-48325597D01*
X130462200Y-48325597D02*
X130271723Y-48420835D01*
X130271723Y-48420835D02*
X130081247Y-48420835D01*
X130081247Y-48420835D02*
X129890771Y-48325597D01*
X129890771Y-48325597D02*
X129795533Y-48135121D01*
X129795533Y-48135121D02*
X129795533Y-47658930D01*
X129795533Y-47658930D02*
X129700295Y-47468454D01*
X130557438Y-45658930D02*
X128557438Y-45658930D01*
X130462200Y-45658930D02*
X130557438Y-45849406D01*
X130557438Y-45849406D02*
X130557438Y-46230359D01*
X130557438Y-46230359D02*
X130462200Y-46420835D01*
X130462200Y-46420835D02*
X130366961Y-46516073D01*
X130366961Y-46516073D02*
X130176485Y-46611311D01*
X130176485Y-46611311D02*
X129605057Y-46611311D01*
X129605057Y-46611311D02*
X129414580Y-46516073D01*
X129414580Y-46516073D02*
X129319342Y-46420835D01*
X129319342Y-46420835D02*
X129224104Y-46230359D01*
X129224104Y-46230359D02*
X129224104Y-45849406D01*
X129224104Y-45849406D02*
X129319342Y-45658930D01*
X130557438Y-44420835D02*
X130462200Y-44611311D01*
X130462200Y-44611311D02*
X130271723Y-44706549D01*
X130271723Y-44706549D02*
X128557438Y-44706549D01*
X130462200Y-42897025D02*
X130557438Y-43087501D01*
X130557438Y-43087501D02*
X130557438Y-43468454D01*
X130557438Y-43468454D02*
X130462200Y-43658930D01*
X130462200Y-43658930D02*
X130271723Y-43754168D01*
X130271723Y-43754168D02*
X129509819Y-43754168D01*
X129509819Y-43754168D02*
X129319342Y-43658930D01*
X129319342Y-43658930D02*
X129224104Y-43468454D01*
X129224104Y-43468454D02*
X129224104Y-43087501D01*
X129224104Y-43087501D02*
X129319342Y-42897025D01*
X129319342Y-42897025D02*
X129509819Y-42801787D01*
X129509819Y-42801787D02*
X129700295Y-42801787D01*
X129700295Y-42801787D02*
X129890771Y-43754168D01*
X129224104Y-42135120D02*
X130557438Y-41658930D01*
X129224104Y-41182739D02*
X130557438Y-41658930D01*
X130557438Y-41658930D02*
X131033628Y-41849406D01*
X131033628Y-41849406D02*
X131128866Y-41944644D01*
X131128866Y-41944644D02*
X131224104Y-42135120D01*
X144922857Y-24269819D02*
X144922857Y-24984104D01*
X144922857Y-24984104D02*
X144875238Y-25126961D01*
X144875238Y-25126961D02*
X144780000Y-25222200D01*
X144780000Y-25222200D02*
X144637143Y-25269819D01*
X144637143Y-25269819D02*
X144541905Y-25269819D01*
D10*
X105918095Y-26917733D02*
X107441905Y-26917733D01*
D11*
X139414286Y-110359819D02*
X139414286Y-109359819D01*
X139414286Y-109836009D02*
X139985714Y-109836009D01*
X139985714Y-110359819D02*
X139985714Y-109359819D01*
X121658095Y-110359819D02*
X121658095Y-109359819D01*
X121658095Y-109359819D02*
X121896190Y-109359819D01*
X121896190Y-109359819D02*
X122039047Y-109407438D01*
X122039047Y-109407438D02*
X122134285Y-109502676D01*
X122134285Y-109502676D02*
X122181904Y-109597914D01*
X122181904Y-109597914D02*
X122229523Y-109788390D01*
X122229523Y-109788390D02*
X122229523Y-109931247D01*
X122229523Y-109931247D02*
X122181904Y-110121723D01*
X122181904Y-110121723D02*
X122134285Y-110216961D01*
X122134285Y-110216961D02*
X122039047Y-110312200D01*
X122039047Y-110312200D02*
X121896190Y-110359819D01*
X121896190Y-110359819D02*
X121658095Y-110359819D01*
D10*
X151638095Y-26917733D02*
X153161905Y-26917733D01*
X152400000Y-27679638D02*
X152400000Y-26155828D01*
D11*
X142240000Y-25269819D02*
X142240000Y-24269819D01*
D10*
X108966190Y-77840114D02*
X109061428Y-77744876D01*
X109061428Y-77744876D02*
X109251904Y-77649638D01*
X109251904Y-77649638D02*
X109728095Y-77649638D01*
X109728095Y-77649638D02*
X109918571Y-77744876D01*
X109918571Y-77744876D02*
X110013809Y-77840114D01*
X110013809Y-77840114D02*
X110109047Y-78030590D01*
X110109047Y-78030590D02*
X110109047Y-78221066D01*
X110109047Y-78221066D02*
X110013809Y-78506780D01*
X110013809Y-78506780D02*
X108870952Y-79649638D01*
X108870952Y-79649638D02*
X110109047Y-79649638D01*
X111347142Y-77649638D02*
X111537619Y-77649638D01*
X111537619Y-77649638D02*
X111728095Y-77744876D01*
X111728095Y-77744876D02*
X111823333Y-77840114D01*
X111823333Y-77840114D02*
X111918571Y-78030590D01*
X111918571Y-78030590D02*
X112013809Y-78411542D01*
X112013809Y-78411542D02*
X112013809Y-78887733D01*
X112013809Y-78887733D02*
X111918571Y-79268685D01*
X111918571Y-79268685D02*
X111823333Y-79459161D01*
X111823333Y-79459161D02*
X111728095Y-79554400D01*
X111728095Y-79554400D02*
X111537619Y-79649638D01*
X111537619Y-79649638D02*
X111347142Y-79649638D01*
X111347142Y-79649638D02*
X111156666Y-79554400D01*
X111156666Y-79554400D02*
X111061428Y-79459161D01*
X111061428Y-79459161D02*
X110966190Y-79268685D01*
X110966190Y-79268685D02*
X110870952Y-78887733D01*
X110870952Y-78887733D02*
X110870952Y-78411542D01*
X110870952Y-78411542D02*
X110966190Y-78030590D01*
X110966190Y-78030590D02*
X111061428Y-77840114D01*
X111061428Y-77840114D02*
X111156666Y-77744876D01*
X111156666Y-77744876D02*
X111347142Y-77649638D01*
X110109047Y-54249638D02*
X108966190Y-54249638D01*
X109537618Y-54249638D02*
X109537618Y-52249638D01*
X109537618Y-52249638D02*
X109347142Y-52535352D01*
X109347142Y-52535352D02*
X109156666Y-52725828D01*
X109156666Y-52725828D02*
X108966190Y-52821066D01*
X111347142Y-52249638D02*
X111537619Y-52249638D01*
X111537619Y-52249638D02*
X111728095Y-52344876D01*
X111728095Y-52344876D02*
X111823333Y-52440114D01*
X111823333Y-52440114D02*
X111918571Y-52630590D01*
X111918571Y-52630590D02*
X112013809Y-53011542D01*
X112013809Y-53011542D02*
X112013809Y-53487733D01*
X112013809Y-53487733D02*
X111918571Y-53868685D01*
X111918571Y-53868685D02*
X111823333Y-54059161D01*
X111823333Y-54059161D02*
X111728095Y-54154400D01*
X111728095Y-54154400D02*
X111537619Y-54249638D01*
X111537619Y-54249638D02*
X111347142Y-54249638D01*
X111347142Y-54249638D02*
X111156666Y-54154400D01*
X111156666Y-54154400D02*
X111061428Y-54059161D01*
X111061428Y-54059161D02*
X110966190Y-53868685D01*
X110966190Y-53868685D02*
X110870952Y-53487733D01*
X110870952Y-53487733D02*
X110870952Y-53011542D01*
X110870952Y-53011542D02*
X110966190Y-52630590D01*
X110966190Y-52630590D02*
X111061428Y-52440114D01*
X111061428Y-52440114D02*
X111156666Y-52344876D01*
X111156666Y-52344876D02*
X111347142Y-52249638D01*
D11*
X139414286Y-25269819D02*
X139414286Y-24269819D01*
X139414286Y-24746009D02*
X139985714Y-24746009D01*
X139985714Y-25269819D02*
X139985714Y-24269819D01*
D10*
X154178095Y-26917733D02*
X155701905Y-26917733D01*
X148209047Y-66949638D02*
X147066190Y-66949638D01*
X147637618Y-66949638D02*
X147637618Y-64949638D01*
X147637618Y-64949638D02*
X147447142Y-65235352D01*
X147447142Y-65235352D02*
X147256666Y-65425828D01*
X147256666Y-65425828D02*
X147066190Y-65521066D01*
X150018571Y-64949638D02*
X149066190Y-64949638D01*
X149066190Y-64949638D02*
X148970952Y-65902019D01*
X148970952Y-65902019D02*
X149066190Y-65806780D01*
X149066190Y-65806780D02*
X149256666Y-65711542D01*
X149256666Y-65711542D02*
X149732857Y-65711542D01*
X149732857Y-65711542D02*
X149923333Y-65806780D01*
X149923333Y-65806780D02*
X150018571Y-65902019D01*
X150018571Y-65902019D02*
X150113809Y-66092495D01*
X150113809Y-66092495D02*
X150113809Y-66568685D01*
X150113809Y-66568685D02*
X150018571Y-66759161D01*
X150018571Y-66759161D02*
X149923333Y-66854400D01*
X149923333Y-66854400D02*
X149732857Y-66949638D01*
X149732857Y-66949638D02*
X149256666Y-66949638D01*
X149256666Y-66949638D02*
X149066190Y-66854400D01*
X149066190Y-66854400D02*
X148970952Y-66759161D01*
X146970952Y-104319638D02*
X148209047Y-104319638D01*
X148209047Y-104319638D02*
X147542380Y-105081542D01*
X147542380Y-105081542D02*
X147828095Y-105081542D01*
X147828095Y-105081542D02*
X148018571Y-105176780D01*
X148018571Y-105176780D02*
X148113809Y-105272019D01*
X148113809Y-105272019D02*
X148209047Y-105462495D01*
X148209047Y-105462495D02*
X148209047Y-105938685D01*
X148209047Y-105938685D02*
X148113809Y-106129161D01*
X148113809Y-106129161D02*
X148018571Y-106224400D01*
X148018571Y-106224400D02*
X147828095Y-106319638D01*
X147828095Y-106319638D02*
X147256666Y-106319638D01*
X147256666Y-106319638D02*
X147066190Y-106224400D01*
X147066190Y-106224400D02*
X146970952Y-106129161D01*
X149447142Y-104319638D02*
X149637619Y-104319638D01*
X149637619Y-104319638D02*
X149828095Y-104414876D01*
X149828095Y-104414876D02*
X149923333Y-104510114D01*
X149923333Y-104510114D02*
X150018571Y-104700590D01*
X150018571Y-104700590D02*
X150113809Y-105081542D01*
X150113809Y-105081542D02*
X150113809Y-105557733D01*
X150113809Y-105557733D02*
X150018571Y-105938685D01*
X150018571Y-105938685D02*
X149923333Y-106129161D01*
X149923333Y-106129161D02*
X149828095Y-106224400D01*
X149828095Y-106224400D02*
X149637619Y-106319638D01*
X149637619Y-106319638D02*
X149447142Y-106319638D01*
X149447142Y-106319638D02*
X149256666Y-106224400D01*
X149256666Y-106224400D02*
X149161428Y-106129161D01*
X149161428Y-106129161D02*
X149066190Y-105938685D01*
X149066190Y-105938685D02*
X148970952Y-105557733D01*
X148970952Y-105557733D02*
X148970952Y-105081542D01*
X148970952Y-105081542D02*
X149066190Y-104700590D01*
X149066190Y-104700590D02*
X149161428Y-104510114D01*
X149161428Y-104510114D02*
X149256666Y-104414876D01*
X149256666Y-104414876D02*
X149447142Y-104319638D01*
D11*
X142240000Y-110359819D02*
X142240000Y-109359819D01*
D10*
X110109047Y-66949638D02*
X108966190Y-66949638D01*
X109537618Y-66949638D02*
X109537618Y-64949638D01*
X109537618Y-64949638D02*
X109347142Y-65235352D01*
X109347142Y-65235352D02*
X109156666Y-65425828D01*
X109156666Y-65425828D02*
X108966190Y-65521066D01*
X111918571Y-64949638D02*
X110966190Y-64949638D01*
X110966190Y-64949638D02*
X110870952Y-65902019D01*
X110870952Y-65902019D02*
X110966190Y-65806780D01*
X110966190Y-65806780D02*
X111156666Y-65711542D01*
X111156666Y-65711542D02*
X111632857Y-65711542D01*
X111632857Y-65711542D02*
X111823333Y-65806780D01*
X111823333Y-65806780D02*
X111918571Y-65902019D01*
X111918571Y-65902019D02*
X112013809Y-66092495D01*
X112013809Y-66092495D02*
X112013809Y-66568685D01*
X112013809Y-66568685D02*
X111918571Y-66759161D01*
X111918571Y-66759161D02*
X111823333Y-66854400D01*
X111823333Y-66854400D02*
X111632857Y-66949638D01*
X111632857Y-66949638D02*
X111156666Y-66949638D01*
X111156666Y-66949638D02*
X110966190Y-66854400D01*
X110966190Y-66854400D02*
X110870952Y-66759161D01*
D11*
X119689523Y-25174580D02*
X119641904Y-25222200D01*
X119641904Y-25222200D02*
X119499047Y-25269819D01*
X119499047Y-25269819D02*
X119403809Y-25269819D01*
X119403809Y-25269819D02*
X119260952Y-25222200D01*
X119260952Y-25222200D02*
X119165714Y-25126961D01*
X119165714Y-25126961D02*
X119118095Y-25031723D01*
X119118095Y-25031723D02*
X119070476Y-24841247D01*
X119070476Y-24841247D02*
X119070476Y-24698390D01*
X119070476Y-24698390D02*
X119118095Y-24507914D01*
X119118095Y-24507914D02*
X119165714Y-24412676D01*
X119165714Y-24412676D02*
X119260952Y-24317438D01*
X119260952Y-24317438D02*
X119403809Y-24269819D01*
X119403809Y-24269819D02*
X119499047Y-24269819D01*
X119499047Y-24269819D02*
X119641904Y-24317438D01*
X119641904Y-24317438D02*
X119689523Y-24365057D01*
D10*
X148209047Y-54249638D02*
X147066190Y-54249638D01*
X147637618Y-54249638D02*
X147637618Y-52249638D01*
X147637618Y-52249638D02*
X147447142Y-52535352D01*
X147447142Y-52535352D02*
X147256666Y-52725828D01*
X147256666Y-52725828D02*
X147066190Y-52821066D01*
X149447142Y-52249638D02*
X149637619Y-52249638D01*
X149637619Y-52249638D02*
X149828095Y-52344876D01*
X149828095Y-52344876D02*
X149923333Y-52440114D01*
X149923333Y-52440114D02*
X150018571Y-52630590D01*
X150018571Y-52630590D02*
X150113809Y-53011542D01*
X150113809Y-53011542D02*
X150113809Y-53487733D01*
X150113809Y-53487733D02*
X150018571Y-53868685D01*
X150018571Y-53868685D02*
X149923333Y-54059161D01*
X149923333Y-54059161D02*
X149828095Y-54154400D01*
X149828095Y-54154400D02*
X149637619Y-54249638D01*
X149637619Y-54249638D02*
X149447142Y-54249638D01*
X149447142Y-54249638D02*
X149256666Y-54154400D01*
X149256666Y-54154400D02*
X149161428Y-54059161D01*
X149161428Y-54059161D02*
X149066190Y-53868685D01*
X149066190Y-53868685D02*
X148970952Y-53487733D01*
X148970952Y-53487733D02*
X148970952Y-53011542D01*
X148970952Y-53011542D02*
X149066190Y-52630590D01*
X149066190Y-52630590D02*
X149161428Y-52440114D01*
X149161428Y-52440114D02*
X149256666Y-52344876D01*
X149256666Y-52344876D02*
X149447142Y-52249638D01*
D11*
X128778095Y-25294819D02*
X128778095Y-26104342D01*
X128778095Y-26104342D02*
X128825714Y-26199580D01*
X128825714Y-26199580D02*
X128873333Y-26247200D01*
X128873333Y-26247200D02*
X128968571Y-26294819D01*
X128968571Y-26294819D02*
X129159047Y-26294819D01*
X129159047Y-26294819D02*
X129254285Y-26247200D01*
X129254285Y-26247200D02*
X129301904Y-26199580D01*
X129301904Y-26199580D02*
X129349523Y-26104342D01*
X129349523Y-26104342D02*
X129349523Y-25294819D01*
X130349523Y-26294819D02*
X129778095Y-26294819D01*
X130063809Y-26294819D02*
X130063809Y-25294819D01*
X130063809Y-25294819D02*
X129968571Y-25437676D01*
X129968571Y-25437676D02*
X129873333Y-25532914D01*
X129873333Y-25532914D02*
X129778095Y-25580533D01*
X152908095Y-107714819D02*
X152908095Y-106714819D01*
X152908095Y-107191009D02*
X153479523Y-107191009D01*
X153479523Y-107714819D02*
X153479523Y-106714819D01*
X153860476Y-106714819D02*
X154479523Y-106714819D01*
X154479523Y-106714819D02*
X154146190Y-107095771D01*
X154146190Y-107095771D02*
X154289047Y-107095771D01*
X154289047Y-107095771D02*
X154384285Y-107143390D01*
X154384285Y-107143390D02*
X154431904Y-107191009D01*
X154431904Y-107191009D02*
X154479523Y-107286247D01*
X154479523Y-107286247D02*
X154479523Y-107524342D01*
X154479523Y-107524342D02*
X154431904Y-107619580D01*
X154431904Y-107619580D02*
X154384285Y-107667200D01*
X154384285Y-107667200D02*
X154289047Y-107714819D01*
X154289047Y-107714819D02*
X154003333Y-107714819D01*
X154003333Y-107714819D02*
X153908095Y-107667200D01*
X153908095Y-107667200D02*
X153860476Y-107619580D01*
X104648095Y-20084819D02*
X104648095Y-19084819D01*
X104648095Y-19561009D02*
X105219523Y-19561009D01*
X105219523Y-20084819D02*
X105219523Y-19084819D01*
X106219523Y-20084819D02*
X105648095Y-20084819D01*
X105933809Y-20084819D02*
X105933809Y-19084819D01*
X105933809Y-19084819D02*
X105838571Y-19227676D01*
X105838571Y-19227676D02*
X105743333Y-19322914D01*
X105743333Y-19322914D02*
X105648095Y-19370533D01*
X158416666Y-32474819D02*
X158416666Y-33189104D01*
X158416666Y-33189104D02*
X158369047Y-33331961D01*
X158369047Y-33331961D02*
X158273809Y-33427200D01*
X158273809Y-33427200D02*
X158130952Y-33474819D01*
X158130952Y-33474819D02*
X158035714Y-33474819D01*
X159321428Y-32808152D02*
X159321428Y-33474819D01*
X159083333Y-32427200D02*
X158845238Y-33141485D01*
X158845238Y-33141485D02*
X159464285Y-33141485D01*
X152908095Y-20084819D02*
X152908095Y-19084819D01*
X152908095Y-19561009D02*
X153479523Y-19561009D01*
X153479523Y-20084819D02*
X153479523Y-19084819D01*
X153908095Y-19180057D02*
X153955714Y-19132438D01*
X153955714Y-19132438D02*
X154050952Y-19084819D01*
X154050952Y-19084819D02*
X154289047Y-19084819D01*
X154289047Y-19084819D02*
X154384285Y-19132438D01*
X154384285Y-19132438D02*
X154431904Y-19180057D01*
X154431904Y-19180057D02*
X154479523Y-19275295D01*
X154479523Y-19275295D02*
X154479523Y-19370533D01*
X154479523Y-19370533D02*
X154431904Y-19513390D01*
X154431904Y-19513390D02*
X153860476Y-20084819D01*
X153860476Y-20084819D02*
X154479523Y-20084819D01*
X105071666Y-82224819D02*
X105071666Y-82939104D01*
X105071666Y-82939104D02*
X105024047Y-83081961D01*
X105024047Y-83081961D02*
X104928809Y-83177200D01*
X104928809Y-83177200D02*
X104785952Y-83224819D01*
X104785952Y-83224819D02*
X104690714Y-83224819D01*
X105500238Y-82320057D02*
X105547857Y-82272438D01*
X105547857Y-82272438D02*
X105643095Y-82224819D01*
X105643095Y-82224819D02*
X105881190Y-82224819D01*
X105881190Y-82224819D02*
X105976428Y-82272438D01*
X105976428Y-82272438D02*
X106024047Y-82320057D01*
X106024047Y-82320057D02*
X106071666Y-82415295D01*
X106071666Y-82415295D02*
X106071666Y-82510533D01*
X106071666Y-82510533D02*
X106024047Y-82653390D01*
X106024047Y-82653390D02*
X105452619Y-83224819D01*
X105452619Y-83224819D02*
X106071666Y-83224819D01*
X99996666Y-31204819D02*
X99996666Y-31919104D01*
X99996666Y-31919104D02*
X99949047Y-32061961D01*
X99949047Y-32061961D02*
X99853809Y-32157200D01*
X99853809Y-32157200D02*
X99710952Y-32204819D01*
X99710952Y-32204819D02*
X99615714Y-32204819D01*
X100996666Y-32204819D02*
X100425238Y-32204819D01*
X100710952Y-32204819D02*
X100710952Y-31204819D01*
X100710952Y-31204819D02*
X100615714Y-31347676D01*
X100615714Y-31347676D02*
X100520476Y-31442914D01*
X100520476Y-31442914D02*
X100425238Y-31490533D01*
X104648095Y-107714819D02*
X104648095Y-106714819D01*
X104648095Y-107191009D02*
X105219523Y-107191009D01*
X105219523Y-107714819D02*
X105219523Y-106714819D01*
X106124285Y-107048152D02*
X106124285Y-107714819D01*
X105886190Y-106667200D02*
X105648095Y-107381485D01*
X105648095Y-107381485D02*
X106267142Y-107381485D01*
X153336666Y-82214819D02*
X153336666Y-82929104D01*
X153336666Y-82929104D02*
X153289047Y-83071961D01*
X153289047Y-83071961D02*
X153193809Y-83167200D01*
X153193809Y-83167200D02*
X153050952Y-83214819D01*
X153050952Y-83214819D02*
X152955714Y-83214819D01*
X154289047Y-82214819D02*
X153812857Y-82214819D01*
X153812857Y-82214819D02*
X153765238Y-82691009D01*
X153765238Y-82691009D02*
X153812857Y-82643390D01*
X153812857Y-82643390D02*
X153908095Y-82595771D01*
X153908095Y-82595771D02*
X154146190Y-82595771D01*
X154146190Y-82595771D02*
X154241428Y-82643390D01*
X154241428Y-82643390D02*
X154289047Y-82691009D01*
X154289047Y-82691009D02*
X154336666Y-82786247D01*
X154336666Y-82786247D02*
X154336666Y-83024342D01*
X154336666Y-83024342D02*
X154289047Y-83119580D01*
X154289047Y-83119580D02*
X154241428Y-83167200D01*
X154241428Y-83167200D02*
X154146190Y-83214819D01*
X154146190Y-83214819D02*
X153908095Y-83214819D01*
X153908095Y-83214819D02*
X153812857Y-83167200D01*
X153812857Y-83167200D02*
X153765238Y-83119580D01*
D12*
%TO.C,U1*%
X146304000Y-26670000D02*
X133604000Y-26670000D01*
X133604000Y-26670000D02*
X133604000Y-27200000D01*
X125730000Y-26670000D02*
X113030000Y-26670000D01*
X113030000Y-26670000D02*
X113030000Y-107950000D01*
X133604000Y-27200000D02*
X125730000Y-27200000D01*
X125730000Y-27200000D02*
X125730000Y-26670000D01*
X146303999Y-107950000D02*
X146304000Y-26670000D01*
X113080000Y-107950000D02*
X146303999Y-107950000D01*
%TO.C,J4*%
X151070000Y-29150000D02*
X152400000Y-29150000D01*
X151070000Y-30480000D02*
X151070000Y-29150000D01*
X151070000Y-31750000D02*
X151070000Y-80070000D01*
X151070000Y-31750000D02*
X153670000Y-31750000D01*
X151070000Y-80070000D02*
X156270000Y-80070000D01*
X153670000Y-29150000D02*
X156270000Y-29150000D01*
X153670000Y-31750000D02*
X153670000Y-29150000D01*
X156270000Y-29150000D02*
X156270000Y-80070000D01*
%TO.C,J2*%
X102805000Y-83770000D02*
X104135000Y-83770000D01*
X102805000Y-85100000D02*
X102805000Y-83770000D01*
X102805000Y-86370000D02*
X102805000Y-106750000D01*
X102805000Y-86370000D02*
X105405000Y-86370000D01*
X102805000Y-106750000D02*
X108005000Y-106750000D01*
X105405000Y-83770000D02*
X108005000Y-83770000D01*
X105405000Y-86370000D02*
X105405000Y-83770000D01*
X108005000Y-83770000D02*
X108005000Y-106750000D01*
%TO.C,J1*%
X102810000Y-29150000D02*
X104140000Y-29150000D01*
X102810000Y-30480000D02*
X102810000Y-29150000D01*
X102810000Y-31750000D02*
X102810000Y-80070000D01*
X102810000Y-31750000D02*
X105410000Y-31750000D01*
X102810000Y-80070000D02*
X108010000Y-80070000D01*
X105410000Y-29150000D02*
X108010000Y-29150000D01*
X105410000Y-31750000D02*
X105410000Y-29150000D01*
X108010000Y-29150000D02*
X108010000Y-80070000D01*
%TO.C,J5*%
X151070000Y-83760000D02*
X152400000Y-83760000D01*
X151070000Y-85090000D02*
X151070000Y-83760000D01*
X151070000Y-86360000D02*
X151070000Y-106740000D01*
X151070000Y-86360000D02*
X153670000Y-86360000D01*
X151070000Y-106740000D02*
X156270000Y-106740000D01*
X153670000Y-83760000D02*
X156270000Y-83760000D01*
X153670000Y-86360000D02*
X153670000Y-83760000D01*
X156270000Y-83760000D02*
X156270000Y-106740000D01*
%TD*%
M02*
