M48
; DRILL file {KiCad 7.0.2-79-gd0069e0e1d} date Mon May  8 00:19:55 2023
; FORMAT={-:-/ absolute / inch / decimal}
; #@! TF.CreationDate,2023-05-08T00:19:55+01:00
; #@! TF.GenerationSoftware,Kicad,Pcbnew,7.0.2-79-gd0069e0e1d
; #@! TF.FileFunction,Plated,1,2,PTH
FMAT,2
INCH
; #@! TA.AperFunction,Plated,PTH,ComponentDrill
T1C0.0300
; #@! TA.AperFunction,Plated,PTH,ComponentDrill
T2C0.0315
; #@! TA.AperFunction,Plated,PTH,ComponentDrill
T3C0.0394
%
G90
G05
T1
X4.5461Y-2.5
X4.5461Y-2.6
X4.5461Y-2.7
X4.55Y-1.1
X4.55Y-1.2
X4.55Y-1.3
X4.55Y-1.4
X4.55Y-1.5
X4.55Y-1.6
X4.55Y-1.7
X4.55Y-1.8
X4.55Y-1.9
X4.55Y-2.0
X4.55Y-2.1
X4.55Y-2.2
X4.55Y-2.3
X4.55Y-2.4
X4.55Y-2.8
X4.55Y-2.9
X4.55Y-3.0
X4.55Y-3.1
X4.55Y-3.2
X4.55Y-3.3
X4.55Y-3.4
X4.55Y-3.5
X4.55Y-3.6
X4.55Y-3.7
X4.55Y-3.8
X4.55Y-4.0
X4.55Y-4.1
X4.55Y-4.2
X4.5539Y-3.9
X4.6461Y-2.5
X4.6461Y-2.6
X4.6461Y-2.7
X4.65Y-1.1
X4.65Y-1.2
X4.65Y-1.3
X4.65Y-1.4
X4.65Y-1.5
X4.65Y-1.6
X4.65Y-1.7
X4.65Y-1.8
X4.65Y-1.9
X4.65Y-2.0
X4.65Y-2.1
X4.65Y-2.2
X4.65Y-2.3
X4.65Y-2.4
X4.65Y-2.8
X4.65Y-2.9
X4.65Y-3.0
X4.65Y-3.1
X4.65Y-3.2
X4.65Y-3.3
X4.65Y-3.4
X4.65Y-3.5
X4.65Y-3.6
X4.65Y-3.7
X4.65Y-3.8
X4.65Y-4.0
X4.65Y-4.1
X4.65Y-4.2
X4.6539Y-3.9
X4.8461Y-2.5
X4.8461Y-2.6
X4.8461Y-2.7
X4.85Y-1.1
X4.85Y-1.2
X4.85Y-1.3
X4.85Y-1.4
X4.85Y-1.5
X4.85Y-1.6
X4.85Y-1.7
X4.85Y-1.8
X4.85Y-1.9
X4.85Y-2.0
X4.85Y-2.1
X4.85Y-2.2
X4.85Y-2.3
X4.85Y-2.4
X4.85Y-2.8
X4.85Y-2.9
X4.85Y-3.0
X4.85Y-3.1
X4.85Y-3.2
X4.85Y-3.3
X4.85Y-3.4
X4.85Y-3.5
X4.85Y-3.6
X4.85Y-3.7
X4.85Y-3.8
X4.85Y-4.0
X4.85Y-4.1
X4.85Y-4.2
X4.8539Y-3.9
X4.9461Y-2.5
X4.9461Y-2.6
X4.9461Y-2.7
X4.95Y-1.1
X4.95Y-1.2
X4.95Y-1.3
X4.95Y-1.4
X4.95Y-1.5
X4.95Y-1.6
X4.95Y-1.7
X4.95Y-1.8
X4.95Y-1.9
X4.95Y-2.0
X4.95Y-2.1
X4.95Y-2.2
X4.95Y-2.3
X4.95Y-2.4
X4.95Y-2.8
X4.95Y-2.9
X4.95Y-3.0
X4.95Y-3.1
X4.95Y-3.2
X4.95Y-3.3
X4.95Y-3.4
X4.95Y-3.5
X4.95Y-3.6
X4.95Y-3.7
X4.95Y-3.8
X4.95Y-4.0
X4.95Y-4.1
X4.95Y-4.2
X4.9539Y-3.9
X5.15Y-1.1
X5.15Y-1.2
X5.15Y-1.3
X5.15Y-1.4
X5.15Y-1.5
X5.15Y-1.6
X5.15Y-1.7
X5.15Y-1.8
X5.15Y-1.9
X5.15Y-2.0
X5.15Y-2.1
X5.15Y-2.2
X5.15Y-2.5
X5.15Y-2.6
X5.15Y-2.7
X5.15Y-2.8
X5.15Y-2.9
X5.15Y-3.1
X5.15Y-3.2
X5.15Y-3.3
X5.15Y-3.4
X5.15Y-3.5
X5.15Y-3.6
X5.15Y-3.7
X5.15Y-3.8
X5.15Y-3.9
X5.15Y-4.0
X5.15Y-4.1
X5.15Y-4.2
X5.1539Y-2.3
X5.1539Y-2.4
X5.1539Y-3.0
X5.25Y-1.1
X5.25Y-1.2
X5.25Y-1.3
X5.25Y-1.4
X5.25Y-1.5
X5.25Y-1.6
X5.25Y-1.7
X5.25Y-1.8
X5.25Y-1.9
X5.25Y-2.0
X5.25Y-2.1
X5.25Y-2.2
X5.25Y-2.5
X5.25Y-2.6
X5.25Y-2.7
X5.25Y-2.8
X5.25Y-2.9
X5.25Y-3.1
X5.25Y-3.2
X5.25Y-3.3
X5.25Y-3.4
X5.25Y-3.5
X5.25Y-3.6
X5.25Y-3.7
X5.25Y-3.8
X5.25Y-3.9
X5.25Y-4.0
X5.25Y-4.1
X5.25Y-4.2
X5.2539Y-2.3
X5.2539Y-2.4
X5.2539Y-3.0
X5.45Y-1.1
X5.45Y-1.2
X5.45Y-1.3
X5.45Y-1.4
X5.45Y-1.5
X5.45Y-1.6
X5.45Y-1.7
X5.45Y-1.8
X5.45Y-1.9
X5.45Y-2.0
X5.45Y-2.1
X5.45Y-2.2
X5.45Y-2.5
X5.45Y-2.6
X5.45Y-2.7
X5.45Y-2.8
X5.45Y-2.9
X5.45Y-3.1
X5.45Y-3.2
X5.45Y-3.3
X5.45Y-3.4
X5.45Y-3.5
X5.45Y-3.6
X5.45Y-3.7
X5.45Y-3.8
X5.45Y-3.9
X5.45Y-4.0
X5.45Y-4.1
X5.45Y-4.2
X5.4539Y-2.3
X5.4539Y-2.4
X5.4539Y-3.0
X5.55Y-1.1
X5.55Y-1.2
X5.55Y-1.3
X5.55Y-1.4
X5.55Y-1.5
X5.55Y-1.6
X5.55Y-1.7
X5.55Y-1.8
X5.55Y-1.9
X5.55Y-2.0
X5.55Y-2.1
X5.55Y-2.2
X5.55Y-2.5
X5.55Y-2.6
X5.55Y-2.7
X5.55Y-2.8
X5.55Y-2.9
X5.55Y-3.1
X5.55Y-3.2
X5.55Y-3.3
X5.55Y-3.4
X5.55Y-3.5
X5.55Y-3.6
X5.55Y-3.7
X5.55Y-3.8
X5.55Y-3.9
X5.55Y-4.0
X5.55Y-4.1
X5.55Y-4.2
X5.5539Y-2.3
X5.5539Y-2.4
X5.5539Y-3.0
T2
X4.7461Y-2.5
X4.7461Y-2.6
X4.7461Y-2.7
X4.75Y-1.1
X4.75Y-1.2
X4.75Y-1.3
X4.75Y-1.4
X4.75Y-1.5
X4.75Y-1.6
X4.75Y-1.7
X4.75Y-1.8
X4.75Y-1.9
X4.75Y-2.0
X4.75Y-2.1
X4.75Y-2.2
X4.75Y-2.3
X4.75Y-2.4
X4.75Y-2.8
X4.75Y-2.9
X4.75Y-3.0
X4.75Y-3.1
X4.75Y-3.2
X4.75Y-3.3
X4.75Y-3.4
X4.75Y-3.5
X4.75Y-3.6
X4.75Y-3.7
X4.75Y-3.8
X4.75Y-4.0
X4.75Y-4.1
X4.75Y-4.2
X4.7539Y-3.9
X5.35Y-1.1
X5.35Y-1.2
X5.35Y-1.3
X5.35Y-1.4
X5.35Y-1.5
X5.35Y-1.6
X5.35Y-1.7
X5.35Y-1.8
X5.35Y-1.9
X5.35Y-2.0
X5.35Y-2.1
X5.35Y-2.2
X5.35Y-2.5
X5.35Y-2.6
X5.35Y-2.7
X5.35Y-2.8
X5.35Y-2.9
X5.35Y-3.1
X5.35Y-3.2
X5.35Y-3.3
X5.35Y-3.4
X5.35Y-3.5
X5.35Y-3.6
X5.35Y-3.7
X5.35Y-3.8
X5.35Y-3.9
X5.35Y-4.0
X5.35Y-4.1
X5.35Y-4.2
X5.3539Y-2.3
X5.3539Y-2.4
X5.3539Y-3.0
T3
X4.15Y-1.2
X4.15Y-1.3
X4.15Y-1.4
X4.15Y-1.5
X4.15Y-1.6
X4.15Y-1.7
X4.15Y-1.8
X4.15Y-1.9
X4.15Y-2.0
X4.15Y-2.1
X4.15Y-2.2
X4.15Y-2.3
X4.15Y-2.4
X4.15Y-2.5
X4.15Y-2.6
X4.15Y-2.7
X4.15Y-2.8
X4.15Y-2.9
X4.15Y-3.0
X4.15Y-3.1
X4.15Y-3.35
X4.15Y-3.45
X4.15Y-3.55
X4.15Y-3.65
X4.15Y-3.75
X4.15Y-3.85
X4.15Y-3.95
X4.15Y-4.05
X4.15Y-4.15
X4.25Y-1.2
X4.25Y-1.3
X4.25Y-1.4
X4.25Y-1.5
X4.25Y-1.6
X4.25Y-1.7
X4.25Y-1.8
X4.25Y-1.9
X4.25Y-2.0
X4.25Y-2.1
X4.25Y-2.2
X4.25Y-2.3
X4.25Y-2.4
X4.25Y-2.5
X4.25Y-2.6
X4.25Y-2.7
X4.25Y-2.8
X4.25Y-2.9
X4.25Y-3.0
X4.25Y-3.1
X4.25Y-3.35
X4.25Y-3.45
X4.25Y-3.55
X4.25Y-3.65
X4.25Y-3.75
X4.25Y-3.85
X4.25Y-3.95
X4.25Y-4.05
X4.25Y-4.15
X5.85Y-1.2
X5.85Y-1.3
X5.85Y-1.4
X5.85Y-1.5
X5.85Y-1.6
X5.85Y-1.7
X5.85Y-1.8
X5.85Y-1.9
X5.85Y-2.0
X5.85Y-2.1
X5.85Y-2.2
X5.85Y-2.3
X5.85Y-2.4
X5.85Y-2.5
X5.85Y-2.6
X5.85Y-2.7
X5.85Y-2.8
X5.85Y-2.9
X5.85Y-3.0
X5.85Y-3.1
X5.85Y-3.35
X5.85Y-3.45
X5.85Y-3.55
X5.85Y-3.65
X5.85Y-3.75
X5.85Y-3.85
X5.85Y-3.95
X5.85Y-4.05
X5.85Y-4.15
X5.95Y-1.2
X5.95Y-1.3
X5.95Y-1.4
X5.95Y-1.5
X5.95Y-1.6
X5.95Y-1.7
X5.95Y-1.8
X5.95Y-1.9
X5.95Y-2.0
X5.95Y-2.1
X5.95Y-2.2
X5.95Y-2.3
X5.95Y-2.4
X5.95Y-2.5
X5.95Y-2.6
X5.95Y-2.7
X5.95Y-2.8
X5.95Y-2.9
X5.95Y-3.0
X5.95Y-3.1
X5.95Y-3.35
X5.95Y-3.45
X5.95Y-3.55
X5.95Y-3.65
X5.95Y-3.75
X5.95Y-3.85
X5.95Y-3.95
X5.95Y-4.05
X5.95Y-4.15
T0
M30
